<svg xmlns="http://www.w3.org/2000/svg" width="32.278" height="32.274" viewBox="0 0 32.278 32.274">
  <g id="Сгруппировать_14552" data-name="Сгруппировать 14552" transform="translate(895.6 -218.918)">
    <g id="Сгруппировать_14551" data-name="Сгруппировать 14551" transform="translate(-895.2 219.321)">
      <path id="Контур_16502" data-name="Контур 16502" d="M-895.2,236.343V233.76a.437.437,0,0,0,.06-.121c.07-.516.109-1.038.208-1.548a15.047,15.047,0,0,1,3.514-7.269,15.446,15.446,0,0,1,14.926-5.23,14.358,14.358,0,0,1,7.269,3.509,15.406,15.406,0,0,1,5.217,14.928,14.957,14.957,0,0,1-4.806,8.618,15.365,15.365,0,0,1-8.231,3.963c-.416.064-.832.122-1.249.183h-2.459l-.914-.139a15.353,15.353,0,0,1-6.433-2.438,15.549,15.549,0,0,1-6.919-10.747C-895.08,237.093-895.139,236.718-895.2,236.343Zm12.009.253a6.672,6.672,0,0,1-1.026-10.114,6.682,6.682,0,0,1,9.533.019,6.665,6.665,0,0,1-1.023,10.078,10.956,10.956,0,0,1,6.747,7.5,13.83,13.83,0,0,0-.561-18.716,13.9,13.9,0,0,0-19.785-.088,13.82,13.82,0,0,0-.644,18.819,10.749,10.749,0,0,1,2.45-4.575A10.893,10.893,0,0,1-883.191,236.6Zm3.266,12.316.005.077c.915-.08,1.84-.1,2.744-.25a13.891,13.891,0,0,0,6.072-2.6c.434-.32.611-.626.437-1.127a1.111,1.111,0,0,1-.028-.119,8.844,8.844,0,0,0-3.617-5.464,8.687,8.687,0,0,0-6.874-1.46,8.7,8.7,0,0,0-5.218,3.146,8.561,8.561,0,0,0-1.913,4.4.36.36,0,0,0,.09.282,13.724,13.724,0,0,0,4.165,2.346A13.126,13.126,0,0,0-879.925,248.911Zm5.237-17.8a4.8,4.8,0,0,0-4.746-4.79,4.8,4.8,0,0,0-4.8,4.77,4.765,4.765,0,0,0,4.747,4.77A4.765,4.765,0,0,0-874.688,231.113Z" transform="translate(895.2 -219.321)" stroke="currentColor" stroke-width="0.8"/>
    </g>
  </g>
</svg>
