<svg xmlns="http://www.w3.org/2000/svg" width="25.311" height="27" viewBox="0 0 25.311 27">
  <g id="Сгруппировать_14335" data-name="Сгруппировать 14335" transform="translate(1475.983 201)">
    <g id="Сгруппировать_14334" data-name="Сгруппировать 14334" transform="translate(-1475.983 -201)">
      <path id="Контур_14339" data-name="Контур 14339" d="M-1456.314-201a.712.712,0,0,1,.375.73c-.018.9-.006,1.81-.006,2.751h2.47c.52,0,.694.172.694.69q0,10.718,0,21.435v.339c.5,0,.992,0,1.481,0,.389,0,.622.2.628.518s-.231.536-.635.536h-24.046c-.39,0-.623-.194-.629-.516s.231-.537.634-.538c.482,0,.964,0,1.474,0v-21.728c0-.582.153-.737.727-.737h2.421c.006-.068.016-.134.016-.2,0-.826.014-1.653-.006-2.478a.868.868,0,0,1,.323-.8Zm-10.178,25.939v-.284q0-2.834,0-5.669c0-.506.175-.685.672-.685h4.983c.5,0,.673.178.673.684q0,2.834,0,5.669v.276h6.313v-21.38h-18.955v21.389Zm-3.158-22.474h12.635v-2.4h-12.635Zm8.418,22.472v-5.569h-4.193v5.564h1.569c0-.6,0-1.187,0-1.774a.908.908,0,0,1,.041-.309.515.515,0,0,1,.57-.324.517.517,0,0,1,.439.515c.007.63,0,1.259,0,1.9Z" transform="translate(1475.983 201)"/>
      <path id="Контур_14343" data-name="Контур 14343" d="M-1393.895-75.019c.5,0,1,0,1.5,0a.529.529,0,0,1,.587.583q0,1.527,0,3.054a.527.527,0,0,1-.589.58q-1.527,0-3.054,0a.522.522,0,0,1-.573-.57q-.005-1.54,0-3.08a.523.523,0,0,1,.576-.567C-1394.93-75.022-1394.412-75.019-1393.895-75.019Zm1.028,1.07h-2.088v2.079h2.088Z" transform="translate(1400.243 81.664)" />
      <path id="Контур_14344" data-name="Контур 14344" d="M-1276.018-72.94c0-.491,0-.983,0-1.474a.534.534,0,0,1,.59-.607q1.527,0,3.054,0a.522.522,0,0,1,.573.569q.005,1.54,0,3.08a.522.522,0,0,1-.576.567q-1.527,0-3.054,0a.529.529,0,0,1-.587-.583C-1276.021-71.9-1276.018-72.422-1276.018-72.94Zm1.07-1.021v2.088h2.079v-2.088Z" transform="translate(1286.564 81.667)" />
      <path id="Контур_14345" data-name="Контур 14345" d="M-1151.806-72.918c0,.509,0,1.018,0,1.527a.529.529,0,0,1-.586.584q-1.527,0-3.054,0a.522.522,0,0,1-.577-.566q-.005-1.54,0-3.08a.522.522,0,0,1,.573-.57q1.54,0,3.08,0a.523.523,0,0,1,.564.579C-1151.8-73.936-1151.806-73.427-1151.806-72.918Zm-1.071,1.05v-2.087h-2.077v2.087Z" transform="translate(1172.899 81.67)" />
      <path id="Контур_14346" data-name="Контур 14346" d="M-1393.939,49.194c-.5,0-1,0-1.5,0a.528.528,0,0,1-.581-.589q0-1.527,0-3.054a.522.522,0,0,1,.569-.574q1.54-.005,3.08,0a.522.522,0,0,1,.568.575q0,1.527,0,3.054a.529.529,0,0,1-.582.587C-1392.9,49.2-1393.422,49.194-1393.939,49.194Zm1.066-1.061V46.046h-2.078v2.087Z" transform="translate(1400.24 -32.002)" />
      <path id="Контур_14347" data-name="Контур 14347" d="M-1273.9,49.2c-.509,0-1.018,0-1.527,0a.528.528,0,0,1-.59-.579q0-1.527,0-3.054a.528.528,0,0,1,.586-.584q1.527,0,3.054,0a.522.522,0,0,1,.577.566q.006,1.54,0,3.08a.523.523,0,0,1-.573.57C-1272.886,49.2-1273.4,49.2-1273.9,49.2Zm-1.049-3.157v2.088h2.081V46.04Z" transform="translate(1286.568 -32.006)"/>
      <path id="Контур_14348" data-name="Контур 14348" d="M-1151.807,47.088c0,.509,0,1.018,0,1.527a.528.528,0,0,1-.588.582q-1.527,0-3.054,0a.522.522,0,0,1-.575-.568q-.005-1.54,0-3.08a.522.522,0,0,1,.574-.568q1.527,0,3.054,0a.528.528,0,0,1,.588.582C-1151.8,46.07-1151.807,46.579-1151.807,47.088Zm-3.149-1.049v2.088h2.079V46.039Z" transform="translate(1172.9 -32.006)" />
      <path id="Контур_14349" data-name="Контур 14349" d="M-1393.922,164.981c.509,0,1.018,0,1.527,0a.528.528,0,0,1,.588.582q0,1.527,0,3.054a.528.528,0,0,1-.589.581q-1.527,0-3.054,0a.522.522,0,0,1-.574-.569q-.005-1.54,0-3.08a.523.523,0,0,1,.575-.568C-1394.94,164.978-1394.431,164.981-1393.922,164.981Zm-1.033,1.061v2.088h2.078v-2.088Z" transform="translate(1400.243 -145.68)" />
      <path id="Контур_14350" data-name="Контур 14350" d="M-1153.9,169.2c-.509,0-1.018,0-1.527,0a.528.528,0,0,1-.59-.58q0-1.527,0-3.054a.528.528,0,0,1,.586-.583q1.527,0,3.054,0a.522.522,0,0,1,.576.567q.006,1.54,0,3.08a.523.523,0,0,1-.573.57C-1152.886,169.2-1153.4,169.2-1153.9,169.2Zm-1.05-3.155v2.088h2.084v-2.088Z" transform="translate(1172.896 -145.678)"/>
    </g>
  </g>
</svg>
