<svg id="Сгруппировать_14340" data-name="Сгруппировать 14340" xmlns="http://www.w3.org/2000/svg" width="17.494" height="16.356" viewBox="0 0 17.494 16.356">
  <path id="Контур_14368" data-name="Контур 14368" d="M-957,206.352h17.493v9.776a1.776,1.776,0,0,1-1.511,1.788,2.819,2.819,0,0,1-.466.037c-4.64,0-9.28-.008-13.919.008a1.509,1.509,0,0,1-1.6-1.6q0-4.14,0-8.279Zm14,8.04v-.651c0-.006,0-.012,0-.018a.416.416,0,0,0-.44-.443q-.669-.01-1.338,0a.4.4,0,0,0-.443.436q-.014.669,0,1.338a.416.416,0,0,0,.459.444q.66,0,1.32,0a.4.4,0,0,0,.441-.436C-943,214.838-943,214.615-943,214.392Zm-1.118-3.8c.223,0,.446,0,.669,0a.4.4,0,0,0,.449-.461q0-.642,0-1.284a.434.434,0,0,0-.47-.473q-.642,0-1.284,0a.414.414,0,0,0-.466.434q-.016.678,0,1.356a.4.4,0,0,0,.451.428C-944.555,210.6-944.338,210.591-944.121,210.591Zm-4.349,0c.223,0,.446.005.669,0,.3-.009.429-.134.433-.433q.01-.669,0-1.338a.414.414,0,0,0-.453-.447q-.651,0-1.3,0a.428.428,0,0,0-.461.461q0,.651,0,1.3a.416.416,0,0,0,.446.454C-948.916,210.6-948.693,210.59-948.47,210.59Zm1.1,3.809h0v-.651c0-.012,0-.024,0-.036a.4.4,0,0,0-.427-.432q-.678-.01-1.356,0a.411.411,0,0,0-.436.445q-.005.66,0,1.32a.426.426,0,0,0,.454.451q.669.006,1.338,0a.381.381,0,0,0,.423-.409C-947.362,214.858-947.368,214.628-947.368,214.4Zm-5.417-3.81h0c.217,0,.433.006.65,0a.445.445,0,0,0,.466-.466q.013-.658,0-1.317a.411.411,0,0,0-.448-.432q-.659,0-1.318,0a.426.426,0,0,0-.451.452q-.006.659,0,1.317a.413.413,0,0,0,.435.446C-953.23,210.6-953.008,210.59-952.785,210.59Zm.018,2.688h-.686a.418.418,0,0,0-.435.447q-.006.659,0,1.317a.427.427,0,0,0,.451.453q.641.006,1.281,0a.46.46,0,0,0,.486-.471c.009-.439.008-.878,0-1.317a.4.4,0,0,0-.447-.429C-952.334,213.274-952.551,213.278-952.767,213.277Z" transform="translate(956.999 -201.606)" />
  <path id="Контур_14369" data-name="Контур 14369" d="M-943.09,107.964c.679,0,1.339-.047,1.989.013a1.775,1.775,0,0,1,1.486,1.343.338.338,0,0,1,.016.07c0,.71,0,1.419,0,2.138h-17.425c0-.535,0-1.064,0-1.592a5.259,5.259,0,0,1,.039-.755,1.433,1.433,0,0,1,1.475-1.255c.505.018,1.012,0,1.544,0,0,.071,0,.134,0,.2,0,.494,0,.988.006,1.482a.52.52,0,0,0,.449.49.533.533,0,0,0,.584-.35.881.881,0,0,0,.03-.266c0-.511,0-1.022,0-1.543h8.733c0,.313,0,.619,0,.925,0,.241,0,.482,0,.723a.523.523,0,0,0,.538.514.517.517,0,0,0,.525-.507c.009-.482,0-.964,0-1.446Z" transform="translate(957.025 -107.924)" />
</svg>
