<svg xmlns="http://www.w3.org/2000/svg" width="26.391" height="27" viewBox="0 0 26.391 27">
  <g id="Сгруппировать_14337" data-name="Сгруппировать 14337" transform="translate(1486.224 -438.851)">
    <g id="Сгруппировать_14336" data-name="Сгруппировать 14336" transform="translate(-1486.224 438.851)">
      <path id="Контур_14360" data-name="Контур 14360" d="M-1462.015,465.851H-1484.1a.822.822,0,0,0-.153-.075,2.7,2.7,0,0,1-1.967-2.706q.038-9.922,0-19.844a2.645,2.645,0,0,1,2.7-2.68c.437.01.874,0,1.33,0,0-.294-.007-.564,0-.834a.81.81,0,0,1,.833-.855.812.812,0,0,1,.785.874c0,.268,0,.537,0,.8h1.54c0-.274-.015-.537.006-.8a1.293,1.293,0,0,1,.13-.5.787.787,0,0,1,.859-.367.828.828,0,0,1,.623.786c.011.294,0,.589,0,.872h8.786c0-.317-.022-.617,0-.913a.783.783,0,0,1,.865-.757.8.8,0,0,1,.734.841c0,.278,0,.556,0,.828h1.547c0-.3-.014-.581,0-.861a.8.8,0,0,1,.85-.809.81.81,0,0,1,.763.868c0,.269,0,.538,0,.822.527,0,1.028-.018,1.526,0a2.531,2.531,0,0,1,1.878.915,2.708,2.708,0,0,1,.625,1.846q-.01,4.77,0,9.54,0,5.126,0,10.251a2.548,2.548,0,0,1-1.082,2.244A6.561,6.561,0,0,1-1462.015,465.851ZM-1484.6,447.2a.52.52,0,0,0-.016.079q0,7.947,0,15.893a.957.957,0,0,0,.644,1.008,1.788,1.788,0,0,0,.543.071q10.4.005,20.8,0c.823,0,1.195-.37,1.195-1.185q0-7.8,0-15.6V447.2Zm.011-1.634h23.147c0-.83.019-1.646-.007-2.461a.937.937,0,0,0-.973-.935c-.472-.012-.945,0-1.407,0-.016.021-.025.028-.026.035a7.808,7.808,0,0,1-.019.813,1.238,1.238,0,0,1-.182.531.75.75,0,0,1-.867.266.822.822,0,0,1-.56-.808c-.01-.277,0-.554,0-.826h-1.545a7.775,7.775,0,0,1-.008.851,1.175,1.175,0,0,1-.188.527.735.735,0,0,1-.87.251.805.805,0,0,1-.544-.791c-.011-.278,0-.556,0-.836h-8.776c0,.269,0,.522,0,.775a.837.837,0,0,1-.795.9.836.836,0,0,1-.826-.9c0-.26,0-.521,0-.782h-1.54a7.069,7.069,0,0,1-.008.822,1.279,1.279,0,0,1-.191.555.745.745,0,0,1-.87.256.824.824,0,0,1-.549-.789c-.01-.278,0-.557,0-.843-.55,0-1.076-.019-1.6.006a.851.851,0,0,0-.781.766C-1484.606,443.815-1484.585,444.682-1484.585,445.564Z" transform="translate(1486.224 -438.851)"/>
      <path id="Контур_14364" data-name="Контур 14364" d="M-1343.323,645.167a6.338,6.338,0,0,1-6.347,6.32,6.35,6.35,0,0,1-6.31-6.362,6.337,6.337,0,0,1,6.34-6.3A6.323,6.323,0,0,1-1343.323,645.167Zm-6.33,4.706a4.739,4.739,0,0,0,4.737-4.726,4.765,4.765,0,0,0-4.727-4.724,4.739,4.739,0,0,0-4.724,4.738A4.715,4.715,0,0,0-1349.653,649.872Z" transform="translate(1362.845 -628.284)" />
      <path id="Контур_14366" data-name="Контур 14366" d="M-1290.865,719.189c.744-.744,1.465-1.474,2.2-2.19a1.2,1.2,0,0,1,.479-.3.768.768,0,0,1,.875.376.773.773,0,0,1-.12.945q-1.424,1.442-2.865,2.867a.762.762,0,0,1-1.109,0q-.826-.792-1.62-1.618a.8.8,0,0,1,.006-1.136.788.788,0,0,1,1.133.012C-1291.54,718.483-1291.211,718.837-1290.865,719.189Z" transform="translate(1303.433 -702.026)" />
    </g>
  </g>
</svg>
