<svg xmlns="http://www.w3.org/2000/svg" width="32.026" height="29.45" viewBox="0 0 32.026 29.45">
  <g id="Сгруппировать_14329" data-name="Сгруппировать 14329" transform="translate(0.15 0.15)">
    <g id="Сгруппировать_14328" data-name="Сгруппировать 14328" transform="translate(0 0)">
      <path id="Контур_14333" data-name="Контур 14333" d="M-825-6.38c.228-.815.462-1.629.682-2.446q.972-3.612,1.936-7.227c.142-.53.582-.766,1-.545a.678.678,0,0,1,.31.848q-.954,3.57-1.91,7.14-.3,1.131-.6,2.262a1.326,1.326,0,0,0,1.015,1.768q4.551,1.214,9.1,2.43,5.56,1.488,11.118,2.98a1.3,1.3,0,0,0,1.707-.974c.334-1.228.661-2.457,1-3.685a.7.7,0,0,1,.684-.561.665.665,0,0,1,.635.573,1.1,1.1,0,0,1-.044.424q-.484,1.815-.98,3.627a2.652,2.652,0,0,1-3.312,1.905q-10.147-2.713-20.292-5.431a2.688,2.688,0,0,1-1.973-1.942,1.2,1.2,0,0,0-.07-.153Z" transform="translate(825 26.863)" fill="#02a3d3" stroke="#02a3d3" stroke-width="0.3"/>
      <path id="Контур_14334" data-name="Контур 14334" d="M-747.993-139.919q5.189,0,10.377,0a2.708,2.708,0,0,1,2.374,1.139,2.491,2.491,0,0,1,.477,1.473q0,7.977,0,15.954a2.619,2.619,0,0,1-2.6,2.6q-10.61,0-21.22,0a2.646,2.646,0,0,1-2.627-2.613c-.012-.63,0-1.26,0-1.89q0-6.954,0-13.909a2.64,2.64,0,0,1,2.08-2.673,3.646,3.646,0,0,1,.829-.073Q-753.151-139.923-747.993-139.919Zm-2.033,14.216c.082-.088.148-.152.206-.222q2.4-2.878,4.792-5.758a2,2,0,0,1,3.3-.073q2.711,3.141,5.4,6.3c.056.065.117.126.221.236v-5.448c0-2.158,0-4.317,0-6.475a1.322,1.322,0,0,0-1.384-1.44q-10.5,0-21,0a1.308,1.308,0,0,0-1.376,1.381q0,7.28,0,14.56c0,.074.013.148.022.242.042-.037.058-.05.073-.064q2.5-2.5,5-4.992a2.023,2.023,0,0,1,3,0C-751.2-126.886-750.627-126.306-750.026-125.7Zm-9.617,5.027a1.386,1.386,0,0,0,1.289.588q6.939-.007,13.877,0,3.454,0,6.908,0a1.319,1.319,0,0,0,1.468-1.471c0-.444.014-.889-.007-1.332a.777.777,0,0,0-.165-.438q-3.233-3.793-6.481-7.574a.681.681,0,0,0-1.188.019q-2.706,3.245-5.414,6.49a.692.692,0,0,1-1.195.054q-1.063-1.061-2.125-2.125a.717.717,0,0,0-1.189,0l-5.563,5.564C-759.5-120.834-759.565-120.759-759.643-120.677Z" transform="translate(766.492 139.922)" fill="#02a3d3" stroke="#02a3d3" stroke-width="0.3"/>
      <path id="Контур_14337" data-name="Контур 14337" d="M-710.521-86.541a2.659,2.659,0,0,1-2.646-2.657,2.671,2.671,0,0,1,2.67-2.638,2.667,2.667,0,0,1,2.645,2.662A2.659,2.659,0,0,1-710.521-86.541Zm-1.295-2.647a1.293,1.293,0,0,0,1.313,1.31,1.294,1.294,0,0,0,1.3-1.322,1.32,1.32,0,0,0-1.3-1.305A1.321,1.321,0,0,0-711.816-89.187Z" transform="translate(722.407 95.808)" fill="#02a3d3" stroke="#02a3d3" stroke-width="0.3"/>
    </g>
  </g>
</svg>
