<svg id="Сгруппировать_14327" data-name="Сгруппировать 14327" xmlns="http://www.w3.org/2000/svg" width="29.673" height="22.603" viewBox="0 0 29.673 22.603">
  <g id="Сгруппировать_14326" data-name="Сгруппировать 14326" transform="translate(0 0)">
    <path id="Контур_14328" data-name="Контур 14328" d="M-825,363.646c.057-.176.119-.351.171-.529a4.334,4.334,0,0,1,4.15-3.122q10.515,0,21.031,0a4.329,4.329,0,0,1,4.32,4.319q0,6.981,0,13.963a4.33,4.33,0,0,1-4.319,4.32q-10.472,0-20.944,0a4.329,4.329,0,0,1-4.309-3.4,1.9,1.9,0,0,0-.1-.25Zm14.833-1.912q-5.157,0-10.315,0a2.632,2.632,0,0,0-2.779,2.77q0,6.795,0,13.589a2.631,2.631,0,0,0,2.755,2.765q10.344,0,20.688,0a2.627,2.627,0,0,0,2.75-2.741q0-6.824,0-13.647a3.094,3.094,0,0,0-.087-.743,2.6,2.6,0,0,0-2.637-1.992Q-804.98,361.731-810.167,361.734Z" transform="translate(825 -359.995)" fill="#02a3d3"/>
    <path id="Контур_14330" data-name="Контур 14330" d="M-678.04,443.876c0-1.429,0-2.857,0-4.286a.862.862,0,0,1,.438-.819.868.868,0,0,1,.954.046q3.414,2.134,6.828,4.267a.875.875,0,0,1,.006,1.573q-3.41,2.14-6.827,4.268a.872.872,0,0,1-.954.053.878.878,0,0,1-.445-.845C-678.035,446.714-678.04,445.295-678.04,443.876Zm6.171,0-4.418-2.76v5.521Z" transform="translate(689.399 -432.571)" fill="#02a3d3"/>
  </g>
</svg>
