<svg width="24" height="24" viewBox="0 0 24 24" fill="none" xmlns="http://www.w3.org/2000/svg">
<path d="M4.88867 7.55469L4.88867 19.9991" stroke="currentColor" stroke-width="2" stroke-linecap="round" stroke-linejoin="round"/>
<path d="M11.7843 4.80769C8.84632 3.31109 6.53423 4.18795 5.38135 5.08373C5.17354 5.2452 5.06964 5.32593 4.97915 5.51082C4.88867 5.69571 4.88867 5.86789 4.88867 6.21226V14.4284C5.75062 13.4526 8.33648 11.9403 11.7843 13.6966C14.8655 15.2662 17.4878 14.6155 18.7284 13.9374C18.9005 13.8433 18.9866 13.7962 19.0487 13.6914C19.1109 13.5866 19.1109 13.4728 19.1109 13.2452V6.55457C19.1109 5.81812 19.1109 5.44989 18.9355 5.31649C18.7601 5.1831 18.3497 5.29689 17.5289 5.52448C16.1242 5.91395 14.0819 5.97806 11.7843 4.80769Z" stroke="currentColor" stroke-width="2" stroke-linecap="round" stroke-linejoin="round"/>
</svg>
