<svg xmlns="http://www.w3.org/2000/svg" width="30.831" height="23.334" viewBox="0 0 30.831 23.334">
  <g id="Сгруппировать_92" data-name="Сгруппировать 92" transform="translate(-204.083 -956.333)">
    <path id="Контур_472" data-name="Контур 472" d="M63.083,959.833c0-1.933,2.071-3.5,4.625-3.5H78.5c2.554,0,4.625,1.567,4.625,3.5v2.917a1.6,1.6,0,0,1-3.084,0v-2.917a1.394,1.394,0,0,0-1.542-1.167H67.708a1.4,1.4,0,0,0-1.542,1.167v16.334a1.394,1.394,0,0,0,1.542,1.166H78.5a1.394,1.394,0,0,0,1.542-1.166V973.25a1.6,1.6,0,0,1,3.084,0v2.917c0,1.933-2.071,3.5-4.625,3.5H67.708c-2.554,0-4.625-1.567-4.625-3.5Z" transform="translate(141)"/>
    <path id="Контур_473" data-name="Контур 473" d="M84.664,971.5a1.181,1.181,0,0,0,.852,1.043,1.962,1.962,0,0,0,1.615-.11l6.167-3.5a1.015,1.015,0,0,0,0-1.867l-6.167-3.5a1.966,1.966,0,0,0-1.615-.11,1.183,1.183,0,0,0-.852,1.044v2.333H76.956a1.212,1.212,0,1,0,0,2.333h7.708Z" transform="translate(141)"/>
  </g>
</svg>
