<svg xmlns="http://www.w3.org/2000/svg" width="46.416" height="42.811" viewBox="0 0 46.416 42.811">
  <g id="Сгруппировать_14310" data-name="Сгруппировать 14310" transform="translate(-0.465 -9.272)">
    <g id="Сгруппировать_14309" data-name="Сгруппировать 14309" transform="translate(0.465 9.272)">
      <path id="Контур_14308" data-name="Контур 14308" d="M-774.087,636.567a1.439,1.439,0,0,1-1.313.554q-22.006-.02-44.011-.011c-.689,0-1.073-.308-1.091-.869a.881.881,0,0,1,.879-.942c.256-.01.514,0,.771,0h.8v-.517q0-5.983,0-11.966c0-.834.31-1.157,1.137-1.159q3.037-.008,6.074,0c.839,0,1.135.31,1.135,1.157,0,4.139,0,8.278,0,12.452h2.712V634.8q0-10.108,0-20.215c0-.851.288-1.144,1.133-1.145q3.06,0,6.119,0c.789,0,1.089.3,1.09,1.1q0,3.309,0,6.618a.864.864,0,0,1-.7.922.867.867,0,0,1-.994-.435,1.469,1.469,0,0,1-.115-.609c-.008-1.9,0-3.806,0-5.741h-4.681v19.973h4.661c.006-.114.02-.244.02-.373,0-1.8.02-13.246-.011-15.043a.966.966,0,0,1,.922-1.062.962.962,0,0,1,.916,1.066c-.031,1.915-.011,13.481-.011,15.419h2.715v-.5q0-5.983,0-11.966c0-.843.3-1.156,1.133-1.158q3.037-.008,6.074,0c.833,0,1.136.319,1.136,1.157,0,4.14,0,8.279,0,12.452h2.712v-.46q0-10.062,0-20.125c0-.984.248-1.236,1.221-1.236q3.014,0,6.028,0c.781,0,1.1.318,1.1,1.1q0,10.108,0,20.215v.542c.392,0,.767.03,1.135-.007a1.319,1.319,0,0,1,1.313.551Zm-8.95-21.291v19.992h4.655V615.276Zm-28.512,20.008V623.531h-4.661v11.752Zm17.451-11.764v11.755h4.656V623.519Z" transform="translate(820.503 -594.311)" fill="#fff"/>
      <path id="Контур_14309" data-name="Контур 14309" d="M-793.863,466.822l5.279-5.293a4.124,4.124,0,0,1-.467-3.277,4.091,4.091,0,0,1,1.622-2.324,4.168,4.168,0,0,1,5.213.311,4.176,4.176,0,0,1,.754,5.3l5.306,5.286a4.207,4.207,0,0,1,4.411.011l5.28-5.289a4.163,4.163,0,0,1-.423-3.468,4.026,4.026,0,0,1,1.756-2.275,4.164,4.164,0,0,1,5.342.752,4.159,4.159,0,0,1,.141,5.393,4.157,4.157,0,0,1-5.422.959l-5.314,5.312a4.1,4.1,0,0,1,.479,3.188,4.106,4.106,0,0,1-1.546,2.325,4.18,4.18,0,0,1-5.186-.133,4.2,4.2,0,0,1-.9-5.408l-5.293-5.294a4.116,4.116,0,0,1-4.365.006l-5.308,5.3a4.117,4.117,0,0,1,.469,3.251,4.06,4.06,0,0,1-1.647,2.36,4.189,4.189,0,0,1-5.375-.5,4.189,4.189,0,0,1-.424-5.348A4.215,4.215,0,0,1-793.863,466.822Zm11.2-7.5a2.392,2.392,0,0,0-2.35-2.336,2.393,2.393,0,0,0-2.359,2.373,2.394,2.394,0,0,0,2.35,2.337A2.4,2.4,0,0,0-782.662,459.32Zm17.406.015a2.382,2.382,0,0,0,2.357,2.358,2.4,2.4,0,0,0,2.346-2.375,2.394,2.394,0,0,0-2.34-2.335A2.381,2.381,0,0,0-765.256,459.336Zm-8.714,13.415a2.4,2.4,0,0,0,2.363-2.358,2.391,2.391,0,0,0-2.325-2.35,2.388,2.388,0,0,0-2.384,2.334A2.392,2.392,0,0,0-773.97,472.751Zm-22.109-4.708a2.384,2.384,0,0,0-2.347,2.336,2.4,2.4,0,0,0,2.362,2.37,2.383,2.383,0,0,0,2.342-2.341A2.376,2.376,0,0,0-796.079,468.042Z" transform="translate(802.697 -455.158)" fill="#fff"/>
    </g>
  </g>
</svg>
