<svg xmlns="http://www.w3.org/2000/svg" width="56.378" height="60.45" viewBox="0 0 56.378 60.45">
  <g id="maths_12546189" transform="translate(-0.192 510.414)">
    <path id="Контур_21588" data-name="Контур 21588" d="M143.484-504.712A18.587,18.587,0,0,0,139.3-504a8.759,8.759,0,0,0-5.191,5.731c-.815,3.174-.8,10.9.011,13.919a8.68,8.68,0,0,0,5.345,5.753,17.512,17.512,0,0,0,2.127.463,29.476,29.476,0,0,0,5.356.231c4.133.011,5.731-.132,7.307-.606a8.654,8.654,0,0,0,5.642-5.885,29.131,29.131,0,0,0,.6-6.833c0-6.381-.65-8.761-2.987-10.976-1.807-1.7-3.306-2.226-7.2-2.524A61.206,61.206,0,0,0,143.484-504.712Zm8.243,4.342a4.5,4.5,0,0,1,3,1.289c1.069,1.069,1.3,1.929,1.554,5.686a28.715,28.715,0,0,1,0,4.133c-.231,3.736-.463,4.607-1.532,5.676-1.267,1.267-2.435,1.5-7.692,1.5-5.3.011-6.535-.231-7.8-1.5-1.058-1.058-1.3-1.929-1.532-5.621a29.524,29.524,0,0,1,0-4.188c.231-3.7.5-4.662,1.576-5.719.937-.915,1.653-1.146,4.452-1.422A60.277,60.277,0,0,1,151.728-500.37Z" transform="translate(-423.004 -247.855) rotate(45)" fill="#fa7624"/>
    <path id="Контур_21589" data-name="Контур 21589" d="M221.343-439.643a18.6,18.6,0,0,0-2.755,1.609,1.277,1.277,0,0,0-.232,1.41c.386.8,1.19.948,2.182.386a5.761,5.761,0,0,1,.683-.342c.044,0,.077,1.741.077,3.868,0,3.692.011,3.89.22,4.232a1.479,1.479,0,0,0,2.5-.022c.187-.276.2-.705.2-5.268,0-4.617-.011-4.981-.2-5.257a2.072,2.072,0,0,0-.5-.485A3.735,3.735,0,0,0,221.343-439.643Z" transform="translate(-194.018 -57.895)" fill="#fa7624"/>
    <path id="Контур_21590" data-name="Контур 21590" d="M278.223-252.288c-5.036.187-6.9.827-9,3.064a8.374,8.374,0,0,0-2.017,3.7c-.794,3.868-.683,11.3.22,14.128a7.972,7.972,0,0,0,2.094,3.284c1.862,1.829,3.427,2.391,7.461,2.689,3.923.287,8.739-.011,10.7-.661a8.022,8.022,0,0,0,3.218-2.127,6.954,6.954,0,0,0,1.51-1.995,10.545,10.545,0,0,0,.683-1.708c.87-3.593.76-11.693-.2-14.459a8.826,8.826,0,0,0-4.981-5.113,21.043,21.043,0,0,0-5.334-.771c-.937-.022-1.884-.066-2.094-.077S279.259-252.332,278.223-252.288Zm4.188,4.221a14.309,14.309,0,0,1,4.32.628,4.885,4.885,0,0,1,2.006,2.006c1.014,2.1,1.014,11.175,0,13.268a5.046,5.046,0,0,1-1.995,1.94c-2.061.97-11.274.948-13.2-.033a5.223,5.223,0,0,1-1.929-1.929c-1.014-2.05-1-11.307.011-13.3a4.8,4.8,0,0,1,.816-1.08,4.248,4.248,0,0,1,2.843-1.278,42.807,42.807,0,0,1,5.147-.3C280.615-248.133,281.507-248.089,282.411-248.067Z" transform="translate(-237.111 -224.653)" fill="#fa7624"/>
    <path id="Контур_21591" data-name="Контур 21591" d="M351.912-186.429a5.223,5.223,0,0,0-2.458,1.014c-1.014.76-1.278,1.543-.761,2.3a1.337,1.337,0,0,0,1.268.65c.418,0,.54-.066,1.047-.54a2.1,2.1,0,0,1,1.8-.783,1.632,1.632,0,0,1,1.411.573,1.374,1.374,0,0,1,.055,1.212,1.644,1.644,0,0,1-1.267.529,1.219,1.219,0,0,0-1.367,1.168c0,.628.529,1.036,1.344,1.036a1.894,1.894,0,0,1,1.565.76,1.16,1.16,0,0,1,.022,1.168c-.22.529-.716.749-1.664.749a1.841,1.841,0,0,1-1.73-.705,8.682,8.682,0,0,0-.65-.772.958.958,0,0,0-.926-.43,1.542,1.542,0,0,0-1.6,1.422,4.215,4.215,0,0,0,2.05,2.524,6.636,6.636,0,0,0,6.017-.2,3.463,3.463,0,0,0,1.378-4.1A4.177,4.177,0,0,0,356-180.423c-.188-.11-.155-.143.242-.419,1.609-1.058,1.4-3.626-.386-4.816A6.242,6.242,0,0,0,351.912-186.429Z" transform="translate(-309.478 -283.249)" fill="#fa7624"/>
    <path id="Контур_21592" data-name="Контур 21592" d="M10.42-251.586c-.209.022-.882.1-1.488.165A9.532,9.532,0,0,0,5.3-250.5a8.488,8.488,0,0,0-4.342,4.871c-1.08,3.229-.992,12.552.143,15.341A9.047,9.047,0,0,0,6.012-225.5c2.127.8,8.618,1.091,12.674.573a8.682,8.682,0,0,0,3.174-.783,8.624,8.624,0,0,0,4.6-5.036c1.047-3.284.97-12.5-.121-15.219a9.084,9.084,0,0,0-2.149-3.1c-2.16-2.017-3.967-2.48-9.963-2.535C12.348-251.619,10.629-251.608,10.42-251.586Zm7.251,4.287c1.885.209,2.325.331,3.086.827a4.225,4.225,0,0,1,1.554,1.73c.915,1.818.937,11.021.022,13.081a4.932,4.932,0,0,1-2.083,2.083c-1.752.782-8.3.981-11.957.353A4.068,4.068,0,0,1,5.9-230.482c-.948-.948-1.2-1.841-1.444-5.08-.242-3.317.066-7.891.617-9.114a4.666,4.666,0,0,1,1.918-2.006,10.179,10.179,0,0,1,3.482-.705A65.437,65.437,0,0,1,17.671-247.3Z" transform="translate(0 -225.3)" fill="#fa7624"/>
    <path id="Контур_21593" data-name="Контур 21593" d="M80.667-184.735a4.677,4.677,0,0,0-2.909,2.094c-.441.76-.43,1.267.044,1.774a1.113,1.113,0,0,0,.915.452,1.445,1.445,0,0,0,1.521-.716,2.026,2.026,0,0,1,1.995-1.124c1.091,0,1.6.375,1.6,1.19,0,.727-.518,1.168-2.1,1.84-3.2,1.333-4.056,2.094-4.408,3.824a2.194,2.194,0,0,0,1.014,2.579,41.831,41.831,0,0,0,7.7-.011,1.352,1.352,0,0,0,0-2.314,9.135,9.135,0,0,0-2.865-.165c-2.182,0-2.535-.022-2.535-.165,0-.386.606-.76,2.513-1.554a7.282,7.282,0,0,0,2.832-1.73,3.141,3.141,0,0,0,.827-2.325,3.836,3.836,0,0,0-3.163-3.648A7.316,7.316,0,0,0,80.667-184.735Z" transform="translate(-68.561 -284.668)" fill="#fa7624"/>
  </g>
</svg>
