<svg
xmlns="http://www.w3.org/2000/svg" class="w-[20px] h-[20px]" width="20.4" height="20.395" viewBox="0 0 20.4 20.395">
  <g id="Сгруппировать_38" data-name="Сгруппировать 38" transform="translate(1566.194 -1038.546)">
    <g id="Сгруппировать_37" data-name="Сгруппировать 37" transform="translate(-1566.194 1038.546)">
      <path id="Контур_192" data-name="Контур 192" d="M-1556.942,1058.94v-.26q0-2.513,0-5.025a.984.984,0,0,0-1.117-1.12h-2.557a.966.966,0,0,0-1.074,1.069q0,2.546,0,5.091v.244h-.18c-.86,0-1.719,0-2.579,0a1.644,1.644,0,0,1-1.743-1.738q0-8.46,0-16.92a1.639,1.639,0,0,1,1.724-1.734q5.147,0,10.294,0a1.651,1.651,0,0,1,1.735,1.749q0,8.916,0,17.831a.717.717,0,0,1-.8.811C-1554.464,1058.942-1555.687,1058.94-1556.942,1058.94Zm-5.923-17.306v1.4h1.4v-1.4Zm2.845,0v1.4h1.4v-1.4Zm2.842,0v1.4h1.408v-1.4Zm-4.29,4.727v-1.4h-1.4v1.4Zm2.846,0v-1.4h-1.4v1.4Zm2.846,0v-1.4h-1.4v1.4Zm-7.094,1.909v1.4h1.4v-1.4Zm4.247,1.4v-1.4h-1.4v1.4Zm1.444,0h1.4v-1.4h-1.4Z" transform="translate(1566.194 -1038.546)"/>
      <path id="Контур_193" data-name="Контур 193" d="M-1319.569,1134.628c.03-.015.036-.021.042-.021,1.4,0,2.8-.023,4.2.011a1.6,1.6,0,0,1,1.443,1.478c.006.1.008.193.008.289,0,3.713-.009,7.425.006,11.138a1.7,1.7,0,0,1-1.316,1.739,1.978,1.978,0,0,1-.375.035q-2.012,0-4.024,0a.378.378,0,0,1-.061,0c.026-.386.073-.765.073-1.144q.008-6.636,0-13.273Zm3.315,4.7v-1.405h-1.4v1.405Zm-.005,3.324v-1.4h-1.392v1.4Zm-1.4,1.917v1.405h1.4v-1.405Z" transform="translate(1334.27 -1128.903)"/>
    </g>
  </g>
</svg>
