<svg width="20" height="20" viewBox="0 0 20 20" fill="none" xmlns="http://www.w3.org/2000/svg">
    <g clip-path="url(#clip0_3112_7432)">
        <path
            d="M10.792 18.3327C12.9959 18.3327 14.0978 18.3327 14.889 17.7024C15.6801 17.0722 15.9325 15.9933 16.4373 13.8354L18.035 7.00517C18.3145 5.81072 18.4542 5.21349 18.2005 4.78095C17.7398 3.99544 16.5658 4.16604 15.7995 4.16604"
            stroke="currentColor" stroke-width="1.5" stroke-linecap="round" stroke-linejoin="round" />
        <path
            d="M1.66699 7.49935C1.66699 4.74949 1.66699 3.37456 2.52126 2.52029C3.37554 1.66602 4.75047 1.66602 7.50033 1.66602L10.0003 1.66602C12.7502 1.66602 14.1251 1.66602 14.9794 2.52029C15.8337 3.37456 15.8337 4.74949 15.8337 7.49935V12.4993C15.8337 15.2492 15.8337 16.6241 14.9794 17.4784C14.1251 18.3327 12.7502 18.3327 10.0003 18.3327L7.50032 18.3327C4.75047 18.3327 3.37554 18.3327 2.52126 17.4784C1.66699 16.6241 1.66699 15.2492 1.66699 12.4993L1.66699 7.49935Z"
            stroke="currentColor" stroke-width="1.5" />
        <path
            d="M8.75033 5C10.5913 5 12.0837 6.49238 12.0837 8.33333C12.0837 10.1743 10.5913 11.6667 8.75033 11.6667M8.75033 5C6.90938 5 5.41699 6.49238 5.41699 8.33333C5.41699 10.1743 6.90938 11.6667 8.75033 11.6667M8.75033 5C8.05997 5 7.50033 6.49238 7.50033 8.33333C7.50033 10.1743 8.05997 11.6667 8.75033 11.6667M8.75033 5C9.44068 5 10.0003 6.49238 10.0003 8.33333C10.0003 10.1743 9.44068 11.6667 8.75033 11.6667"
            stroke="currentColor" stroke-width="1.5" />
        <path d="M5.83398 14.166L11.6673 14.166" stroke="currentColor" stroke-width="1.5"
            stroke-linecap="round" />
    </g>
    <defs>
        <clipPath id="clip0_3112_7432">
            <rect width="20" height="20" fill="white" />
        </clipPath>
    </defs>
</svg>
