<svg xmlns="http://www.w3.org/2000/svg" width="29.667" height="23.021" viewBox="0 0 29.667 23.021">
  <path id="Контур_461" data-name="Контур 461" d="M70.865,463.483H55.908a7.21,7.21,0,0,0-5.024,2.022,6.8,6.8,0,0,0-2.081,4.88V479.1a6.8,6.8,0,0,0,2.081,4.88A7.213,7.213,0,0,0,55.908,486H70.865a7.213,7.213,0,0,0,5.024-2.021,6.8,6.8,0,0,0,2.081-4.88v-8.718a6.8,6.8,0,0,0-2.081-4.88,7.209,7.209,0,0,0-5.024-2.022Zm-19.818,9.444h4.861a1.88,1.88,0,0,1,1.619.908,1.772,1.772,0,0,1,0,1.816,1.879,1.879,0,0,1-1.619.909H51.047ZM75.726,479.1a4.668,4.668,0,0,1-1.428,3.335,4.944,4.944,0,0,1-3.433,1.387H55.907a4.945,4.945,0,0,1-3.433-1.387,4.668,4.668,0,0,1-1.428-3.335v-.363h4.861a4.135,4.135,0,0,0,3.562-2,3.9,3.9,0,0,0,0-3.995,4.135,4.135,0,0,0-3.562-2H51.046v-.364a4.667,4.667,0,0,1,1.428-3.334,4.95,4.95,0,0,1,3.433-1.388H70.865A4.95,4.95,0,0,1,74.3,467.05a4.667,4.667,0,0,1,1.428,3.334Z" transform="translate(-48.553 -463.233)"  stroke="currentColor" stroke-width="0.5"/>
</svg>
