<svg xmlns="http://www.w3.org/2000/svg" width="28.279" height="20.395" viewBox="0 0 28.279 20.395">
  <g id="Сгруппировать_46" data-name="Сгруппировать 46" transform="translate(505.631 513.184)">
    <g id="Сгруппировать_45" data-name="Сгруппировать 45" transform="translate(-505.631 -513.184)">
      <path id="Контур_226" data-name="Контур 226" d="M-418.285-375.366h-6.385c-.821,0-1.181-.364-1.19-1.179a10.543,10.543,0,0,1,.416-3.591,7.587,7.587,0,0,1,7.7-5.072,7.515,7.515,0,0,1,6.962,6.6,15.648,15.648,0,0,1,.064,2.279.97.97,0,0,1-1.089.961Q-415.046-375.363-418.285-375.366Z" transform="translate(432.426 395.761)"/>
      <path id="Контур_227" data-name="Контур 227" d="M-388.809-513.184a4.933,4.933,0,0,1,4.934,4.941,4.956,4.956,0,0,1-4.955,4.931,4.956,4.956,0,0,1-4.918-4.937A4.934,4.934,0,0,1-388.809-513.184Z" transform="translate(402.954 513.184)"/>
      <path id="Контур_228" data-name="Контур 228" d="M-270.776-449.96a3.683,3.683,0,0,1-3.674-3.658,3.7,3.7,0,0,1,3.681-3.691,3.686,3.686,0,0,1,3.666,3.7A3.665,3.665,0,0,1-270.776-449.96Z" transform="translate(293.471 461.906)"/>
      <path id="Контур_229" data-name="Контур 229" d="M-478.7-449.961a3.666,3.666,0,0,1-3.653-3.7,3.689,3.689,0,0,1,3.687-3.647,3.7,3.7,0,0,1,3.661,3.711A3.681,3.681,0,0,1-478.7-449.961Z" transform="translate(484.269 461.907)"/>
      <path id="Контур_230" data-name="Контур 230" d="M-500.476-346.009c-1.19,0-2.454.027-3.716-.01a1.569,1.569,0,0,1-1.439-1.637,5.456,5.456,0,0,1,2.723-4.781,5.3,5.3,0,0,1,2.9-.794c.1,0,.2.011.32.019-.206.428-.419.822-.591,1.233a8.2,8.2,0,0,0-.7,4.2A11.384,11.384,0,0,0-500.476-346.009Z" transform="translate(505.631 366.392)"/>
      <path id="Контур_231" data-name="Контур 231" d="M-234.253-353.159a5.6,5.6,0,0,1,5.88,4.63,6.015,6.015,0,0,1,.067,1.074,1.571,1.571,0,0,1-1.489,1.494c-1.243.026-2.487.007-3.7.007a10.944,10.944,0,0,0,.492-1.4,7.218,7.218,0,0,0-.34-3.732,19.288,19.288,0,0,0-.759-1.777C-234.144-352.955-234.193-353.041-234.253-353.159Z" transform="translate(256.582 366.341)"/>
    </g>
  </g>
</svg>
