<svg xmlns="http://www.w3.org/2000/svg" viewBox="0 0 56.043 51.012">
  <g id="Сгруппировать_19044" data-name="Сгруппировать 19044" transform="translate(0.5 0.5)">
    <g id="Сгруппировать_18778" data-name="Сгруппировать 18778">
      <g id="Сгруппировать_18775" data-name="Сгруппировать 18775">
        <g id="Сгруппировать_18779" data-name="Сгруппировать 18779">
          <path id="Контур_21545" data-name="Контур 21545" d="M0,103.465A2.128,2.128,0,0,1,2.179,102.3c2.451.037,4.9.008,7.356.015a1.671,1.671,0,0,1,1.853,1.53,1.647,1.647,0,0,1-1.8,1.743c-1.485.014-2.971,0-4.457,0-.984,0-1.97-.035-2.953.01A2.083,2.083,0,0,1,0,104.432Z" transform="translate(0 -91.056)"  stroke="rgba(0,0,0,0)" stroke-width="1"/>
          <path id="Контур_21546" data-name="Контур 21546" d="M171,101.544l-5.034,5.045c.094.1.221.241.355.375q3.4,3.4,6.8,6.8a3.22,3.22,0,0,1,.65,4.1,4.061,4.061,0,0,1-.632.794q-5.48,5.495-10.974,10.976a3.23,3.23,0,0,1-5.02-4.06,7.88,7.88,0,0,1,.608-.679q4.117-4.124,8.242-8.24a4.479,4.479,0,0,1,.5-.372c-2.456-2.453-4.834-4.807-7.181-7.192a4.476,4.476,0,0,1-.981-1.44,3.161,3.161,0,0,1,.925-3.6q6.251-6.243,12.5-12.491.133-.133.273-.258a3.052,3.052,0,0,1,3.526-.569,3.093,3.093,0,0,1,1.9,3.03c0,1.916,0,3.831,0,5.747v.571h.616q4.431,0,8.862,0a3.3,3.3,0,0,1,3.148,1.745,3.2,3.2,0,0,1-2.427,4.68,9.6,9.6,0,0,1-1.122.07q-5.988.007-11.977,0a3.385,3.385,0,0,1-2.871-1.276,3.048,3.048,0,0,1-.669-1.827c-.014-.624,0-1.248,0-1.93" transform="translate(-135.43 -80.766)"  stroke="rgba(0,0,0,0)" stroke-width="1"/>
          <path id="Контур_21547" data-name="Контур 21547" d="M30.767,222.463c.534,2.355,2.433,3.592,3.892,5.222-.086.091-.164.178-.247.26q-7.952,7.954-15.9,15.906a3.245,3.245,0,0,1-4.174.7,3.211,3.211,0,0,1-.882-4.738,6.422,6.422,0,0,1,.461-.522q8.235-8.24,16.474-16.476c.1-.1.205-.19.38-.35" transform="translate(-11.048 -195.053)"  stroke="rgba(0,0,0,0)" stroke-width="1"/>
          <path id="Контур_21548" data-name="Контур 21548" d="M140.378,41.271c-2.056,1.062-3.291,2.941-5,4.386L133.052,44q-2.4,2.4-4.791,4.784c-.8.795-1.57,1.622-2.42,2.359a3.208,3.208,0,0,1-4.532-4.512c.147-.179.3-.352.467-.516q4.135-4.14,8.274-8.276a3.306,3.306,0,0,1,4.792-.418q2.532,1.754,5.067,3.5c.145.1.283.211.469.35" transform="translate(-104.329 -34.185)"  stroke="rgba(0,0,0,0)" stroke-width="1"/>
          <path id="Контур_21549" data-name="Контур 21549" d="M297.94,23.609a4.832,4.832,0,1,1-4.826-4.843,4.8,4.8,0,0,1,4.826,4.843" transform="translate(-249.485 -18.766)"  stroke="rgba(0,0,0,0)" stroke-width="1"/>
          <path id="Контур_21550" data-name="Контур 21550" d="M29.656,54.444c1.307,0,2.614-.018,3.92,0a1.639,1.639,0,1,1,.033,3.27c-2.649.009-5.3.017-7.948,0a1.635,1.635,0,1,1,.021-3.266c1.324-.023,2.649-.006,3.974-.006" transform="translate(-20.728 -49.637)"  stroke="rgba(0,0,0,0)" stroke-width="1"/>
          <path id="Контур_21551" data-name="Контур 21551" d="M29.577,153.538c-1.325,0-2.65.014-3.974-.005a1.644,1.644,0,0,1-1.662-1.186,1.529,1.529,0,0,1,.613-1.742,2.273,2.273,0,0,1,1.1-.331c2.613-.028,5.227-.024,7.84-.01a1.641,1.641,0,1,1,0,3.27c-1.307.017-2.614,0-3.92,0" transform="translate(-20.659 -132.56)"  stroke="rgba(0,0,0,0)" stroke-width="1"/>
        </g>
      </g>
    </g>
  </g>
</svg>
