<svg xmlns="http://www.w3.org/2000/svg" width="25.51" height="31.211" viewBox="0 0 25.51 31.211">
  <g id="Сгруппировать_14550" data-name="Сгруппировать 14550" transform="translate(444.009 -97.568)">
    <g id="Сгруппировать_14549" data-name="Сгруппировать 14549" transform="translate(-444.009 97.568)">
      <path id="Контур_16498" data-name="Контур 16498" d="M-438.438,100.419a8.2,8.2,0,0,1,.444-1.342,2.711,2.711,0,0,1,2.515-1.5c2.812-.016,5.623-.007,8.435,0a2.883,2.883,0,0,1,2.9,2.846c.46,0,.922,0,1.385,0a4.233,4.233,0,0,1,4.258,4.252q0,9.913,0,19.826a4.23,4.23,0,0,1-4.212,4.271q-8.535.025-17.069,0a4.234,4.234,0,0,1-4.226-4.29q0-9.9,0-19.792a4.232,4.232,0,0,1,4.276-4.267Zm.073,2.847c-.415,0-.8.027-1.188-.005a1.493,1.493,0,0,0-1.621,1.611q.037,9.714,0,19.428a1.545,1.545,0,0,0,1.643,1.638q8.252-.031,16.505,0a1.565,1.565,0,0,0,1.692-1.692c-.029-6.443-.014-12.885-.014-19.328,0-.122,0-.244,0-.365a1.365,1.365,0,0,0-1.192-1.271c-.527-.039-1.058-.008-1.589-.008a.621.621,0,0,0-.028.106,2.9,2.9,0,0,1-3.085,2.721c-2.678-.041-5.358,0-8.037-.017a3.547,3.547,0,0,1-1.107-.151A2.827,2.827,0,0,1-438.365,103.265Zm11.355-2.827h-8.474v2.79h8.474Z" transform="translate(444.009 -97.568)" fill="currentColor"/>
      <path id="Контур_16501" data-name="Контур 16501" d="M-359.755,262.834a3.263,3.263,0,0,1,.242-.313q2.156-2.162,4.318-4.319a1.435,1.435,0,0,1,2.073-.081,1.436,1.436,0,0,1-.065,2.1q-2.754,2.762-5.516,5.516a1.416,1.416,0,0,1-2.165,0q-1.354-1.346-2.7-2.7a1.424,1.424,0,0,1-.054-2.07,1.41,1.41,0,0,1,2.068.066C-360.971,261.6-360.4,262.188-359.755,262.834Z" transform="translate(371.123 -243.531)"/>
    </g>
  </g>
</svg>
