<svg xmlns="http://www.w3.org/2000/svg" width="28.707" height="29.667" viewBox="0 0 28.707 29.667">
  <g id="Сгруппировать_93" data-name="Сгруппировать 93" transform="translate(-192.295 -579.796)">
    <path id="Контур_462" data-name="Контур 462" d="M68,609.213H63.25a3.136,3.136,0,0,1-2.233-.94,3.237,3.237,0,0,1-.925-2.27.958.958,0,0,0-.122-.486.944.944,0,0,0-.35-.353.885.885,0,0,0-.945,0,3.09,3.09,0,0,1-2.406.33,3.223,3.223,0,0,1-1.918-1.5l-2.376-4.184a3.253,3.253,0,0,1-.315-2.431,3.2,3.2,0,0,1,1.466-1.948.93.93,0,0,0,.358-.351.955.955,0,0,0,.129-.488.941.941,0,0,0-.124-.479.923.923,0,0,0-.348-.346,3.22,3.22,0,0,1-1.476-1.952,3.27,3.27,0,0,1,.31-2.442l2.376-4.184a3.225,3.225,0,0,1,1.918-1.5,3.039,3.039,0,0,1,2.391.4.948.948,0,0,0,1.243-.186.982.982,0,0,0,.232-.639,3.236,3.236,0,0,1,.92-2.279,3.133,3.133,0,0,1,2.238-.945h4.752a3.132,3.132,0,0,1,2.233.94,3.236,3.236,0,0,1,.925,2.269.96.96,0,0,0,.122.486.939.939,0,0,0,.35.354.889.889,0,0,0,.944,0,3.08,3.08,0,0,1,2.405-.33,3.226,3.226,0,0,1,1.918,1.5l2.376,4.184h0a3.256,3.256,0,0,1,.315,2.431,3.2,3.2,0,0,1-1.467,1.948.937.937,0,0,0-.358.351.959.959,0,0,0-.129.489.94.94,0,0,0,.124.478.916.916,0,0,0,.348.346,3.219,3.219,0,0,1,1.476,1.953,3.27,3.27,0,0,1-.31,2.441l-2.376,4.184h0a3.23,3.23,0,0,1-1.918,1.5,3.045,3.045,0,0,1-2.391-.33.949.949,0,0,0-1.243.185.986.986,0,0,0-.232.639,3.236,3.236,0,0,1-.945,2.231,3.134,3.134,0,0,1-2.213.919Zm-8.854-6.434a3.184,3.184,0,0,1,2.738,1.606,3.212,3.212,0,0,1,.42,1.6.985.985,0,0,0,.276.685.953.953,0,0,0,.669.29H68a.936.936,0,0,0,.668-.281.967.967,0,0,0,.277-.678,3.237,3.237,0,0,1,.418-1.612,3.176,3.176,0,0,1,1.16-1.178,3.06,3.06,0,0,1,3.158,0,.929.929,0,0,0,.72.1.949.949,0,0,0,.579-.447l2.45-4.184a.959.959,0,0,0,.1-.725.942.942,0,0,0-.439-.58A3.2,3.2,0,0,1,75.7,595.7a3.257,3.257,0,0,1,0-2.2,3.192,3.192,0,0,1,1.392-1.682.96.96,0,0,0,.441-.588.974.974,0,0,0-.1-.732l-2.45-4.184a.962.962,0,0,0-.576-.45.9.9,0,0,0-.708.1,3.126,3.126,0,0,1-3.16,0,3.233,3.233,0,0,1-1.592-2.773.985.985,0,0,0-.276-.684A.954.954,0,0,0,68,582.22H63.25a.936.936,0,0,0-.668.281.968.968,0,0,0-.277.679,3.242,3.242,0,0,1-.418,1.612,3.166,3.166,0,0,1-1.16,1.177,3.053,3.053,0,0,1-3.158,0,.936.936,0,0,0-1.3.345L53.894,590.5a.959.959,0,0,0-.1.725.946.946,0,0,0,.439.58,3.193,3.193,0,0,1,1.392,1.682,3.259,3.259,0,0,1,0,2.2,3.2,3.2,0,0,1-1.392,1.682.957.957,0,0,0-.449.585.974.974,0,0,0,.095.735l2.376,4.184a.961.961,0,0,0,.576.449.9.9,0,0,0,.708-.1,3.24,3.24,0,0,1,1.609-.435Z" transform="translate(141)" stroke="currentColor" stroke-width="0.5"/>
    <path id="Контур_467" data-name="Контур 467" d="M64.628,600.215a4.93,4.93,0,0,1-3.636-1.647,6,6,0,0,1,0-7.953,4.836,4.836,0,0,1,7.271,0,6,6,0,0,1,0,7.953A4.93,4.93,0,0,1,64.628,600.215Zm0-9a2.96,2.96,0,0,0-2.181.988,3.6,3.6,0,0,0,0,4.772,2.9,2.9,0,0,0,4.363,0,3.6,3.6,0,0,0,0-4.772A2.96,2.96,0,0,0,64.628,591.217Z" transform="translate(141.997)"  stroke="currentColor" stroke-width="0.5"/>
  </g>
</svg>
