<svg id="Сгруппировать_14308" data-name="Сгруппировать 14308" xmlns="http://www.w3.org/2000/svg" width="48.05" height="48.841" viewBox="0 0 48.05 48.841">
  <g id="Сгруппировать_14307" data-name="Сгруппировать 14307">
    <path id="Контур_14301" data-name="Контур 14301" d="M-227.708,293.189c-.31-.054-.749-.127-1.186-.209a1.139,1.139,0,0,0-1.257.478c-.226.326-.465.644-.7.961a1.066,1.066,0,0,0-.084,1.248c.168.3.337.606.487.917a3.13,3.13,0,0,1-.656,3.688c-1.127,1.059-2.412,1.7-3.953,1.011a5.469,5.469,0,0,1-1.54-1.209,1.263,1.263,0,0,0-1.627-.38,1.484,1.484,0,0,1-.328.11c-1.475.352-1.34.692-1.477,1.851a3.221,3.221,0,0,1-2.5,2.854,1.07,1.07,0,0,1-1.253-.712,1,1,0,0,1,.623-1.29,1.431,1.431,0,0,0,1.043-1.49,3.257,3.257,0,0,1,2.584-3.171,5.418,5.418,0,0,1,2.308-.445,3.292,3.292,0,0,1,1.954.974c.116.118.23.238.345.358.835.872,1.211.9,2.141.151a1.051,1.051,0,0,0,.321-1.517,11.619,11.619,0,0,1-.578-1.148,3.086,3.086,0,0,1,.381-2.968c.2-.3.445-.577.648-.878a3.272,3.272,0,0,1,3.739-1.463,3,3,0,0,0,.878.114c.6-.049.952-.543,1.089-1.412a.975.975,0,0,0-.632-1.206,3.813,3.813,0,0,1-2.651-4.237,3.5,3.5,0,0,1,2.169-3.447,5,5,0,0,0,.532-.263,1.517,1.517,0,0,0,.356-.262,1.547,1.547,0,0,0-.071-1.807,1.087,1.087,0,0,0-1.228-.513,9.7,9.7,0,0,1-1.813.161,2.808,2.808,0,0,1-2.131-1.2c-.282-.367-.542-.751-.812-1.126a3.133,3.133,0,0,1-.268-3.451c.154-.31.336-.606.484-.919a.953.953,0,0,0-.215-1.178,3.812,3.812,0,0,0-.808-.567.958.958,0,0,0-1.181.2c-.252.239-.474.51-.724.751a3.167,3.167,0,0,1-3.337.78c-.3-.092-.59-.206-.888-.3a3.292,3.292,0,0,1-2.6-3.218c-.051-.577-.135-1.167-.814-1.326-.942-.221-2-.071-2.011,1.184a4.9,4.9,0,0,1-.152.927,2.821,2.821,0,0,1-1.341,1.943,6.911,6.911,0,0,1-3.037.944,2.918,2.918,0,0,1-2.312-.942c-.246-.246-.476-.508-.729-.746a1.021,1.021,0,0,0-1.356-.112,5.254,5.254,0,0,0-.554.418.985.985,0,0,0-.275,1.291c.148.313.332.608.486.918a3.135,3.135,0,0,1-.281,3.41c-.229.324-.475.636-.706.959a3.216,3.216,0,0,1-3.388,1.339c-.114-.019-.225-.053-.339-.07-1.222-.192-1.647.11-1.875,1.329a1.116,1.116,0,0,0,.686,1.241,13.088,13.088,0,0,1,1.7,1.069.97.97,0,0,1,.181,1.3,1.068,1.068,0,0,1-1.552.311,11.277,11.277,0,0,0-1.264-.76,3.224,3.224,0,0,1-1.751-4.008,3.462,3.462,0,0,1,2.366-2.628,4.955,4.955,0,0,1,2.3.1,1.41,1.41,0,0,0,.391.041c.983-.128,1.981-2.016,1.5-2.869a3.906,3.906,0,0,1-.693-2.573,3.967,3.967,0,0,1,.107-.532,3.6,3.6,0,0,1,6.046-1.479c.148.156.3.311.442.471a1.12,1.12,0,0,0,1.265.313c.267-.083.528-.186.8-.265.9-.263,1.127-.475,1.174-1.408a3.365,3.365,0,0,1,4-3.318,3.194,3.194,0,0,1,3.08,2.994c.029.263.057.527.108.786a1.139,1.139,0,0,0,.993.91c.7.145,1.4.771,2.118.047.257-.258.5-.533.766-.78a2.955,2.955,0,0,1,3.248-.709,3.783,3.783,0,0,1,2.655,2.942,2.76,2.76,0,0,1-.421,2.041,1.844,1.844,0,0,0,.142,2.567c.763.883.81.99,2.005.734a3.179,3.179,0,0,1,3.638,1.452c.875,1.62.992,3.087-.142,4.324a5.78,5.78,0,0,1-1.671,1.11,1.3,1.3,0,0,0-.824,1.32c.047,1.642-.272,1.671,1.522,2.513a3.133,3.133,0,0,1,1.659,3.711,3.452,3.452,0,0,1-2.5,2.847,1.936,1.936,0,0,1-.289.063C-227.209,293.169-227.392,293.173-227.708,293.189Z" transform="translate(272.15 -264.262)" fill="#fff"/>
    <path id="Контур_14302" data-name="Контур 14302" d="M-310.932,449.106a2.522,2.522,0,0,1-1.792-.726,1.071,1.071,0,0,0-1.24-.178,1.937,1.937,0,0,0-1.538,1.892,2.312,2.312,0,0,1-2.136,1.9,9.625,9.625,0,0,1-1.041.054,2.626,2.626,0,0,1-2.909-2.641c-.049-.518-.3-.7-.72-.918a1.851,1.851,0,0,0-2.424.217,1.892,1.892,0,0,1-2.021.286,3.969,3.969,0,0,1-2.538-2.707,2.276,2.276,0,0,1,.588-2.158,1.331,1.331,0,0,0,.194-1.552,1.758,1.758,0,0,0-1.66-1.338,2.372,2.372,0,0,1-2.078-2.5,7.573,7.573,0,0,1,.09-1.675,2.413,2.413,0,0,1,2.165-1.883,2.337,2.337,0,0,0,.633-.1,1.038,1.038,0,0,0,.492-.4,7.078,7.078,0,0,0,.534-1.271.99.99,0,0,0-.079-.632,4.1,4.1,0,0,0-.433-.6,2.529,2.529,0,0,1-.425-2.112c.365-1.538,2.338-2.96,3.764-2.609a4.951,4.951,0,0,1,1.458.789.731.731,0,0,0,.862.1,1.829,1.829,0,0,1,.543-.234c.816-.154,1.065-.674,1.144-1.455a2.458,2.458,0,0,1,2.512-2.2,8.188,8.188,0,0,1,1.486.04,2.558,2.558,0,0,1,2.131,2.51,1.074,1.074,0,0,0,.75,1,1.9,1.9,0,0,0,2.384-.207,2.3,2.3,0,0,1,2.933.156,9.862,9.862,0,0,1,1.032,1,2.49,2.49,0,0,1,.008,3.425,1.315,1.315,0,0,0-.184,1.5,1.734,1.734,0,0,0,1.687,1.353,2.382,2.382,0,0,1,2.055,2.375c.016.38.024.762.012,1.142a2.529,2.529,0,0,1-2.427,2.576,1.26,1.26,0,0,0-1.175.887,1.743,1.743,0,0,0,.241,2.208,2.13,2.13,0,0,1,.357,2.066A4.028,4.028,0,0,1-310.932,449.106Zm.073-2.068a9.436,9.436,0,0,0,.934-.912.7.7,0,0,0,.026-.607,6.837,6.837,0,0,0-.538-.768,2.261,2.261,0,0,1-.332-2.03,18.634,18.634,0,0,1,.932-2.227,2.2,2.2,0,0,1,1.551-1.135,5.1,5.1,0,0,1,.875-.154c.486-.022.623-.291.6-.719-.008-.149,0-.3,0-.447-.02-.612-.11-.706-.719-.769a2.676,2.676,0,0,1-1.776-.657,6.4,6.4,0,0,1-1.552-3.6.512.512,0,0,1,.045-.291c.282-.552.549-1.115.875-1.639a.573.573,0,0,0-.041-.826c-.825-.868-.82-.879-1.781-.183a2.594,2.594,0,0,1-2.8.27c-.328-.152-.661-.3-1-.419a2.636,2.636,0,0,1-1.888-2.361c-.111-.983-.135-.981-1.143-.956l-.05,0c-.705.021-.726.021-.791.711A2.836,2.836,0,0,1-321.561,430c-.313.1-.6.27-.913.373a4.89,4.89,0,0,1-.952.233,2.9,2.9,0,0,1-2.154-.832c-.148-.116-.429-.287-.5-.233a4.377,4.377,0,0,0-1.027.964c-.091.131.107.545.269.754a2.477,2.477,0,0,1,.714,2.183,13.73,13.73,0,0,1-1.218,2.836,2.553,2.553,0,0,1-1.153.791,3,3,0,0,1-1.013.2.592.592,0,0,0-.622.662c-.047,1.17-.049,1.17,1.137,1.346a2.549,2.549,0,0,1,2.1,1.607c.211.5.409,1.007.614,1.509a2.429,2.429,0,0,1-.21,2.318c-.166.266-.387.5-.545.767-.083.143-.176.409-.109.488a3.527,3.527,0,0,0,1,.925c.173.087.583-.2.831-.384a2.649,2.649,0,0,1,3.01-.325,4.412,4.412,0,0,0,.724.314,2.765,2.765,0,0,1,2.118,2.512c.115.9.158.9,1.09.9.033,0,.067,0,.1,0,.476.042.736-.12.766-.652a2.84,2.84,0,0,1,2.233-2.8,1.652,1.652,0,0,0,.369-.139,2.791,2.791,0,0,1,3.511.384A4.636,4.636,0,0,0-310.859,447.038Z" transform="translate(332.252 -403.209)" fill="#fff"/>
    <path id="Контур_14303" data-name="Контур 14303" d="M-178.808,363.453l-1.085-.061a1.065,1.065,0,0,1-1.1-1.183,1.08,1.08,0,0,1,1.264-.96,7.4,7.4,0,0,0,7.506-4.411,7.393,7.393,0,0,0-5.683-10.27,7.35,7.35,0,0,0-8.448,6.446,10.379,10.379,0,0,0-.017,1.629,1.105,1.105,0,0,1-.971,1.22,1.073,1.073,0,0,1-1.186-1.049,9.615,9.615,0,0,1,7.4-10.264,9.65,9.65,0,0,1,11.508,7.545,9.61,9.61,0,0,1-7.5,11.154C-177.724,363.374-178.34,363.4-178.808,363.453Z" transform="translate(207.617 -333.702)" fill="#fff"/>
    <path id="Контур_14305" data-name="Контур 14305" d="M-263.228,498.957a5.284,5.284,0,0,1-5.274-5.311,5.323,5.323,0,0,1,5.333-5.317,5.364,5.364,0,0,1,5.294,5.329A5.322,5.322,0,0,1-263.228,498.957Zm.09-2.146a3.139,3.139,0,0,0,3.091-3.344,3.152,3.152,0,0,0-3.363-2.965,3.147,3.147,0,0,0-2.945,3.24A3.132,3.132,0,0,0-263.138,496.81Z" transform="translate(276.953 -458.627)" fill="#fff"/>
  </g>
</svg>
