<svg xmlns="http://www.w3.org/2000/svg" width="2027.315" height="1114.565" viewBox="0 0 2027.315 1114.565" stroke="">
  <path id="Контур_474" data-name="Контур 474" d="M748.006,272.391c2.12-11.3,5.258-19.627,9.589-24.554q.438-.5.893-.948c-2.424-3.416-4.819-6.738-7.252-10.187C735.425,218.647,724.582,214.2,717.73,221a17.708,17.708,0,0,0-2.927,4.014c11.143,16.046,22.226,31.885,33.2,47.378m41.8,17.435a50.713,50.713,0,0,1,6.956-13.592,23.526,23.526,0,0,1,6.866-6.266c-2.558-3.519-5.086-6.948-7.655-10.505-16.826-16.764-28.783-20.147-36.848-12.513C769.417,261.461,779.657,275.8,789.806,289.826Zm-6.82,31.461c1.541-12.263,3.718-22.636,6.621-30.911-10.2-14.1-20.488-28.5-30.833-43.084q-.425.425-.835.89c-4.337,4.934-7.471,13.313-9.575,24.714Q765.8,297.5,782.986,321.287Zm49.931-12.157c.512-.888,1.035-1.75,1.571-2.57,4.2-6.431,9.133-10.757,14.884-12.753-2.891-3.871-5.752-7.657-8.658-11.576-15.472-13.354-27.382-16.867-36.358-12.084C813.933,283.329,823.467,296.369,832.917,309.13Zm-9.809,26.29c2.576-10.383,5.734-19.058,9.553-25.824-9.505-12.834-19.1-25.952-28.733-39.214a22.839,22.839,0,0,0-6.8,6.169,50.731,50.731,0,0,0-6.991,13.733Q806.738,313.233,823.108,335.42Zm-5.71,32.943a272.076,272.076,0,0,1,5.561-32.332q-16.378-22.162-33.021-45.2c-2.882,8.3-5.038,18.7-6.56,31Q800.512,345.5,817.4,368.362Zm7.592,883.7q-.893,4.306-1.848,8.474-.393,5.316-.854,10.5Q823.767,1261.806,824.99,1252.061Zm52.121-922.192c5.318-6.273,11.42-10.291,18.411-11.79-3.357-4.363-6.69-8.653-10.066-13.081-14.228-10.534-25.848-13.832-35.267-10.9C859.213,306.183,868.2,318.158,877.111,329.869ZM864.758,351.7a100.866,100.866,0,0,1,5.412-11.6,63.554,63.554,0,0,1,6.62-9.848c-8.962-11.783-18.008-23.83-27.086-35.995-5.741,1.932-10.652,6.207-14.827,12.6-.563.86-1.108,1.768-1.644,2.706Q849.1,330.979,864.758,351.7Zm-8.394,28.267a190.094,190.094,0,0,1,8.182-27.746q-15.662-20.693-31.568-42.2c-3.8,6.784-6.947,15.481-9.507,25.888Q840.032,358.323,856.363,379.965Zm-5.672,32.943c1.536-11.7,3.37-22.5,5.536-32.319q-16.32-21.594-32.907-44.068a273.376,273.376,0,0,0-5.522,32.386Q834.364,391.293,850.692,412.907Zm-27.017,832.038q-1.65,5.549-3.424,10.833-.138,8.3-.415,16.351c1-3.8,1.939-7.716,2.847-11.7Q823.246,1252.815,823.675,1244.946Zm3.486-12.529c-.942,3.618-1.911,7.173-2.921,10.64-.256,4.843-.539,9.635-.866,14.338.819-3.716,1.6-7.521,2.345-11.384Q826.5,1239.325,827.161,1232.416Zm2.795-11.387c-.669,2.892-1.35,5.756-2.061,8.561q-.485,5.21-1.03,10.3Q828.531,1230.712,829.956,1221.029Zm92.219-869.37a38.307,38.307,0,0,1,19.764-9.115c-3.912-4.917-7.807-9.779-11.745-14.783-13.079-8.2-24.252-11.084-33.78-9.317C905.044,329.664,913.648,340.784,922.174,351.659Zm-14.443,18.062a68.391,68.391,0,0,1,14.073-17.75c-8.58-10.942-17.237-22.133-25.924-33.426-7.022,1.441-13.141,5.441-18.464,11.725Q892.674,350.323,907.731,369.721Zm-10.737,24.134c1.835-5.258,3.789-10.171,5.875-14.7q2.2-4.778,4.6-8.988Q892.4,350.789,877.1,330.648a62.82,62.82,0,0,0-6.52,9.7,101.055,101.055,0,0,0-5.485,11.79Q881.155,373.365,896.994,393.854Zm-8.111,28.7a273.946,273.946,0,0,1,7.924-28.152q-15.835-20.451-31.925-41.739a190.911,190.911,0,0,0-8.145,27.8Q872.924,401.879,888.883,422.554Zm-6.14,32.282c1.768-11.258,3.759-21.835,6-31.669Q872.8,402.555,856.6,381.083c-2.154,9.83-3.979,20.644-5.507,32.36Q867.031,434.506,882.743,454.835Zm-62.812,782.979q-2.184,5.175-4.514,10.021.3,9.5.454,18.719,2.036-5.283,3.921-10.9C819.887,1249.806,819.929,1243.847,819.931,1237.815Zm4.589-11.631q-2,5.4-4.124,10.506.005,8.911-.124,17.571c1.216-3.671,2.381-7.455,3.509-11.321Q824.217,1234.689,824.52,1226.184Zm4.2-12.124q-1.789,5.5-3.694,10.74-.276,8.2-.677,16.165,1.6-5.617,3.088-11.489Q828.142,1221.891,828.721,1214.06Zm3.793-12.391q-1.549,5.382-3.192,10.551c-.344,4.774-.709,9.5-1.121,14.143.883-3.61,1.74-7.274,2.559-11.021Q831.688,1208.61,832.514,1201.669Zm3.07-11.233c-.743,2.866-1.5,5.7-2.283,8.485q-.6,5.246-1.261,10.375Q833.928,1200.115,835.584,1190.436ZM967.953,374.194a46.373,46.373,0,0,1,20.587-7.148c-4.526-5.477-9.043-10.927-13.6-16.518-12.018-6.275-22.646-8.657-32.052-7.574C951.283,353.51,959.653,363.965,967.953,374.194Zm-16.092,14.941a65.979,65.979,0,0,1,15.684-14.674c-8.351-10.291-16.772-20.813-25.222-31.434a37.9,37.9,0,0,0-19.833,9.033Q937.269,370.908,951.861,389.136Zm-12.747,20.516a118.586,118.586,0,0,1,12.437-20.127q-14.606-18.212-29.431-37.15a67.849,67.849,0,0,0-14.072,17.756Q923.69,390.244,939.114,409.652Zm-10.291,24.876c.724-2.089,1.459-4.145,2.211-6.15a197.727,197.727,0,0,1,7.843-18.247q-15.42-19.37-31.088-39.547-2.343,4.119-4.5,8.795c-2.115,4.589-4.094,9.58-5.951,14.925Q913.193,414.778,928.824,434.528Zm-8.4,28.393c2.518-9.931,5.246-19.238,8.209-27.85q-15.612-19.69-31.482-40.219a275.9,275.9,0,0,0-7.9,28.187C899.719,436.57,910.122,449.906,920.425,462.921Zm-6.89,31.275c2.065-10.772,4.3-21.022,6.738-30.683-10.3-13.008-20.7-26.339-31.157-39.86q-3.35,14.765-5.979,31.7Q898.446,475.124,913.536,494.2Zm-93.768,723.615q-1.246,2.408-2.523,4.736m7.773-15.578q-2.336,5.136-4.8,9.957c.1,6.249.17,12.432.182,18.511q2.151-5.229,4.168-10.76Q824.859,1215.949,825.018,1206.969Zm4.888-11.406q-2.138,5.316-4.4,10.34c-.1,5.884-.246,11.668-.43,17.388q1.957-5.453,3.789-11.193Q829.447,1203.953,829.906,1195.563Zm4.538-11.964q-1.947,5.434-4,10.614-.429,8.093-.974,15.966,1.742-5.562,3.375-11.374Q833.7,1191.319,834.444,1183.6Zm4.148-12.236q-1.71,5.32-3.508,10.428c-.447,4.746-.919,9.44-1.428,14.055q1.483-5.447,2.88-11.09Q837.61,1178.159,838.593,1171.363ZM842,1160.251c-.844,2.877-1.7,5.725-2.576,8.52-.48,3.423-.972,6.824-1.488,10.172Q840.078,1169.836,842,1160.251Zm-24.756,62.3q-1.3,2.367-2.647,4.642.461,9.924.782,19.6,2.349-4.951,4.552-10.227m194.412-839.32a57.054,57.054,0,0,1,20.929-5.765c-5.184-6.017-10.367-12.029-15.594-18.185-11.023-4.68-21.037-6.52-30.152-5.809C997.844,377.545,1006.125,387.5,1014.344,397.243Zm-17.336,12.385a69.892,69.892,0,0,1,16.887-12.164c-8.265-9.8-16.594-19.813-24.957-29.932a46,46,0,0,0-20.653,7.073C977.921,386.478,987.507,398.188,997.009,409.628Zm-14.42,17.4a107.526,107.526,0,0,1,14.072-17.063c-9.523-11.464-19.13-23.2-28.786-35.1a65.507,65.507,0,0,0-15.694,14.665C962.384,402.257,972.535,414.8,982.589,427.031Zm-12.2,21.479a173.928,173.928,0,0,1,11.921-21.054c-10.062-12.241-20.221-24.8-30.436-37.532a118.191,118.191,0,0,0-12.427,20.144C949.83,423.114,960.161,435.981,970.386,448.51Zm-10.445,24.85c3.2-8.714,6.6-16.858,10.211-24.37-10.227-12.528-20.56-25.4-30.946-38.444q-4.1,8.312-7.733,18.016c-.783,2.088-1.548,4.23-2.3,6.409C939.5,448,949.773,460.849,959.941,473.361Zm-9,27.669c.238-.82.476-1.644.716-2.458q3.829-12.979,8.093-24.68c-10.167-12.508-20.437-25.356-30.763-38.377-2.957,8.622-5.677,17.936-8.188,27.879Q935.977,482.566,950.938,501.03Zm-7.828,30.064q3.616-15.4,7.664-29.5-14.95-18.432-30.129-37.61-3.643,14.5-6.721,30.7Q928.625,513.238,943.11,531.094Zm-107.1,634.3q-2.311,5.229-4.738,10.173-.313,8.688-.752,17.141,2.111-5.387,4.1-11.045Q835.377,1173.643,836.011,1165.392Zm4.916-11.743q-2.123,5.337-4.347,10.432-.6,7.991-1.314,15.77,1.905-5.48,3.7-11.208Q840,1161.258,840.927,1153.648Zm4.514-11.88q-1.877,5.2-3.839,10.189-.841,7.029-1.769,13.874,1.657-5.412,3.232-11.008Q844.3,1148.393,845.441,1141.768Zm3.769-10.879q-1.4,4.191-2.841,8.263-.876,5.17-1.807,10.225Q846.987,1140.366,849.21,1130.889Zm-29.915,66.3q-2.848,4.5-5.833,8.664.619,10.348,1.1,20.452c.768-1.317,1.529-2.651,2.279-4.012.988-1.793,1.956-3.635,2.913-5.5Q819.59,1207.108,819.3,1197.188Zm5.9-9.954q-2.665,4.785-5.459,9.25.3,9.84.463,19.419,2.487-4.91,4.843-10.137C825.142,1199.678,825.185,1193.487,825.195,1187.234Zm.49-.872-.021.037q-.007,9.278-.144,18.321,2.3-5.165,4.464-10.636.457-8.629.789-17.5Q828.286,1181.616,825.685,1186.361ZM1061.277,420.6a70.544,70.544,0,0,1,20.876-4.8c-5.887-6.5-11.79-13.06-17.733-19.74a73.864,73.864,0,0,0-28.116-4.127C1044.676,401.645,1053.012,411.242,1061.277,420.6Zm-18.2,10.331a78.837,78.837,0,0,1,17.716-10.146c-8.307-9.411-16.684-19.057-25.1-28.818a56.709,56.709,0,0,0-21,5.687C1024.214,408.948,1033.694,420.1,1043.078,430.936ZM1027.32,445.7a106.539,106.539,0,0,1,15.37-14.465c-9.405-10.864-18.905-22.039-28.45-33.355a69.386,69.386,0,0,0-16.907,12.146C1007.4,422.135,1017.41,434.082,1027.32,445.7Zm-13.833,18.468a156.082,156.082,0,0,1,13.505-18.1c-9.916-11.621-19.936-23.576-30.008-35.7a107.2,107.2,0,0,0-14.071,17.069Q998.312,446.161,1013.487,464.163ZM1001.218,485.8a231.12,231.12,0,0,1,11.993-21.214q-15.164-17.962-30.579-36.736a174.045,174.045,0,0,0-11.912,21.07Q986.09,467.748,1001.218,485.8ZM990.27,510.191q5.119-12.652,10.715-23.913-15.131-18.062-30.495-36.872c-3.609,7.515-7,15.665-10.2,24.387Q975.4,492.384,990.27,510.191Zm-9.848,26.748q4.614-13.727,9.641-26.239-14.877-17.849-29.967-36.379-4.215,11.555-7.991,24.4c-.27.912-.536,1.833-.8,2.755Q965.975,519.562,980.422,536.939Zm-8.909,28.791q4.191-14.644,8.73-28.251-14.45-17.388-29.1-35.438-4.05,14.085-7.65,29.516Q957.6,548.962,971.513,565.73Zm-128.59,570.057q-2.507,5.117-5.116,9.971-.5,8.543-1.116,16.867,2.28-5.279,4.456-10.813Q842.091,1143.913,842.923,1135.787Zm5.334-11.4q-2.323,5.205-4.736,10.172-.8,7.85-1.692,15.494,2.091-5.407,4.088-11.048Q847.136,1131.8,848.257,1124.387ZM853.2,1112.8q-2.076,5.077-4.231,9.957-1.036,6.946-2.158,13.708,1.836-5.28,3.593-10.761Q851.847,1119.346,853.2,1112.8Zm4.18-10.588q-1.577,4.144-3.2,8.17-1.041,5.1-2.13,10.1Q854.814,1111.574,857.385,1102.212ZM818.5,1175.974q-3.174,4.112-6.484,7.873.772,10.745,1.4,21.243,3-4.2,5.849-8.763Q818.957,1186.278,818.5,1175.974Zm6.578-9.077q-3,4.418-6.136,8.506.45,10.224.766,20.219,2.812-4.522,5.492-9.375Q825.206,1176.7,825.077,1166.9Zm6.265-9.779q-2.845,4.705-5.808,9.1.127,9.691.133,19.161,2.636-4.828,5.145-9.963Q831.138,1166.386,831.342,1157.118Zm5.079-8.8q-2.259,4.1-4.6,7.991-.192,9.161-.51,18.087,2.463-5.085,4.809-10.459.638-8.489,1.158-17.21C836.994,1147.262,836.708,1147.8,836.42,1148.322Zm272.35-704.216a87.157,87.157,0,0,1,20.423-4.165q-9.956-10.375-20.027-21.115a85.081,85.081,0,0,0-25.971-2.6Q1096.065,430.435,1108.77,444.106Zm-18.687,8.688a92.615,92.615,0,0,1,18.174-8.523q-12.747-13.706-25.672-27.992a70.205,70.205,0,0,0-20.946,4.741Q1075.966,437.245,1090.083,452.794Zm-16.8,12.526a113.459,113.459,0,0,1,16.369-12.274q-14.147-15.587-28.5-31.841a78.347,78.347,0,0,0-17.746,10.12Q1058.471,448.713,1073.287,465.32Zm-15.222,15.873a151.173,151.173,0,0,1,14.857-15.552q-14.845-16.671-29.9-34.028a106.288,106.288,0,0,0-15.372,14.463C1037.871,458.054,1048,469.722,1058.065,481.193Zm-13.88,18.816a207.89,207.89,0,0,1,13.563-18.44q-15.106-17.211-30.429-35.129a155.578,155.578,0,0,0-13.5,18.109Q1029.126,482.68,1044.185,500.01Zm-12.721,21.406q6-11.123,12.444-20.984-15.071-17.371-30.366-35.456a230.077,230.077,0,0,0-11.986,21.227Q1016.631,504.191,1031.464,521.415ZM1019.743,545.1q5.541-12.174,11.475-23.223-14.838-17.248-29.9-35.2-5.6,11.242-10.7,23.928Q1005.292,528.209,1019.743,545.1ZM1008.9,570.8q5.143-13.087,10.62-25.211-14.448-16.9-29.112-34.476-5.029,12.5-9.631,26.254Q994.946,554.412,1008.9,570.8ZM998.8,598.244q4.806-13.884,9.9-26.934-13.948-16.381-28.1-33.4-4.544,13.585-8.719,28.261Q985.432,582.5,998.8,598.244ZM856.526,1095.919q-2.547,5.047-5.172,9.871-1.01,7.689-2.114,15.18,2.291-5.262,4.5-10.748Q855.175,1103.168,856.526,1095.919Zm5.424-11.172q-2.3,4.92-4.666,9.657-1.247,6.772-2.571,13.374,2.035-5.139,4-10.46Q860.369,1091.121,861.951,1084.747Zm4.653-10.263q-1.782,4.062-3.605,8.011-1.23,5.03-2.51,9.945Q863.631,1083.681,866.6,1074.485Zm-49.19,79.663q-3.52,3.708-7.161,7.06.918,11.076,1.714,21.943,3.319-3.791,6.5-7.936Q818.01,1164.8,817.413,1154.148Zm7.263-8.178q-3.354,4.024-6.823,7.718.591,10.586,1.058,20.957,3.143-4.13,6.155-8.592Q824.935,1156.129,824.676,1145.97Zm6.954-8.866q-3.194,4.319-6.5,8.327.261,10.078.4,19.935,2.979-4.449,5.836-9.213Q831.554,1146.741,831.629,1137.1Zm6.642-9.482q-3.033,4.565-6.17,8.837-.069,9.559-.261,18.888,2.118-3.557,4.172-7.279c.448-.814.891-1.642,1.334-2.467Q837.867,1136.725,838.272,1127.622Zm6.368-10.081q-2.883,4.793-5.865,9.312-.393,8.995-.9,17.775,2.649-4.975,5.191-10.225Q843.906,1126.084,844.639,1117.541Zm5.857-10.175q-2.611,4.741-5.305,9.246-.712,8.384-1.529,16.563,2.477-5.162,4.859-10.574,1.152-7.719,2.2-15.654C850.649,1107.085,850.574,1107.227,850.5,1107.366ZM1156.817,467.6a107.4,107.4,0,0,1,19.615-3.778c-7.468-7.281-14.966-14.662-22.523-22.228a98.623,98.623,0,0,0-23.627-1.225Q1143.641,454.273,1156.817,467.6Zm-18.859,7.417a111.439,111.439,0,0,1,18.324-7.265q-13.231-13.4-26.631-27.333a86.779,86.779,0,0,0-20.494,4.1Q1123.665,460.109,1137.957,475.014ZM1120.4,485.7a128.284,128.284,0,0,1,17.106-10.454q-14.324-14.941-28.859-30.56a92.069,92.069,0,0,0-18.208,8.5Q1105.528,469.8,1120.4,485.7Zm-16.362,13.655A157.416,157.416,0,0,1,1120,485.988q-14.881-15.9-30-32.558a113.115,113.115,0,0,0-16.385,12.263Q1088.943,482.9,1104.034,499.352ZM1088.769,515.7a202.347,202.347,0,0,1,14.907-16.016q-15.088-16.437-30.42-33.668a150.659,150.659,0,0,0-14.862,15.554Q1073.7,499.006,1088.769,515.7Zm-14.3,18.743q6.793-9.745,13.983-18.366-15.064-16.672-30.375-34.13a207.067,207.067,0,0,0-13.56,18.444Q1059.606,517.78,1074.469,534.441Zm-13.435,20.9q6.4-10.752,13.15-20.483-14.853-16.642-29.945-34.041-6.446,9.845-12.438,20.993Q1046.527,538.921,1061.034,555.336Zm-12.647,22.836c4.023-7.759,8.146-15.245,12.387-22.4q-14.5-16.4-29.219-33.511-5.932,11.047-11.469,23.234Q1034.341,562.166,1048.387,578.172ZM1036.4,602.709q5.729-12.43,11.743-24.074-14.034-15.992-28.279-32.646-5.485,12.1-10.614,25.221Q1022.924,587.263,1036.4,602.709ZM1025,628.758q5.467-13.125,11.182-25.565-13.469-15.43-27.131-31.473-5.1,13.028-9.9,26.942Q1012.163,613.977,1025,628.758ZM876.933,1047.926q-2.009,3.941-4.05,7.778-1.437,4.9-2.914,9.695Q873.525,1056.87,876.933,1047.926Zm-60.888,83.785q-3.861,3.285-7.839,6.214,1.065,11.44,1.993,22.649,3.652-3.37,7.176-7.1Q816.771,1142.7,816.045,1131.71Zm7.956-7.253q-3.7,3.608-7.515,6.882.729,10.944,1.328,21.669,3.482-3.716,6.841-7.779Q824.389,1134.951,824,1124.457Zm7.65-7.927q-3.549,3.9-7.2,7.489.392,10.439.658,20.657,3.32-4.042,6.528-8.4Q831.7,1126.516,831.651,1116.53Zm7.358-8.55q-3.4,4.166-6.892,8.033.054,9.913-.011,19.613,3.156-4.326,6.209-8.95Q838.719,1117.437,839.009,1107.98Zm7.1-9.141q-3.259,4.409-6.608,8.536-.284,9.369-.68,18.531,3.009-4.592,5.918-9.467Q845.473,1107.747,846.1,1098.838Zm6.835-9.694q-3.115,4.612-6.311,8.973-.621,8.8-1.341,17.393,2.434-4.108,4.8-8.4c.274-.494.542-1,.811-1.494Q851.968,1097.484,852.94,1089.144Zm6.575-10.163q-2.964,4.77-6,9.317-.945,8.181-1.984,16.165,2.7-5,5.308-10.233Q858.222,1086.708,859.515,1078.981Zm6.307-10.534q-2.793,4.843-5.652,9.482-1.247,7.488-2.579,14.789,2.52-5.1,4.964-10.4Q864.23,1075.479,865.822,1068.448Zm3.984-7.059q-1.579,2.867-3.182,5.659-1.485,6.584-3.037,13.006,2.271-4.992,4.48-10.151,1.887-5.984,3.708-12.135Q870.795,1059.591,869.806,1061.388Zm335.649-570.406a132.381,132.381,0,0,1,18.528-3.493c-8.39-7.544-16.823-15.225-25.329-23.136a115.576,115.576,0,0,0-21.085-.111Q1191.609,477.919,1205.455,490.982Zm-18.73,6.417a136.189,136.189,0,0,1,18.171-6.273q-13.88-13.067-27.979-26.836a106.832,106.832,0,0,0-19.693,3.717C1167.129,478.029,1176.976,487.871,1186.725,497.4Zm-18.006,9.2a150.032,150.032,0,0,1,17.524-8.984c-9.767-9.547-19.633-19.41-29.554-29.453a111.021,111.021,0,0,0-18.367,7.234Q1153.637,491.363,1168.72,506.6Zm-17.252,11.789a174.2,174.2,0,0,1,16.817-11.535q-15.078-15.2-30.417-31.227a127.463,127.463,0,0,0-17.13,10.44Q1136.222,502.6,1151.467,518.386Zm-16.474,14.2a210.661,210.661,0,0,1,16.087-13.9q-15.235-15.747-30.736-32.333a157.046,157.046,0,0,0-15.977,13.363Q1119.8,516.527,1134.994,532.586Zm-15.712,16.425c5-5.688,10.115-11.072,15.356-16.091q-15.179-16.016-30.624-32.87a201.644,201.644,0,0,0-14.913,16.016C1099.235,527.281,1109.31,538.313,1119.281,549.011Zm-15.005,18.4q7.177-9.473,14.682-18.033c-9.97-10.7-20.043-21.725-30.176-32.937q-7.194,8.607-13.982,18.372C1084.7,545.9,1094.537,556.818,1104.276,567.413Zm-14.319,20.221q6.866-10.309,14.023-19.823c-9.735-10.592-19.574-21.5-29.464-32.584q-6.755,9.731-13.146,20.49Q1075.767,572,1089.957,587.634Zm-13.75,21.841q6.6-11.073,13.471-21.424-14.169-15.587-28.57-31.9c-4.238,7.153-8.359,14.643-12.38,22.406Q1062.567,594.325,1076.207,609.475Zm-13.232,23.314q6.37-11.751,12.973-22.875-13.627-15.124-27.461-30.89-6.013,11.632-11.737,24.08Q1049.953,618.228,1062.975,632.789Zm-12.8,24.624q6.172-12.354,12.548-24.172-13.008-14.536-26.2-29.652-5.715,12.431-11.177,25.57Q1037.844,643.528,1050.18,657.413ZM814.395,1108.686q-4.219,2.843-8.543,5.326,1.208,11.753,2.3,23.318,3.985-2.939,7.853-6.249Q815.26,1119.987,814.395,1108.686Zm8.661-6.3q-4.057,3.169-8.217,5.993.866,11.267,1.6,22.329,3.823-3.29,7.531-6.927Q823.574,1113.189,823.056,1102.386Zm8.362-6.968q-3.909,3.463-7.908,6.62.518,10.758.913,21.306,3.667-3.612,7.224-7.552Q831.593,1105.714,831.418,1095.419Zm8.085-7.588q-3.767,3.735-7.623,7.173.171,10.233.235,20.274,3.508-3.905,6.918-8.111Q839.324,1097.6,839.5,1087.83Zm7.835-8.184q-3.638,3.991-7.357,7.716-.177,9.7-.46,19.2,3.37-4.183,6.65-8.643Q846.805,1088.884,847.339,1079.646Zm7.582-8.712q-3.5,4.207-7.078,8.155-.525,9.151-1.147,18.109,3.224-4.42,6.367-9.095Q854.04,1079.619,854.92,1070.934Zm7.349-9.2q-3.372,4.4-6.812,8.562-.867,8.562-1.822,16.938,3.084-4.63,6.088-9.5Q861.04,1069.83,862.27,1061.735Zm7.118-9.642q-3.229,4.533-6.52,8.856-1.2,7.958-2.488,15.726,2.938-4.8,5.8-9.824Q867.824,1059.562,869.388,1052.093Zm6.858-9.949q-3.061,4.594-6.177,9-1.508,7.237-3.083,14.309,1.211-2.139,2.412-4.316,1.534-2.786,3.048-5.632Q874.382,1048.911,876.246,1042.144Zm6.54-10.137q-2.824,4.5-5.693,8.849-1.742,6.354-3.543,12.56,2.515-4.783,4.981-9.725Q880.685,1037.925,882.786,1032.007Zm5.72-9.356q-2.265,3.8-4.557,7.491-1.679,4.774-3.393,9.448Q884.6,1031.324,888.506,1022.651ZM1254.919,514.11a164.1,164.1,0,0,1,16.975-3.273q-14.147-11.538-28.5-23.72a137.067,137.067,0,0,0-18.278.738Q1240.131,501.338,1254.919,514.11Zm-18.277,5.648a168.45,168.45,0,0,1,17.691-5.5q-14.807-12.776-29.857-26.319a132.068,132.068,0,0,0-18.591,3.456Q1221.393,505.977,1236.643,519.759Zm-18.258,7.991a180.5,180.5,0,0,1,17.734-7.8q-15.27-13.815-30.792-28.411a135.91,135.91,0,0,0-18.213,6.241Q1202.882,513.181,1218.385,527.749ZM1200.455,538q8.567-5.482,17.47-10.017-15.516-14.591-31.293-30a149.428,149.428,0,0,0-17.546,8.972Q1184.9,522.9,1200.455,538Zm-17.48,12.378q8.366-6.513,17.056-12.108-15.556-15.106-31.38-31.054a173.863,173.863,0,0,0-16.836,11.525Q1167.527,534.976,1182.975,550.38Zm-16.946,14.385q8.127-7.461,16.562-14.079-15.45-15.411-31.161-31.64a209.786,209.786,0,0,0-16.095,13.9Q1150.815,549.27,1166.029,564.766ZM1149.6,580.981q7.891-8.341,16.072-15.884-15.221-15.527-30.688-31.818-7.865,7.529-15.361,16.09C1129.7,560.18,1139.679,570.677,1149.6,580.981ZM1133.674,598.9q7.661-9.14,15.587-17.56c-9.913-10.3-19.888-20.792-29.965-31.6q-7.507,8.561-14.687,18.04Q1119.263,583.715,1133.674,598.9Zm-15.448,19.447q7.442-9.861,15.13-19.072-14.411-15.207-29.044-31.1c-4.777,6.326-9.445,12.955-14.023,19.829C1099.667,598.318,1108.993,608.474,1118.227,618.344Zm-14.972,20.768q7.227-10.476,14.675-20.373c-9.227-9.865-18.547-20.013-27.917-30.317q-6.87,10.342-13.467,21.428Q1089.995,624.774,1103.255,639.113Zm-14.6,22.031q7.057-11.056,14.315-21.622-13.244-14.306-26.685-29.231-6.608,11.107-12.972,22.877Q1076.072,647.42,1088.656,661.143Zm-14.3,23.154q6.923-11.579,14.025-22.729-12.569-13.7-25.317-27.948-6.382,11.8-12.544,24.177Q1062.515,671.27,1074.361,684.3ZM812.468,1085.066q-4.574,2.384-9.245,4.41,1.344,12.076,2.571,23.966,4.332-2.492,8.554-5.354Q813.472,1096.68,812.468,1085.066Zm9.386-5.3c-2.946,1.807-5.929,3.478-8.936,5.056q.994,11.563,1.877,22.954,4.168-2.841,8.234-6.021Q822.5,1090.868,821.854,1079.77Zm9.092-6.006q-4.278,3.012-8.638,5.718.637,11.052,1.172,21.93c2.675-2.111,5.315-4.342,7.928-6.665Q831.233,1084.355,830.946,1073.764Zm8.823-6.6q-4.144,3.285-8.362,6.286.283,10.533.465,20.886,3.866-3.461,7.645-7.219Q839.7,1077.234,839.769,1067.16Zm8.578-7.151c-2.677,2.356-5.381,4.6-8.105,6.774q-.072,10.019-.247,19.855,3.738-3.746,7.388-7.784Q847.917,1069.53,848.348,1060.01Zm8.34-7.711q-3.893,3.76-7.85,7.27-.429,9.455-.954,18.733,3.6-3.989,7.124-8.236Q855.893,1061.279,856.688,1052.3Zm8.123-8.193q-3.772,3.962-7.607,7.7-.786,8.9-1.66,17.612,3.476-4.223,6.88-8.695Q863.662,1052.511,864.811,1044.106Zm7.909-8.594c-2.431,2.749-4.884,5.4-7.351,8.006q-1.137,8.3-2.352,16.426,3.338-4.4,6.613-9.028Q871.215,1043.3,872.72,1035.512Zm7.708-9.05q-3.52,4.257-7.086,8.331-1.478,7.669-3.03,15.165,3.2-4.558,6.349-9.327Q878.58,1033.634,880.429,1026.462Zm7.469-9.307q-3.357,4.313-6.757,8.45-1.784,6.942-3.629,13.734,3.033-4.627,6.016-9.431Q885.741,1023.612,887.9,1017.155Zm7.156-9.456q-3.115,4.223-6.267,8.3-2.024,6.089-4.1,12.038,2.8-4.551,5.552-9.252Q892.669,1013.312,895.053,1007.7Zm6.277-8.691q-2.526,3.58-5.073,7.069-1.918,4.546-3.866,9,2.854-4.949,5.663-10.05Q899.7,1002.046,901.33,999.009Zm404.059-462.154c4.961-1.2,9.975-2.241,15.06-3.073q-16.025-11.551-32.3-23.9c-5.1.2-10.107.658-15.052,1.307Q1289.379,524.45,1305.388,536.854Zm-17.51,5.047q8.328-2.795,16.894-4.9-16.033-12.425-32.347-25.727a163.277,163.277,0,0,0-17.039,3.24Q1271.771,528.639,1287.879,541.9Zm-18.259,7.036q8.724-3.8,17.71-6.851-16.121-13.268-32.527-27.429a168.233,168.233,0,0,0-17.738,5.482Q1253.485,534.98,1269.619,548.937Zm-18.449,9q8.836-4.782,17.948-8.778-16.143-13.962-32.578-28.826a180.279,180.279,0,0,0-17.772,7.781Q1235.113,543.473,1251.17,557.933Zm-18.317,10.9q8.8-5.7,17.861-10.655-16.059-14.474-32.406-29.834a201.239,201.239,0,0,0-17.488,10.013Q1216.981,554.044,1232.854,568.838ZM1214.77,581.51q8.7-6.567,17.659-12.4-15.878-14.811-32.031-30.481-8.7,5.586-17.071,12.1Q1199.184,566.545,1214.77,581.51Zm-17.757,14.353q8.556-7.365,17.358-14.057-15.576-14.959-31.428-30.767-8.444,6.6-16.568,14.08C1176.667,575.614,1186.895,585.907,1197.013,595.863Zm-17.376,15.845q8.382-8.081,17-15.524c-10.114-9.953-20.338-20.244-30.627-30.737q-8.185,7.539-16.077,15.884Q1164.9,596.879,1179.637,611.708Zm-17.007,17.252q8.219-8.738,16.651-16.916-14.709-14.778-29.679-30.354-7.933,8.405-15.59,17.563Q1148.44,614.469,1162.63,628.961Zm-16.706,18.548q8.081-9.356,16.372-18.191-14.191-14.508-28.6-29.689-7.694,9.2-15.134,19.078Q1132.351,633.44,1145.924,647.508Zm-16.354,19.669q7.924-9.871,16.035-19.3-13.569-14.082-27.34-28.779-7.45,9.891-14.674,20.377Q1116.672,653.6,1129.571,667.177Zm-16.089,20.692q7.805-10.345,15.78-20.308-12.881-13.54-25.956-27.674-7.26,10.547-14.311,21.623Q1101.319,674.94,1113.482,687.869ZM1097.6,709.492q7.715-10.774,15.585-21.227-12.147-12.907-24.46-26.329-7.1,11.145-14.027,22.735C1082.384,693.109,1090.009,701.351,1097.6,709.492ZM810.29,1060.87q-4.942,1.918-9.962,3.49,1.476,12.367,2.83,24.551,4.678-2.037,9.26-4.432Q811.412,1072.763,810.29,1060.87Zm10.117-4.315q-4.793,2.237-9.664,4.141,1.118,11.856,2.125,23.544c3.012-1.586,6-3.266,8.951-5.081Q821.171,1067.948,820.407,1056.555Zm9.837-4.951c-3.1,1.69-6.232,3.255-9.381,4.734q.759,11.348,1.41,22.532,4.37-2.71,8.657-5.743Q830.639,1062.457,830.244,1051.6Zm9.574-5.6q-4.526,2.809-9.113,5.336.393,10.818.686,21.465,4.232-3.009,8.383-6.325Q839.847,1056.335,839.818,1046.007Zm9.336-6.143q-4.405,3.059-8.867,5.856.028,10.278-.04,20.386,4.1-3.277,8.132-6.824Q848.815,1049.665,849.154,1039.864Zm9.112-6.631c-2.857,2.189-5.737,4.277-8.629,6.3q-.339,9.74-.767,19.312,3.976-3.534,7.888-7.324Q857.555,1042.462,858.266,1033.233Zm8.908-7.143q-4.178,3.489-8.4,6.748-.707,9.181-1.5,18.186c2.574-2.51,5.123-5.116,7.658-7.787Q866.092,1034.748,867.174,1026.09Zm8.709-7.567q-4.068,3.666-8.177,7.128-1.068,8.585-2.217,17,3.739-3.959,7.425-8.132Q874.437,1026.607,875.883,1018.523Zm8.516-7.931c-2.632,2.544-5.282,5-7.942,7.41q-1.426,7.976-2.924,15.8,3.621-4.14,7.19-8.483Q882.595,1018.036,884.4,1010.592Zm8.344-8.338q-3.835,3.939-7.7,7.71-1.773,7.324-3.605,14.5,3.5-4.281,6.948-8.755Q890.591,1009.058,892.743,1002.255Zm8.113-8.558q-3.672,3.986-7.378,7.8-2.083,6.606-4.218,13.064,3.323-4.324,6.612-8.8Q898.387,999.8,900.856,993.7Zm7.809-8.69q-3.432,3.907-6.888,7.681-2.313,5.741-4.665,11.36,3.111-4.3,6.19-8.73Q906,990.224,908.665,985.006Zm6.831-7.919q-2.773,3.285-5.564,6.485-2.18,4.293-4.385,8.508Q910.564,984.759,915.5,977.087ZM1357.357,558.98q6.262-1.519,12.625-2.735-18.371-11.271-37.088-23.606c-3.755.38-7.472.877-11.161,1.458Q1339.707,547.033,1357.357,558.98Zm-16.514,4.559q7.849-2.444,15.866-4.4-17.668-11.947-35.677-24.941c-5.108.824-10.148,1.852-15.132,3.046Q1323.537,550.9,1340.843,563.538Zm-18.089,6.327q8.655-3.359,17.509-6.139-17.33-12.68-34.978-26.331-8.6,2.087-16.95,4.881Q1305.7,556.557,1322.754,569.865Zm-18.8,8.057q9.029-4.228,18.269-7.846-17.056-13.311-34.439-27.614-9.005,3.031-17.746,6.841Q1287.155,564.092,1303.956,577.922Zm-19.073,9.712q9.18-5.052,18.581-9.479-16.8-13.83-33.925-28.636-9.123,3.993-17.975,8.77Q1268.376,573.431,1284.882,587.634Zm-19.108,11.287q9.215-5.824,18.647-11.036-16.5-14.2-33.316-29.349-9.078,4.927-17.879,10.65Q1249.648,584.5,1265.774,598.921Zm-18.981,12.774q9.17-6.535,18.552-12.5-16.117-14.4-32.541-29.735-8.967,5.827-17.671,12.4C1225.775,592.074,1236.341,602.057,1246.793,611.695Zm-18.751,14.1q9.068-7.175,18.344-13.81c-10.45-9.635-21.012-19.616-31.651-29.83q-8.815,6.67-17.368,14.054Q1212.844,611.431,1228.042,625.794Zm-18.56,15.385q8.988-7.787,18.173-15.077-15.205-14.408-30.66-29.573-8.627,7.442-17.012,15.528Q1194.854,626.992,1209.482,641.18ZM1191.173,657.7q8.875-8.318,17.935-16.2-14.616-14.175-29.481-29.105-8.442,8.153-16.653,16.914Q1177.18,643.831,1191.173,657.7Zm-18.089,17.551q8.78-8.8,17.732-17.215-13.973-13.824-28.178-28.367-8.292,8.83-16.373,18.191Q1159.781,661.88,1173.084,675.249Zm-17.9,18.5q8.7-9.247,17.552-18.155-13.3-13.391-26.794-27.367-8.116,9.414-16.038,19.3Q1142.635,680.907,1155.188,693.752Zm-17.7,19.307q8.61-9.615,17.368-18.953-12.534-12.812-25.253-26.19-7.979,9.952-15.781,20.31Q1125.729,700.876,1137.484,713.059Zm-17.589,20.05q8.566-9.953,17.261-19.684-11.738-12.158-23.636-24.8-7.87,10.448-15.587,21.233C1105.3,717.756,1112.615,725.479,1119.9,733.109ZM807.863,1036.118c-3.551.956-7.118,1.809-10.71,2.53q1.6,12.654,3.112,25.167,5.025-1.567,9.971-3.5Q809.1,1048.294,807.863,1036.118Zm10.864-3.3q-5.173,1.75-10.4,3.177,1.24,12.152,2.37,24.144,4.875-1.915,9.678-4.158Q819.6,1044.484,818.726,1032.821Zm10.594-3.926q-5.038,2.045-10.134,3.769.871,11.63,1.639,23.1c3.154-1.485,6.289-3.057,9.4-4.755Q829.822,1040.038,829.32,1028.895Zm10.341-4.525q-4.915,2.311-9.878,4.332.5,11.1.9,22.049,4.6-2.532,9.133-5.36Q839.787,1034.963,839.662,1024.37Zm10.109-5.086c-3.2,1.706-6.411,3.341-9.641,4.872q.125,10.553.158,20.948,4.473-2.8,8.889-5.888Q849.52,1029.332,849.771,1019.284Zm9.9-5.568q-4.692,2.781-9.422,5.314-.252,10-.589,19.849c2.9-2.033,5.794-4.138,8.662-6.342Q859.036,1023.206,859.67,1013.716Zm9.695-6.025q-4.583,2.983-9.2,5.728-.629,9.439-1.338,18.723,4.246-3.279,8.444-6.8Q868.355,1016.6,869.365,1007.692Zm9.518-6.477c-2.993,2.114-5.993,4.177-9.006,6.15q-1,8.845-2.078,17.544,4.139-3.486,8.23-7.2Q877.491,1009.538,878.883,1001.215Zm9.336-6.833q-4.38,3.327-8.793,6.449-1.377,8.252-2.821,16.353,4.029-3.661,8.018-7.515Q886.452,1002.1,888.219,994.382Zm9.176-7.205q-4.281,3.465-8.585,6.75-1.744,7.628-3.548,15.11,3.926-3.829,7.814-7.843Q895.263,994.261,897.4,987.177Zm9-7.5q-4.163,3.57-8.349,6.98-2.093,6.964-4.238,13.79,3.8-3.946,7.576-8.069Q903.914,986.1,906.4,979.673Zm8.794-7.722q-4,3.607-8.027,7.061-2.408,6.242-4.858,12.352,3.643-3.991,7.257-8.127Q912.4,977.661,915.192,971.951Zm8.483-7.829c-2.507,2.361-5.017,4.7-7.532,6.977q-2.626,5.379-5.283,10.642,3.4-3.928,6.769-7.982Q920.664,969,923.675,964.122Zm7.544-7.236q-3.093,3.02-6.194,5.959-2.485,4.049-4.985,8.023Q925.658,964.043,931.22,956.886Zm480.4-376.731q4.751-1.184,9.544-2.236-21.531-10.586-43.517-22.52-3.165.507-6.306,1.09Q1391.685,568.942,1411.617,580.155Zm-15.337,4.2q7.267-2.166,14.631-4.025-19.942-11.244-40.291-23.7-6.4,1.208-12.7,2.728Q1377.3,572.439,1396.281,584.352Zm-17.836,5.829q8.535-3.033,17.212-5.638-19-11.932-38.383-25.024-8.041,1.958-15.922,4.392Q1360.081,577.6,1378.444,590.181Zm-19.154,7.393q9.208-3.832,18.577-7.185-18.359-12.573-37.106-26.3-8.875,2.774-17.55,6.133Q1341.427,584.423,1359.29,597.574Zm-19.776,8.841q9.534-4.562,19.245-8.62-17.849-13.115-36.078-27.363-9.26,3.6-18.3,7.84Q1322.119,592.86,1339.514,606.414Zm-20.068,10.229q9.7-5.242,19.568-9.993-17.386-13.546-35.125-28.145-9.413,4.418-18.6,9.475Q1302.53,602.808,1319.446,616.643Zm-20.2,11.525q9.775-5.879,19.731-11.27-16.909-13.83-34.155-28.665-9.442,5.2-18.663,11.029Q1282.854,614.169,1299.248,628.168Zm-20.1,12.693q9.744-6.433,19.656-12.423-16.373-13.958-33.072-28.9-9.394,5.949-18.567,12.5C1257.927,621.959,1268.577,631.53,1279.146,640.861Zm-20.06,13.808q9.735-6.972,19.637-13.528c-10.565-9.328-21.208-18.9-31.968-28.811q-9.28,6.627-18.353,13.808Q1243.872,640.789,1259.086,654.669Zm-19.9,14.777q9.666-7.432,19.493-14.483c-10.123-9.217-20.357-18.757-30.662-28.518q-9.19,7.281-18.178,15.077Q1224.638,655.868,1239.185,669.446Zm-19.816,15.724q9.633-7.875,19.424-15.419-14.545-13.593-29.329-27.908-9.067,7.866-17.943,16.2C1200.871,667.3,1210.166,676.372,1219.369,685.17Zm-19.634,16.493q9.556-8.23,19.25-16.18c-9.193-8.791-18.48-17.862-27.822-27.1q-8.955,8.4-17.733,17.215Q1186.683,688.932,1199.735,701.663Zm-19.584,17.264q9.538-8.59,19.212-16.945-13.041-12.726-26.278-26.04-8.861,8.9-17.558,18.159Q1167.923,706.768,1180.151,718.927Zm-19.467,17.865q9.49-8.861,19.1-17.538-12.21-12.13-24.6-24.8-8.76,9.324-17.369,18.953Q1149.324,725.319,1160.685,736.792Zm-19.43,18.42q9.479-9.108,19.072-18.085-11.337-11.444-22.829-23.353-8.7,9.725-17.265,19.689Q1130.81,744.542,1141.254,755.212Zm-336.066,255.6q-5.712.934-11.465,1.53,1.733,12.958,3.363,25.779c3.595-.723,7.167-1.577,10.721-2.535Q806.548,1023.272,805.188,1010.811Zm11.633-2.244q-5.564,1.245-11.168,2.171,1.356,12.431,2.613,24.726,5.238-1.428,10.42-3.187Q817.8,1020.494,816.821,1008.566Zm11.368-2.859c-3.622,1.024-7.26,1.93-10.9,2.754q.978,11.9,1.86,23.659,5.1-1.741,10.152-3.781Q828.79,1017.1,828.19,1005.707Zm11.122-3.462q-5.315,1.8-10.658,3.324.6,11.358,1.1,22.575,4.971-2.034,9.9-4.349Q839.529,1013.1,839.312,1002.245Zm10.9-3.987q-5.2,2.039-10.429,3.834.214,10.815.344,21.49c3.236-1.537,6.455-3.182,9.661-4.9Q850.039,1008.546,850.209,998.258Zm10.692-4.45c-3.4,1.506-6.8,2.919-10.218,4.264q-.17,10.252-.421,20.362,4.744-2.548,9.448-5.344Q860.345,1003.524,860.9,993.808Zm10.5-4.917q-5,2.458-10.02,4.7-.555,9.671-1.184,19.2,4.636-2.768,9.236-5.759Q870.457,998.035,871.406,988.891Zm10.328-5.325q-4.9,2.639-9.828,5.082-.942,9.1-1.955,18.055c3.029-1.987,6.042-4.065,9.048-6.2Q880.4,992.11,881.734,983.566Zm10.163-5.674c-3.206,1.867-6.42,3.654-9.638,5.391q-1.327,8.491-2.717,16.843,4.442-3.16,8.854-6.516Q890.175,985.82,891.9,977.891Zm10.015-6.058c-3.149,1.963-6.3,3.882-9.458,5.73q-1.705,7.865-3.467,15.59,4.345-3.324,8.664-6.827Q899.808,979.149,901.912,971.833Zm9.856-6.33q-4.62,3.062-9.253,5.955Q900.433,978.7,898.3,985.8c2.835-2.312,5.658-4.694,8.477-7.118Q909.3,972.16,911.768,965.5Zm9.708-6.624q-4.509,3.156-9.029,6.167-2.431,6.552-4.9,12.978c2.75-2.372,5.494-4.784,8.229-7.262Q918.643,964.884,921.476,958.879Zm9.489-6.8q-4.348,3.189-8.7,6.247-2.749,5.833-5.529,11.548,3.975-3.62,7.928-7.373Q927.828,957.351,930.965,952.083Zm9.217-6.915q-4.1,3.134-8.2,6.161-2.971,5-5.966,9.9,3.718-3.547,7.426-7.212Q936.819,949.638,940.182,945.167Zm8.163-6.344q-3.381,2.676-6.765,5.277-2.744,3.674-5.5,7.283Q942.228,945.243,948.345,938.823ZM1476.278,602.68q20.043,4.94,39.772,9.026c-29.8-9.16-60.221-19.925-91.28-32.589Q1450.85,591.832,1476.278,602.68Zm-20.842,1.006q5.807-1.712,11.656-3.279l.055-.015.057.015q3.021.771,6.027,1.517-25.347-10.912-51.346-23.654-4.838,1.05-9.628,2.243Q1434.087,592.794,1455.436,603.686Zm-17.724,5.6q8.466-2.852,17.027-5.4-21.346-10.9-43.188-23.206-7.406,1.851-14.71,4.02Q1417.507,597.662,1437.712,609.289Zm-19.615,7.057q9.432-3.6,18.982-6.845-20.206-11.656-40.866-24.605-8.7,2.6-17.259,5.631Q1398.74,604.059,1418.1,616.346Zm-20.6,8.346q9.947-4.261,20.026-8.126-19.357-12.3-39.143-25.831-9.391,3.342-18.616,7.181Q1378.839,611.915,1397.5,624.692Zm-21.171,9.563q10.248-4.864,20.63-9.332-18.667-12.823-37.727-26.783-9.724,4.056-19.277,8.619Q1358.326,621.058,1376.326,634.255Zm-21.388,10.628q10.37-5.383,20.878-10.385-17.986-13.179-36.363-27.5-9.886,4.737-19.591,9.989Q1337.579,631.457,1354.938,644.882Zm-21.557,11.657q10.468-5.884,21.076-11.406-17.353-13.42-35.062-27.9-9.96,5.392-19.744,11.271Q1316.682,643.015,1333.381,656.539Zm-21.533,12.541q10.467-6.305,21.072-12.28-16.691-13.521-33.718-28.026-9.924,5.977-19.67,12.426Q1295.842,655.593,1311.848,669.08Zm-21.54,13.39q10.479-6.709,21.095-13.12-16-13.476-32.3-27.87-9.908,6.548-19.644,13.527Q1275.028,669.168,1290.308,682.47Zm-21.528,14.158q10.484-7.072,21.1-13.881-15.278-13.323-30.824-27.445-9.833,7.05-19.5,14.485C1249.368,678.959,1259.129,687.956,1268.78,696.628Zm-21.425,14.792q10.441-7.365,21-14.506c-9.641-8.665-19.392-17.658-29.2-26.823q-9.792,7.536-19.427,15.421C1229.019,694.39,1238.215,702.984,1247.355,711.42Zm-21.421,15.409q10.446-7.652,21.011-15.12c-9.131-8.428-18.319-17.015-27.6-25.885q-9.7,7.937-19.256,16.183Q1213.107,714.7,1225.933,726.829ZM1204.5,742.781q10.459-7.9,21.032-15.657-12.808-12.1-25.815-24.8-9.68,8.348-19.219,16.948Q1192.579,731.272,1204.5,742.781Zm-21.4,16.36q10.444-8.077,21-16.062-11.9-11.482-23.968-23.477-9.617,8.665-19.1,17.537Q1172.134,748.343,1183.1,759.141Zm-21.436,16.728q10.47-8.236,21.044-16.426-10.946-10.764-22.039-21.97-9.6,8.968-19.078,18.09Q1151.691,765.892,1161.667,775.87ZM802.279,984.97q-6.107.408-12.232.487,1.855,13.245,3.606,26.362,5.762-.591,11.479-1.53Q803.757,997.7,802.279,984.97Zm12.424-1.153c-3.98.483-7.964.845-11.954,1.118q1.469,12.7,2.848,25.279,5.609-.929,11.181-2.174Q815.788,995.992,814.7,983.817Zm12.155-1.806c-3.891.671-7.787,1.261-11.688,1.742q1.081,12.154,2.072,24.179c3.651-.825,7.292-1.733,10.92-2.762Q827.554,993.659,826.857,982.011Zm11.922-2.35q-5.723,1.264-11.453,2.273.691,11.611,1.3,23.1,5.351-1.528,10.675-3.335Q839.081,990.748,838.779,979.661Zm11.7-2.837c-3.741,1-7.486,1.9-11.234,2.733q.3,11.057.522,21.989,5.238-1.789,10.449-3.849Q850.389,987.327,850.483,976.824Zm11.5-3.343q-5.51,1.715-11.03,3.21-.091,10.474-.261,20.821,5.131-2.027,10.241-4.284Q861.5,983.421,861.985,973.481Zm11.321-3.752q-5.417,1.907-10.842,3.6-.487,9.9-1.045,19.672,5.035-2.249,10.05-4.718Q872.42,979.076,873.307,969.729Zm11.154-4.142q-5.33,2.086-10.662,3.966-.883,9.308-1.828,18.492,4.942-2.45,9.865-5.115Q883.177,974.326,884.46,965.587Zm11-4.521c-3.5,1.5-7,2.951-10.5,4.327q-1.276,8.689-2.607,17.254c3.234-1.75,6.462-3.549,9.683-5.43Q893.781,969.206,895.463,961.066Zm10.847-4.822q-5.157,2.39-10.317,4.593-1.67,8.088-3.394,16.049,4.768-2.8,9.522-5.78Q904.239,963.738,906.31,956.244Zm10.72-5.159c-3.385,1.68-6.769,3.324-10.154,4.9q-2.055,7.432-4.152,14.748,4.679-2.939,9.345-6.039Q914.569,957.952,917.03,951.085Zm10.57-5.392q-4.977,2.623-9.953,5.086-2.431,6.788-4.9,13.459,4.585-3.061,9.159-6.271Q924.77,951.89,927.6,945.693Zm10.422-5.657q-4.866,2.7-9.73,5.29-2.785,6.1-5.6,12.094,4.476-3.158,8.942-6.456Q934.841,945.56,938.022,940.036Zm10.229-5.811q-4.707,2.74-9.408,5.354-3.092,5.369-6.2,10.64,4.311-3.192,8.617-6.5Q944.761,939.025,948.251,934.225Zm9.916-5.9q-4.438,2.694-8.875,5.3-3.3,4.554-6.621,9.01,4.081-3.161,8.157-6.432Q954.5,932.307,958.167,928.32Zm8.919-5.506q-3.7,2.321-7.4,4.577-3.059,3.34-6.125,6.614Q960.328,928.539,967.087,922.814Zm602.436-296.681q16.732.518,33.283.666c-25.013-3.26-50.422-7.342-76.238-12.443Q1548.262,620.785,1569.523,626.134Zm-38.282-1.7q18.062,1.056,35.917,1.63-22.735-5.785-45.968-12.785-20.844-4.225-42.037-9.376Q1505.54,615.082,1531.241,624.429Zm-28.952,1.838q4.753-1.581,9.526-3.1l.04-.013.043,0q8.823.649,17.6,1.171-26.329-9.644-53.374-21.167-4.477-1.1-8.971-2.249-5.55,1.486-11.059,3.109Q1479.476,615.929,1502.289,626.267Zm-20.568,7.18q9.894-3.613,19.866-6.948-22.812-10.366-46.195-22.277-8.6,2.541-17.094,5.4Q1460.273,622.271,1481.721,633.447Zm-21.829,8.339q10.552-4.2,21.2-8.106-21.451-11.209-43.424-23.847-9.586,3.233-19.046,6.848Q1439.5,629.925,1459.893,641.786Zm-22.468,9.322q10.894-4.694,21.884-9.088-20.388-11.88-41.264-25.118-10.1,3.863-20.059,8.128Q1417.931,638.707,1437.424,651.107Zm-22.849,10.206q11.1-5.13,22.3-9.968-19.483-12.4-39.426-26.09-10.4,4.462-20.657,9.332Q1395.9,648.574,1414.576,661.314ZM1391.5,672.319q11.224-5.515,22.549-10.764-18.684-12.781-37.775-26.724-10.521,5-20.9,10.388Q1373.628,659.325,1391.5,672.319Zm-23.2,11.725q11.3-5.861,22.7-11.478-17.86-12.987-36.111-27.1-10.618,5.518-21.1,11.408Q1351.226,670.986,1368.3,684.044Zm-23.245,12.35q11.33-6.159,22.761-12.1-17.065-13.071-34.483-27.159-10.61,5.971-21.082,12.281Q1328.806,683.359,1345.053,696.394Zm-23.264,12.912q11.345-6.418,22.791-12.656-16.221-12.993-32.776-26.963-10.621,6.4-21.11,13.122Q1306.388,696.483,1321.79,709.306Zm-23.307,13.416q11.373-6.655,22.847-13.156-15.388-12.818-31.065-26.481-10.616,6.8-21.1,13.881C1279.028,705.827,1288.786,714.367,1298.483,722.723Zm-23.345,13.865q11.4-6.858,22.9-13.6c-9.687-8.351-19.435-16.882-29.292-25.734q-10.572,7.134-21.013,14.508Q1261.542,724.5,1275.137,736.588Zm-23.4,14.243q11.431-7.029,22.959-13.977-13.578-12.07-27.378-24.8-10.57,7.462-21.022,15.122Q1239.108,739.272,1251.737,750.83Zm-23.471,14.559q11.47-7.17,23.037-14.292-12.6-11.514-25.407-23.629-10.581,7.752-21.042,15.661Q1216.641,754.5,1228.266,765.39Zm-23.517,14.781q11.5-7.258,23.087-14.512-11.606-10.872-23.376-22.231-10.557,7.976-21,16.061Q1194.165,770.013,1204.748,780.171Zm-23.634,14.956q11.555-7.323,23.206-14.687-10.556-10.111-21.254-20.651-10.576,8.185-21.049,16.43C1168.415,782.617,1174.786,788.942,1181.115,795.127ZM799.147,958.591c-4.345-.081-8.687-.243-13.024-.533q1.969,13.487,3.851,26.882,6.131-.078,12.244-.484Q800.73,971.58,799.147,958.591Zm13.227-.069q-6.383.182-12.751.081,1.575,12.959,3.067,25.818c3.994-.272,7.983-.636,11.966-1.118Q813.559,970.967,812.375,958.521Zm12.966-.647c-4.168.308-8.332.507-12.494.631q1.182,12.42,2.277,24.731c3.906-.482,7.807-1.074,11.7-1.746Q826.126,969.74,825.34,957.875Zm12.736-1.232c-4.092.474-8.182.886-12.266,1.2q.781,11.842,1.484,23.575,5.739-1,11.47-2.278Q838.46,967.945,838.077,956.643Zm12.523-1.7q-6.033.94-12.052,1.64.383,11.276.687,22.442c3.754-.835,7.5-1.74,11.254-2.742Q850.58,965.678,850.6,954.947Zm12.331-2.161q-5.937,1.148-11.859,2.082-.022,10.7-.111,21.287,5.531-1.492,11.051-3.22Q862.505,962.92,862.931,952.786Zm12.152-2.567q-5.843,1.339-11.676,2.478-.425,10.1-.915,20.091,5.437-1.7,10.868-3.622Q874.252,959.751,875.083,950.219Zm11.993-2.945q-5.76,1.51-11.508,2.831-.828,9.5-1.718,18.887,5.35-1.894,10.7-3.983Q885.837,956.2,887.076,947.273Zm11.843-3.295q-5.679,1.667-11.347,3.167-1.233,8.89-2.519,17.668c3.512-1.384,7.023-2.847,10.536-4.353Q897.277,952.276,898.919,943.979Zm11.7-3.614q-5.6,1.81-11.188,3.46-1.633,8.26-3.315,16.407c3.457-1.489,6.912-3.02,10.369-4.624Q908.576,948.042,910.622,940.365Zm11.568-3.9q-5.523,1.937-11.03,3.725-2.034,7.626-4.1,15.145c3.408-1.589,6.814-3.244,10.221-4.938Q919.75,943.49,922.189,936.469Zm11.447-4.18q-5.442,2.055-10.871,3.973-2.42,6.972-4.873,13.832,5.024-2.505,10.049-5.149Q930.8,938.672,933.637,932.289Zm11.3-4.387q-5.342,2.147-10.673,4.152-2.8,6.312-5.627,12.517,4.937-2.621,9.873-5.381Q941.732,933.593,944.937,927.9Zm11.172-4.632q-5.235,2.224-10.456,4.342-3.15,5.614-6.32,11.12,4.821-2.7,9.648-5.507Q952.552,928.3,956.109,923.27Zm10.981-4.778q-5.072,2.263-10.132,4.417-3.452,4.886-6.916,9.687,4.677-2.752,9.361-5.614Q963.25,922.784,967.089,918.492Zm10.6-4.821q-4.768,2.218-9.525,4.343-3.626,4.058-7.254,8.044,4.373-2.68,8.754-5.451Q973.679,917.18,977.693,913.672Zm9.512-4.511q-3.941,1.9-7.874,3.738-3.326,2.919-6.65,5.78Q979.936,914.031,987.205,909.16ZM1647.92,631.366q14.24-2.438,28.384-4.924c-21.459.66-43.166,1.006-65.117.916Q1629.7,629.643,1647.92,631.366Zm-32.13,5.387q15.174-2.487,30.246-5.067-19.384-1.866-39.093-4.351-17.463-.118-35.132-.626Q1594.035,632.262,1615.79,636.753Zm-32.452,5.166q15.589-2.4,31.074-4.941-22.233-4.632-44.95-10.342-18.178-.563-36.574-1.606Q1558.445,634.3,1583.338,641.918Zm-31.032,5.561q2.116-.781,4.235-1.553l.02-.008.023,0q12.842-1.853,25.619-3.823-25.192-7.762-51.06-17.164-9.587-.561-19.234-1.266-4.482,1.422-8.945,2.909Q1527.97,637.9,1552.306,647.48Zm-23.82,9.033q11.533-4.5,23.116-8.774-24.338-9.622-49.338-20.934-10.013,3.332-19.943,6.958Q1505.707,645.947,1528.485,656.513Zm-24.4,9.764q11.85-4.862,23.752-9.512-22.772-10.59-46.152-22.773-10.672,3.9-21.25,8.115Q1482.545,654.964,1504.087,666.277Zm-24.734,10.381q12.034-5.163,24.128-10.132-21.539-11.354-43.629-24.186-11.007,4.392-21.916,9.091Q1458.9,664.746,1479.354,676.658Zm-24.934,10.914q12.151-5.421,24.36-10.669-20.437-11.909-41.4-25.233-11.214,4.838-22.328,9.973Q1434.966,675.242,1454.419,687.571Zm-25.064,11.374q12.227-5.64,24.515-11.13-19.429-12.3-39.34-25.933-11.341,5.244-22.575,10.767Q1410.86,686.38,1429.355,698.945ZM1404.2,710.72q12.281-5.827,24.625-11.533-18.465-12.525-37.373-26.291-11.414,5.612-22.722,11.483Q1386.657,698.1,1404.2,710.72Zm-25.231,12.12q12.327-5.989,24.721-11.878-17.528-12.618-35.445-26.332-11.435,5.936-22.77,12.1Q1362.39,710.265,1378.971,722.84Zm-25.306,12.415q12.37-6.121,24.808-12.174-16.56-12.547-33.47-26.1-11.455,6.23-22.806,12.66C1332.78,718.453,1343.284,727.031,1353.665,735.255Zm-25.386,12.656q12.413-6.227,24.9-12.414c-10.372-8.221-20.866-16.788-31.439-25.591q-11.478,6.5-22.859,13.16C1308.757,731.577,1318.576,739.911,1328.28,747.911ZM1302.8,760.759q12.463-6.31,25-12.607c-9.693-7.995-19.5-16.32-29.369-24.823q-11.5,6.735-22.907,13.6C1284.681,745.069,1293.791,753.064,1302.8,760.759Zm-25.589,12.989q12.519-6.364,25.115-12.749c-9-7.688-18.1-15.673-27.243-23.8q-11.535,6.943-22.969,13.982C1260.536,758.872,1268.914,766.427,1277.21,773.748ZM795.8,931.693c-4.624-.451-9.24-.965-13.836-1.61q2.083,13.765,4.083,27.453c4.342.291,8.688.458,13.036.539Q797.483,944.931,795.8,931.693Zm14.053,1.081q-6.809-.374-13.572-1.033,1.68,13.216,3.278,26.346,6.377.109,12.765-.077Q811.128,945.439,809.854,932.774Zm13.789.466c-4.45-.069-8.889-.21-13.314-.446q1.273,12.646,2.469,25.2c4.166-.125,8.335-.323,12.509-.631Q824.512,945.349,823.643,933.24Zm13.57-.032q-6.567.139-13.1.041.865,12.082,1.659,24.078c4.091-.309,8.186-.724,12.283-1.2Q837.673,944.718,837.213,933.208Zm13.359-.534q-6.461.361-12.887.519.457,11.484.845,22.881,6.028-.709,12.069-1.645Q850.62,943.6,850.572,932.674Zm13.173-.933c-4.245.375-8.478.667-12.7.908q.045,10.9.027,21.7,5.934-.936,11.88-2.091Q863.379,942.052,863.745,931.741Zm13-1.373c-4.186.5-8.364.95-12.528,1.326q-.367,10.286-.791,20.477,5.846-1.139,11.7-2.486Q875.968,940.077,876.748,930.368Zm12.842-1.705q-6.2.915-12.364,1.646-.78,9.678-1.611,19.261,5.761-1.328,11.535-2.842Q888.4,937.745,889.59,928.662Zm12.7-2.048q-6.118,1.066-12.208,1.98-1.191,9.051-2.429,18.005,5.683-1.5,11.383-3.184Q900.681,935.067,902.285,926.615Zm12.562-2.365q-6.045,1.21-12.062,2.274-1.6,8.418-3.242,16.738,5.609-1.66,11.233-3.478Q912.831,932.068,914.848,924.25Zm12.428-2.626q-5.971,1.336-11.911,2.522-2.006,7.781-4.05,15.466,5.538-1.8,11.087-3.756Q924.855,928.79,927.275,921.624Zm12.306-2.895q-5.894,1.452-11.763,2.777-2.407,7.12-4.84,14.145,5.465-1.932,10.945-4.008Q936.764,925.236,939.581,918.729Zm12.183-3.142q-5.81,1.555-11.6,2.994-2.8,6.459-5.617,12.824,5.383-2.041,10.779-4.2Q948.556,921.448,951.764,915.588Zm12.064-3.345q-5.721,1.643-11.42,3.171-3.172,5.792-6.364,11.493,5.3-2.144,10.615-4.417Q960.251,917.41,963.828,912.242Zm11.9-3.523q-5.6,1.713-11.168,3.313-3.523,5.095-7.055,10.095,5.186-2.216,10.388-4.54Q971.817,913.2,975.732,908.72Zm11.72-3.693q-5.431,1.756-10.839,3.426-3.816,4.372-7.638,8.656,5.042-2.269,10.1-4.643Q983.264,908.791,987.453,905.027Zm11.386-3.779q-5.125,1.738-10.23,3.4-3.961,3.56-7.919,7.058,4.749-2.239,9.511-4.556Q994.515,904.233,998.838,901.248Zm10.131-3.507q-4.225,1.489-8.432,2.926-3.621,2.514-7.233,4.975Q1001.119,901.8,1008.969,897.741Zm242.524-110.919q8.7-4.42,17.442-8.866l7.805-3.969c-8.283-7.311-16.65-14.859-25.06-22.541q-11.573,7.12-23.044,14.3Q1240.142,776.514,1251.493,786.822Zm-25.876,13.108q12.661-6.388,25.4-12.868-11.33-10.3-22.816-21.052-11.592,7.247-23.088,14.511C1211.987,787.1,1218.831,793.6,1225.617,799.93Zm-26.068,13.084q12.756-6.36,25.6-12.846c-6.772-6.319-13.6-12.81-20.459-19.376q-11.652,7.357-23.21,14.69C1187.525,801.393,1193.568,807.3,1199.549,813.013ZM1715.38,624.406q12.323-4.468,24.617-8.769l-15.9,2.835q-20.253,3.613-40.72,7.235Q1699.472,625.162,1715.38,624.406Zm-27.566,10.172q13-4.891,25.968-9.592-16.863.783-33.935,1.343-14.944,2.63-30,5.216Q1668.989,633.334,1687.814,634.578Zm-27.42,10.5q13.158-5.111,26.294-10.076-19.211-1.3-38.749-3.135-15.338,2.624-30.782,5.166Q1639.006,641.536,1660.394,645.082Zm-27.411,10.78q13.26-5.291,26.5-10.424-21.613-3.616-43.7-8.174-15.618,2.558-31.345,4.995Q1609.025,649.779,1632.983,655.862Zm-27.318,11.04q13.271-5.415,26.532-10.724-24.131-6.168-48.9-13.746-13.279,2.046-26.628,3.979-1.836.669-3.669,1.344Q1579.726,658.282,1605.664,666.9Zm-27.338,11.252q13.315-5.535,26.624-10.961-25.937-8.667-52.652-19.178-11.618,4.281-23.183,8.79Q1554.074,668.376,1578.326,678.154ZM1551,689.6q13.332-5.622,26.662-11.174-24.244-9.813-49.2-21.371-11.929,4.651-23.8,9.523Q1528.156,678.93,1551,689.6Zm-27.334,11.591q13.354-5.693,26.713-11.328-22.838-10.694-46.32-23.036-12.111,4.968-24.167,10.141Q1502.076,689.867,1523.667,701.192Zm-27.365,11.72q13.38-5.751,26.77-11.467-21.586-11.354-43.751-24.232-12.225,5.246-24.391,10.675Q1475.885,701.126,1496.3,712.913Zm-27.39,11.8q13.4-5.783,26.818-11.552-20.414-11.812-41.349-25.023-12.3,5.49-24.539,11.137Q1449.624,712.668,1468.912,724.71ZM792.249,904.289q-7.376-1.246-14.671-2.748,2.191,14.039,4.308,28.016c4.6.646,9.219,1.167,13.849,1.619Q794.03,917.766,792.249,904.289Zm14.9,2.254c-4.831-.633-9.629-1.37-14.408-2.172q1.777,13.459,3.48,26.853c4.515.435,9.042.789,13.586,1.039Q808.508,919.44,807.144,906.544Zm14.637,1.64c-4.74-.454-9.462-.964-14.155-1.571q1.36,12.871,2.651,25.672c4.429.236,8.873.377,13.33.446Q822.729,920.5,821.781,908.183ZM836.2,909.33q-7-.45-13.942-1.1.943,12.289,1.822,24.509,6.538.1,13.112-.037Q836.73,921.055,836.2,909.33Zm14.218.7q-6.9-.235-13.742-.673.523,11.7.989,23.325c4.288-.1,8.592-.281,12.905-.522Q850.524,921.14,850.418,910.034Zm14.033.3c-4.542-.026-9.058-.129-13.561-.279q.1,11.08.152,22.084c4.23-.241,8.468-.534,12.722-.911Q864.133,920.822,864.451,910.333Zm13.863-.122c-4.48.093-8.946.144-13.39.123q-.317,10.463-.685,20.845c4.172-.375,8.357-.831,12.55-1.33Q877.576,920.072,878.314,910.212Zm13.706-.462q-6.642.3-13.232.45-.736,9.837-1.52,19.592,6.181-.741,12.391-1.654Q890.862,918.99,892.019,909.749Zm13.561-.777q-6.565.45-13.082.754-1.156,9.212-2.352,18.344,6.1-.909,12.241-1.989Q904,917.57,905.581,908.972Zm13.425-1.069q-6.491.589-12.937,1.035-1.571,8.568-3.181,17.051,6.033-1.064,12.1-2.285Q917.013,915.849,919.006,907.9Zm13.3-1.34q-6.42.715-12.8,1.295-1.985,7.913-4,15.743,5.967-1.2,11.96-2.537Q929.9,913.857,932.3,906.563Zm13.174-1.592q-6.348.831-12.653,1.535-2.4,7.261-4.814,14.437,5.9-1.33,11.827-2.8Q942.667,911.6,945.476,904.972Zm13.05-1.827q-6.271.938-12.5,1.757-2.792,6.59-5.6,13.094,5.827-1.448,11.681-3.024Q955.322,909.1,958.526,903.144Zm12.929-2.041q-6.187,1.031-12.339,1.958-3.176,5.911-6.368,11.739,5.755-1.55,11.536-3.213Q967.874,906.391,971.455,901.1Zm12.8-2.241q-6.091,1.118-12.15,2.135-3.544,5.226-7.092,10.38,5.659-1.636,11.343-3.375Q980.311,903.476,984.26,898.862Zm12.656-2.423q-5.963,1.188-11.894,2.279-3.883,4.537-7.768,9.006,5.551-1.715,11.126-3.531Q992.646,900.355,996.916,896.439Zm12.442-2.57q-5.766,1.234-11.5,2.376-4.163,3.823-8.321,7.568,5.391-1.762,10.8-3.611Q1004.842,897.077,1009.358,893.869Zm12.043-2.657q-5.413,1.228-10.8,2.384-4.285,3.046-8.564,6.026,5.08-1.747,10.18-3.568Q1016.8,893.667,1021.4,891.212Zm10.716-2.509q-4.432,1.059-8.853,2.077-3.851,2.062-7.693,4.081Q1023.818,891.88,1032.117,888.7ZM1441.431,736.58l5.281-2.282q10.814-4.673,21.643-9.348c-12.862-8.064-25.865-16.506-39.044-25.435q-12.357,5.7-24.646,11.538Q1423.267,724.422,1441.431,736.58Zm-27.562,11.9q13.494-5.818,27.017-11.663-18.164-12.193-36.735-25.518-12.4,5.887-24.736,11.883Q1396.831,736.361,1413.869,748.478ZM1386.25,760.35q13.526-5.8,27.088-11.644-17.029-12.134-34.422-25.285-12.444,6.048-24.822,12.177C1364.928,744.174,1375.632,752.384,1386.25,760.35Zm-27.752,11.84q13.592-5.771,27.228-11.615c-10.606-7.963-21.3-16.165-32.12-24.735q-12.49,6.182-24.909,12.419C1338.732,756.525,1348.647,764.448,1358.5,772.191Zm-27.909,11.771q13.67-5.726,27.388-11.55c-9.839-7.737-19.742-15.652-29.763-23.911q-12.54,6.293-25,12.608C1312.423,768.974,1321.531,776.539,1330.589,783.962ZM1302.5,795.625q13.755-5.662,27.57-11.447c-9.047-7.415-18.143-14.971-27.341-22.826q-12.6,6.377-25.116,12.749C1285.981,781.475,1294.265,788.616,1302.5,795.625Zm-28.288,11.515q13.853-5.575,27.773-11.3c-8.225-7-16.5-14.131-24.847-21.5l-8,4.071q-8.646,4.4-17.249,8.766Q1263.129,797.38,1274.216,807.14Zm-28.464,11.3q13.936-5.456,27.95-11.095-11.067-9.747-22.282-19.93-12.749,6.474-25.412,12.873Q1235.944,809.553,1245.753,818.442ZM1217.045,829.5q14.055-5.318,28.2-10.856c-6.534-5.938-13.093-11.95-19.7-18.114q-12.847,6.483-25.6,12.849C1205.676,818.86,1211.362,824.184,1217.045,829.5ZM707.786,258.16c-11.96-17.187-24.042-34.771-36.194-52.6-9.79,43.958,17.947,196.589,51.671,382.144,17.976,98.906,37.65,207.163,54.234,313.3q7.3,1.512,14.684,2.754c-12.2-92.315-26.834-186.546-40.481-274.424C726.342,466.072,704.393,324.732,707.786,258.16Zm36.833,52.425c-12.038-16.934-24.2-34.271-36.43-51.844-3.222,66.58,18.678,207.626,43.976,370.52,13.656,87.928,28.3,182.217,40.5,274.588,4.782.8,9.586,1.542,14.423,2.177-8.53-80.611-18.991-162.951-28.9-240.961C759.516,518.082,742.8,386.467,744.619,310.585Zm35.633,49.636c-11.633-16.013-23.383-32.4-35.2-49.028-1.7,75.845,14.98,207.175,33.608,353.805,9.915,78.052,20.382,160.436,28.914,241.1,4.7.609,9.426,1.122,14.172,1.58-5.428-70.571-12.389-142.695-19.067-211.881C789.785,562.266,777.955,439.684,780.251,360.221Zm34.123,46.5q-16.7-22.486-33.685-45.893c-2.208,79.391,9.6,201.7,22.456,334.914,6.682,69.217,13.647,141.372,19.073,211.975q6.946.659,13.96,1.1c-2.787-61.95-6.8-125.29-10.685-186.659C817.788,600.5,810.578,486.62,814.374,406.721Zm32.585,43.424q-15.945-20.991-32.149-42.832c-3.726,79.809,3.467,193.44,11.155,314.817,3.888,61.387,7.9,124.752,10.687,186.722q6.848.435,13.761.676c-.521-54.547-2.02-110.356-3.486-164.854C843.946,633.881,841.115,528.517,846.96,450.145Zm31.1,40.489q-15.227-19.609-30.678-39.932c-5.786,78.273-2.962,183.411.012,293.959,1.467,54.51,2.968,110.328,3.489,164.886,4.507.152,9.03.255,13.58.281,1.449-48.215,2.113-97.58,2.762-146.094C868.579,663.106,869.884,566.142,878.064,490.634Zm29.7,37.818q-14.536-18.307-29.281-37.288c-8.13,75.4-9.431,172.165-10.778,272.576-.651,48.513-1.314,97.874-2.762,146.088,4.45.021,8.924-.03,13.412-.123,3.2-42.815,5.762-86.688,8.292-130.032C891.956,688.73,897.134,600.116,907.761,528.452ZM936.127,563.8q-13.882-17.1-27.963-34.841c-10.579,71.56-15.748,159.993-21.047,250.747-2.531,43.329-5.092,87.187-8.29,129.99q6.6-.145,13.256-.453c4.8-38.267,9.08-77.52,13.33-116.475C914.315,711.144,923.072,630.861,936.127,563.8Zm27.107,33.046q-13.262-15.981-26.717-32.57c-13.01,66.966-21.75,147.093-30.635,228.55-4.245,38.926-8.525,78.152-13.318,116.394q6.53-.3,13.112-.757c6.328-34.489,12.233-69.925,18.115-105.217,10.069-60.412,20.066-120.4,31.988-174.484Q959.38,612.416,963.234,596.843Zm25.908,30.9q-12.676-14.943-25.53-30.451-3.818,15.4-7.373,31.58c-11.919,54.075-21.915,114.054-31.981,174.458-5.874,35.249-11.773,70.643-18.094,105.1q6.462-.453,12.973-1.043c7.879-31.416,15.41-63.765,22.935-96.087C956.917,747.532,971.737,683.889,989.142,627.743Zm24.771,28.857c-8.089-9.328-16.214-18.771-24.407-28.423-17.361,56.057-32.157,119.588-46.976,183.24-7.511,32.265-15.03,64.555-22.893,95.923q6.4-.588,12.839-1.305c9.56-28.994,18.833-58.941,28.125-88.947C977.678,761.939,994.822,706.6,1013.913,656.6Zm23.658,26.965c-7.725-8.717-15.483-17.538-23.3-26.552-19.052,49.925-36.167,105.172-53.216,160.233-9.269,29.932-18.519,59.806-28.055,88.735q6.333-.712,12.707-1.548c11.512-27.173,22.79-55.363,34.121-83.687C998.5,774.063,1017.32,727.021,1037.571,683.565Zm22.581,25.192q-11.056-12.209-22.236-24.8c-20.215,43.4-39.009,90.37-57.657,136.986-11.294,28.229-22.534,56.328-34.008,83.421q6.268-.828,12.57-1.771c13.926-25.916,27.668-52.969,41.513-80.231C1019.8,784.03,1039.477,745.3,1060.152,708.757Zm21.507,23.5q-10.522-11.376-21.167-23.128c-20.648,36.5-40.3,75.182-59.743,113.467-13.786,27.149-27.473,54.088-41.338,79.908q6.2-.935,12.431-1.98c17.067-25.185,34.013-51.717,51.138-78.542C1042.172,791.93,1061.589,761.521,1081.66,732.261Zm20.431,21.889c-6.655-7.045-13.363-14.253-20.095-21.526-20.05,29.233-39.451,59.616-58.623,89.645-17.035,26.682-33.892,53.078-50.87,78.148q6.123-1.031,12.279-2.166c21.346-24.949,42.654-51.606,64.265-78.649C1066.472,797.8,1084.094,775.749,1102.09,754.151Zm19.347,20.324c-6.293-6.526-12.647-13.236-19.01-19.97-17.988,21.587-35.6,43.628-53.02,65.424-21.474,26.872-42.65,53.362-63.861,78.176q6.032-1.117,12.1-2.329c27.412-25.185,54.934-52.7,82.965-80.725C1094.085,801.575,1107.681,787.982,1121.437,774.475Zm18.311,18.736c-5.971-6.07-11.941-12.129-17.973-18.38-13.76,13.511-27.362,27.106-40.844,40.587-27.82,27.816-55.142,55.129-82.349,80.164q5.9-1.187,11.831-2.46c36.41-25.884,73.231-55.219,110.914-85.247Q1130.5,800.564,1139.748,793.21Zm17.147,17.254q-8.363-8.334-16.8-16.9-9.278,7.372-18.483,14.713c-37.351,29.763-73.857,58.848-109.956,84.57q5.713-1.237,11.453-2.549C1066.808,866.894,1111.318,839.27,1156.9,810.464Zm15.89,15.777c-5.138-5.028-10.343-10.248-15.531-15.42-45.046,28.474-89.053,55.8-132.267,79.037q5.382-1.243,10.782-2.549C1080.461,870.077,1126.162,849.05,1172.786,826.241Zm14.734,14.2c-4.777-4.591-9.537-9.126-14.351-13.831-45.439,22.234-90,42.769-133.609,59.761C1087.68,874.494,1137.13,858.716,1187.52,840.44Zm-13.883-14.058c4.829,4.717,9.6,9.27,14.4,13.874q14.2-5.154,28.5-10.562c-5.669-5.3-11.339-10.611-17.068-16.081Q1186.506,820.074,1173.637,826.381Zm-15.959-15.829c5.2,5.187,10.421,10.418,15.576,15.459q12.866-6.3,25.826-12.765c-5.967-5.705-12-11.6-18.029-17.5l-2.363,1.5Q1168.143,803.932,1157.678,810.553Zm-17.2-17.295q8.463,8.6,16.841,16.938,10.528-6.654,21.129-13.379l2.241-1.421c-6.314-6.174-12.675-12.487-19.058-18.872Q1151,784.885,1140.478,793.258Zm-18.355-18.769c6.045,6.263,12.026,12.334,18.011,18.416q10.523-8.362,21.146-16.731-9.962-9.965-20.037-20.271Q1131.627,765.147,1122.123,774.489Zm-19.381-20.362c6.373,6.747,12.739,13.47,19.043,20.008q9.507-9.33,19.117-18.582-10.436-10.686-20.989-21.717Q1111.264,743.89,1102.741,754.127Zm-20.462-21.914c6.742,7.285,13.46,14.5,20.125,21.56q8.527-10.226,17.172-20.292c-7.271-7.619-14.573-15.33-21.933-23.22Q1089.89,721.1,1082.279,732.213Zm-21.534-23.524q10.661,11.767,21.2,23.16,7.618-11.1,15.366-21.953c-7.579-8.13-15.193-16.362-22.871-24.786Q1067.51,696.712,1060.745,708.688Zm-22.6-25.213q11.2,12.64,22.266,24.837,6.771-11.956,13.693-23.576-11.822-12.98-23.808-26.469Q1044.123,670.632,1038.14,683.475ZM1014.465,656.5c7.829,9.027,15.6,17.86,23.331,26.587q5.983-12.828,12.15-25.2-12.315-13.841-24.8-28.225Q1019.691,642.77,1014.465,656.5Zm-24.79-28.872c8.2,9.665,16.338,19.122,24.435,28.46q5.237-13.695,10.679-26.826-12.818-14.749-25.819-30.062Q994.2,613.034,989.676,627.624ZM963.757,596.71q12.859,15.494,25.555,30.48,4.524-14.569,9.3-28.413-13.352-15.722-26.892-32.042Q967.585,581.26,963.757,596.71Zm-27.119-33.055Q950.1,580.233,963.38,596.26q3.838-15.426,7.973-29.965-13.9-16.758-28-34.144Q939.8,547.329,936.638,563.655ZM908.26,528.3q14.091,17.744,27.987,34.875,3.183-16.292,6.722-31.49-14.48-17.859-29.168-36.383C911.8,505.829,909.962,516.851,908.26,528.3Zm-29.706-37.829q14.758,19,29.3,37.325c1.705-11.446,3.549-22.461,5.556-32.978q-15.071-19.025-30.378-38.806C881.347,466.9,879.863,478.416,878.554,490.474ZM847.44,449.979q15.467,20.361,30.7,39.966c1.314-12.056,2.8-23.567,4.5-34.449q-15.688-20.262-31.632-41.362C849.566,425.307,848.39,437.29,847.44,449.979Zm-32.592-43.431q16.2,21.811,32.166,42.869c.956-12.68,2.139-24.655,3.589-35.819q-16.309-21.553-32.888-43.989C816.42,380.89,815.482,393.25,814.848,406.548Zm-34.134-46.512q16.971,23.361,33.7,45.919c.645-13.283,1.594-25.624,2.9-36.892q-16.868-22.8-34.019-46.522C781.954,333.6,781.118,346.154,780.714,360.036Zm-35.645-49.65q17.731,24.947,35.206,49.044c.418-13.858,1.27-26.4,2.627-37.432q-17.187-23.745-34.662-48.441C746.437,283.623,745.419,296,745.07,310.386Zm-36.845-52.44c12.228,17.572,24.383,34.9,36.417,51.835.37-14.352,1.408-26.7,3.237-36.735q-16.536-23.336-33.342-47.571C711.012,232.176,708.99,243.2,708.224,257.946Zm-36.48-53.015c12.113,17.771,24.155,35.3,36.077,52.437.8-14.681,2.859-25.647,6.416-32.321-2.586-3.723-5.143-7.344-7.74-11.1-14.335-18.656-23.942-24.415-29.708-19.392C674.574,196.48,672.914,200,671.744,204.931ZM810.064,1258.2q.6,10,1.065,19.752,2.227-4.962,4.3-10.269c-.1-6.234-.237-12.535-.439-18.953q-2.2,4.524-4.522,8.754C810.333,1257.722,810.2,1257.958,810.064,1258.2Zm-1.446-21.55q.772,10.469,1.391,20.667l.051-.088q2.523-4.582,4.893-9.52-.315-9.753-.783-19.78Q811.468,1232.464,808.618,1236.647Zm-1.782-22.225q.935,10.847,1.726,21.448,2.859-4.234,5.566-8.829-.475-10.176-1.093-20.6Q810.008,1210.613,806.836,1214.422Zm-2.107-22.9q1.1,11.222,2.046,22.2,3.18-3.836,6.214-8.046-.634-10.549-1.405-21.339Q808.228,1188.118,804.729,1191.523Zm-2.425-23.577q1.251,11.58,2.365,22.937,3.507-3.427,6.866-7.24-.787-10.9-1.718-22.043Q806.129,1164.964,802.3,1167.947Zm-2.734-24.208q1.4,11.911,2.668,23.61,3.832-3,7.527-6.382-.937-11.263-2-22.729Q803.731,1141.179,799.57,1143.739Zm-3.042-24.873q1.55,12.248,2.976,24.3,4.168-2.563,8.207-5.52-1.085-11.582-2.3-23.381Q801.026,1116.754,796.528,1118.866Zm-3.332-25.494q1.7,12.569,3.262,24.942,4.5-2.114,8.892-4.622-1.227-11.917-2.576-24.026C799.615,1091.028,796.425,1092.273,793.2,1093.371Zm-3.63-26.117q1.834,12.863,3.557,25.564c3.232-1.1,6.424-2.352,9.587-3.718q-1.364-12.221-2.838-24.607Q794.762,1066.065,789.566,1067.255Zm-3.9-26.739q1.974,13.187,3.824,26.206,5.207-1.185,10.318-2.773-1.5-12.523-3.116-25.217Q791.212,1039.815,785.665,1040.515Zm-4.192-27.325q2.1,13.462,4.112,26.8,5.553-.7,11.038-1.788-1.633-12.84-3.369-25.821Q787.389,1012.971,781.474,1013.191Zm-4.455-27.945q2.238,13.774,4.373,27.426c3.948-.139,7.878-.418,11.793-.811q-1.759-13.141-3.611-26.4Q783.307,985.531,777.019,985.246ZM772.3,956.737q2.361,14.041,4.629,27.985,6.293.3,12.567.223-1.881-13.409-3.859-26.928C781.193,957.711,776.746,957.275,772.3,956.737Zm-4.975-29.091q2.483,14.318,4.887,28.567c4.446.539,8.9.976,13.35,1.284q-2-13.7-4.09-27.489C776.744,929.337,772.03,928.535,767.33,927.646Zm-5.214-29.639q2.6,14.581,5.12,29.106c4.706.892,9.424,1.695,14.161,2.369q-2.118-13.989-4.311-28.039Q769.553,899.875,762.116,898.007ZM691.423,539.233c22.938,110.954,48.733,235.739,70.6,358.228q7.445,1.876,14.985,3.451C760.421,794.832,740.762,686.649,722.8,587.8,689.009,401.889,661.226,249,671.266,205.086c-3.176-4.659-6.318-9.2-9.509-13.915C648.626,171.785,640.1,164.9,635.333,168.56,617.605,182.173,649.8,337.921,691.423,539.233Zm-33.2,742.461c-299.75-186.332-516.4-194.7-658.225-156.329v-.515c142.045-38.4,359.015-29.942,659.172,156.844Zm-51.17,0C333.66,1125.112,133.622,1119.794,0,1155.956v-.516c133.848-36.187,334.22-30.77,608.035,126.254Zm203.774,0-.079-1.771q-.409.891-.824,1.771H809.4q.66-1.4,1.307-2.822-.449-9.831-1.057-19.938a136.8,136.8,0,0,1-15.809,22.76h-.655a136.1,136.1,0,0,0,16.409-23.641q-.621-10.263-1.4-20.792c-31.94,46.422-78.221,58.621-146.771,15.8C360,1064.782,142.326,1056.253,0,1094.776v-.516c142.436-38.517,360.206-29.936,661.666,158.369,68.5,42.79,114.668,30.437,146.478-16.146q-.79-10.649-1.726-21.555c-33.552,39.834-79.636,48.368-144.99,7.546C360,1034.191,142.326,1025.664,0,1064.187v-.516c142.436-38.517,360.206-29.936,661.666,158.369,65.281,40.777,111.253,32.129,144.69-7.806q-.953-11.03-2.052-22.3c-34.923,33.64-80.658,38.818-142.876-.046C360,1003.6,142.326,995.074,0,1033.6v-.516c142.436-38.517,360.206-29.937,661.666,158.369,62.127,38.807,107.757,33.55,142.577-.156q-1.114-11.392-2.369-23.012c-36.057,27.842-81.3,29.955-140.446-6.987C360,973.012,142.326,964.484,0,1003.008v-.515c142.436-38.516,360.206-29.937,661.666,158.369,59.037,36.877,104.179,34.7,140.142,6.823q-1.269-11.734-2.676-23.685c-36.958,22.438-81.58,21.765-137.705-13.293C360,942.423,142.326,933.894,0,972.417V971.9c142.436-38.518,360.206-29.937,661.666,158.369,56.011,34.986,100.531,35.613,137.4,13.158q-1.423-12.071-2.98-24.35c-37.627,17.424-81.491,14.246-134.658-18.964C360,911.834,142.326,903.305,0,941.828v-.515c142.436-38.517,360.206-29.937,661.666,158.369,53.045,33.134,96.806,36.272,134.349,18.844q-1.574-12.414-3.271-25.011c-38.069,12.8-81.04,7.415-131.316-23.989C360,881.243,142.326,872.716,0,911.238v-.516c142.436-38.516,360.206-29.935,661.666,158.371,50.146,31.322,93.018,36.673,131,23.871q-1.718-12.709-3.562-25.6c-38.286,8.563-80.247,1.2-127.682-28.429C360,850.653,142.326,842.126,0,880.649v-.514C142.436,841.618,360.206,850.2,661.666,1038.5c47.305,29.551,89.165,36.887,127.366,28.328q-1.864-13.054-3.831-26.248c-38.286,4.718-79.113-4.339-123.773-32.235C360,820.064,142.326,811.537,0,850.059v-.515c142.436-38.515,360.206-29.936,661.666,158.37,44.534,27.817,85.259,36.85,123.455,32.143q-2-13.348-4.122-26.851c-38.061,1.249-77.634-9.252-119.571-35.448C360,789.475,142.326,780.946,0,819.469v-.515c142.436-38.516,360.206-29.935,661.666,158.369,41.816,26.12,81.285,36.6,119.251,35.359q-2.14-13.673-4.379-27.464c-37.625-1.838-75.832-13.514-115.111-38.051C360,758.886,142.326,750.357,0,788.881v-.516c142.436-38.517,360.206-29.935,661.666,158.37,39.161,24.461,77.262,36.113,114.786,37.961q-2.27-13.956-4.635-28.014c-36.973-4.552-73.709-17.191-110.389-40.1C360,728.3,142.326,719.767,0,758.29v-.514c142.436-38.516,360.206-29.937,661.666,158.369,36.566,22.841,73.195,35.457,110.063,40.013q-2.4-14.26-4.894-28.6a304.945,304.945,0,0,1-105.407-41.565C360,697.706,142.326,689.178,0,727.7v-.514c142.436-38.517,360.206-29.936,661.666,158.369a304.433,304.433,0,0,0,105.075,41.466q-2.526-14.544-5.128-29.147A349.2,349.2,0,0,1,661.427,855.4C360,667.116,142.326,658.587,0,697.111V696.6c142.436-38.518,360.206-29.937,661.666,158.369a348.694,348.694,0,0,0,99.849,42.363c-21.854-122.406-47.631-247.105-70.555-357.988-41.656-201.493-73.884-357.382-55.9-371.19,5.012-3.849,13.762,3.06,27.084,22.727,3.114,4.6,6.179,9.031,9.278,13.578,1.186-4.878,2.854-8.365,5.071-10.3,6.005-5.231,15.833.538,30.376,19.461l.006.011c2.563,3.71,5.083,7.28,7.635,10.954a17.88,17.88,0,0,1,2.9-3.956c7.079-7.026,18.143-2.58,34.182,15.738l.007.006.01.014c2.427,3.441,4.816,6.753,7.233,10.162,8.268-7.808,20.432-4.422,37.471,12.562l.016.017.01.015c2.59,3.584,5.14,7.04,7.718,10.588,9.145-4.96,21.258-1.446,36.978,12.126l.02.017.016.023c2.947,3.979,5.854,7.822,8.788,11.751,9.58-3.082,21.406.221,35.9,10.954l.026.02.022.028c3.438,4.51,6.832,8.878,10.251,13.32,9.692-1.892,21.075,1.005,34.419,9.379l.036.023.025.032c4.014,5.1,7.984,10.055,11.97,15.066,9.575-1.18,20.411,1.212,32.686,7.628l.043.022.031.039c4.647,5.7,9.251,11.251,13.86,16.83,9.289-.789,19.513,1.065,30.782,5.858l.052.021.036.043c5.326,6.273,10.608,12.4,15.891,18.53,8.874-.611,18.428.706,28.738,4.155l.061.021.041.046q9.069,10.2,18.044,20.089a85.476,85.476,0,0,1,26.572,2.6l.064.016.05.051q10.241,10.92,20.373,21.477a99.068,99.068,0,0,1,24.229,1.211l.072.012.052.052c7.688,7.7,15.313,15.2,22.907,22.6a116.12,116.12,0,0,1,21.687.088l.076.008.058.052c8.637,8.034,17.2,15.836,25.721,23.491a137.856,137.856,0,0,1,18.862-.8l.081,0,.062.052q14.575,12.394,28.931,24.081c5.137-.691,10.345-1.172,15.646-1.378l.081,0,.064.05q16.54,12.581,32.794,24.258,5.835-.935,11.78-1.546l.08-.008.066.043q18.993,12.519,37.63,23.936,3.459-.651,6.946-1.214l.075-.011.067.036q22.311,12.126,44.152,22.831c.142-.03.283-.066.428-.1l.067-.015.064.026c33.677,13.823,66.6,25.4,98.8,35.127,29.061,5.891,57.612,10.485,85.662,14.045,24.588.164,48.87-.23,72.842-1q22.229-3.911,44.213-7.85,9.48-1.693,18.909-3.371c97.291-33.794,192.945-58.686,284.387-65.441v.529c-90.441,6.678-185.009,31.108-281.208,64.348,98.039-17.427,192.16-33.288,281.208-36.106v.507c-89.963,2.845-185.115,19.013-284.254,36.652q-12.97,4.505-25.983,9.233c42.03-2,83.075-4.919,123.125-7.765,65.015-4.622,127.4-9.042,187.111-9.071V608c-59.7.024-122.074,4.446-187.08,9.067-40.568,2.883-82.159,5.838-124.758,7.842q-13.214,4.793-26.458,9.753c75.839,5.008,147.84,4.068,216.244,3.172,42.023-.551,82.689-1.083,122.053-.208v.5c-39.362-.877-80.026-.343-122.048.206-68.742.9-141.121,1.846-217.38-3.246q-13.246,4.987-26.52,10.156c102.5,16.992,197.108,18.958,284.966,20.779,27.653.574,54.632,1.137,80.983,2.147v.5c-26.353-1.01-53.335-1.573-80.992-2.147-88.118-1.828-183.031-3.8-285.88-20.924q-13.309,5.169-26.635,10.472c125.209,31.814,237.684,36.4,340.151,40.578,18.094.738,35.87,1.466,53.356,2.326v.5c-17.491-.861-35.272-1.589-53.372-2.327-102.679-4.186-215.41-8.788-340.93-40.766q-13.3,5.307-26.619,10.756c145.421,48.381,272.71,55.036,386.812,60.983q17.258.9,34.109,1.823v.5q-16.872-.942-34.13-1.823c-114.288-5.957-241.8-12.623-387.506-61.194q-13.342,5.443-26.691,10.984c163.992,66.134,304.031,74.245,427.858,81.4q10.312.6,20.469,1.194v.5q-10.175-.6-20.492-1.194c-123.992-7.161-264.235-15.284-428.5-81.625q-13.36,5.551-26.718,11.194C1733,774.592,1884.3,783.6,2016.534,791.453l10.781.643v.5l-10.807-.644c-132.383-7.865-283.874-16.883-465.521-101.8q-13.374,5.64-26.746,11.341c197.918,103.856,359.389,113.3,499.079,121.435l3.994.233v.5l-4.018-.234c-139.832-8.149-301.481-17.6-499.652-121.685q-13.408,5.717-26.807,11.48c213.522,123.306,384.146,132.881,530.478,140.943v.5c-146.473-8.07-317.274-17.651-531.048-141.2q-13.427,5.771-26.84,11.562c227.449,142.331,405.933,152.384,557.888,160.061v.5c-152.091-7.683-330.748-17.74-558.445-160.325q-11,4.746-21.98,9.494l-4.962,2.144c241.632,161.969,427.88,171.938,585.387,179v.5c-157.64-7.068-344.056-17.039-585.933-179.269q-13.535,5.848-27.042,11.672c256.065,182.2,449.982,191.541,612.974,197.791v.5c-163.119-6.255-357.2-15.6-613.5-198.065q-13.567,5.849-27.1,11.65c270.7,202.951,472.2,211.215,640.6,216.473v.5c-168.527-5.263-370.189-13.531-641.13-216.753q-13.64,5.846-27.238,11.621c285.6,224.3,494.6,230.941,668.368,235.052v.5c-173.891-4.113-383.048-10.752-668.89-235.334q-13.721,5.825-27.4,11.556c300.773,246.266,517.189,250.723,696.286,253.551v.5c-179.22-2.83-395.794-7.286-696.8-253.838q-13.816,5.786-27.577,11.451c316.133,268.781,539.856,270.581,724.227,272.01h.153v.5h-.154c-184.493-1.429-408.372-3.227-724.74-272.3q-13.923,5.729-27.779,11.308c330.27,290.612,560.632,290.543,749.774,290.468h2.9v.5l-2.9,0c-189.263.074-419.783.148-750.289-290.764q-14.019,5.64-27.965,11.1c344.384,312.7,581.286,310.7,775.121,309.032l6.032-.051v.5l-6.029.052c-193.954,1.669-431.016,3.663-775.633-309.336q-14.145,5.535-28.205,10.859c358.523,335.1,601.893,331.1,800.367,327.758l9.5-.158v.5l-9.492.158c-198.595,3.343-442.125,7.349-800.884-328.066q-14.3,5.407-28.5,10.57c372.748,357.911,622.535,351.781,825.623,346.694q6.663-.167,13.257-.326v.5q-6.593.161-13.248.327c-203.207,5.089-453.154,11.222-826.146-347.013-51.8,18.795-102.613,34.965-152.009,46.964q-11.816,4.553-23.535,8.74-11.007,5.73-21.949,11.063-10.262,6.932-20.492,13.432-9.4,8.027-18.808,15.568-8.642,9.158-17.338,17.768-7.84,10.161-15.782,19.712-7.1,11.142-14.353,21.6-2.58,4.866-5.194,9.614-3.863,7.011-7.807,13.738-5.712,12.858-11.694,24.879-5.064,13.542-10.452,26.18-4.479,14.195-9.348,27.4-3.931,14.712-8.3,28.371-3.425,15.113-7.34,29.1-2.988,15.565-6.526,29.923c-1.727,10.605-3.643,20.816-5.774,30.565q-2.207,15.983-5.042,30.67c-1.263,10.844-2.739,21.259-4.458,31.181q-.217,2.212-.445,4.4h-.815q.41-2.229.8-4.493c.438-4.465.821-9.031,1.182-13.645q-1.284,5.437-2.68,10.64-.136,3.773-.3,7.5H819q.123-2.756.229-5.541-.768,2.8-1.57,5.541h-.482q1.094-3.739,2.126-7.607c.2-5.554.365-11.176.469-16.911q-1.873,5.465-3.883,10.625.111,7.017.143,13.893h-.456q-.028-6.318-.131-12.77-2.062,5.2-4.274,10.075l.119,2.7Zm-259.914,0C306.08,1155.169,124.3,1152.908,0,1186.544v-.515c124.546-33.676,306.689-31.339,552.016,95.665Zm-63.348,0c-213.1-95.968-374.233-95.209-487.567-64.561v-.515c113.6-30.69,275.136-31.37,488.774,65.076Zm-74.736,0C236.357,1216.937,99.686,1220.765,0,1247.724v-.515c100-27.016,237.146-30.768,414.266,34.486Zm-99.19,0C184.193,1249.842,80.151,1256.618,0,1278.313v-.516c80.587-21.786,185.295-28.48,315.62,3.9Z" transform="translate(0 -167.13)" fill="#0098DA" opacity="0.49"/>
</svg>
