<svg width="20" height="20" viewBox="0 0 20 20" fill="none" xmlns="http://www.w3.org/2000/svg">
<g clip-path="url(#clip0_156_1469)">
<path fill-rule="evenodd" clip-rule="evenodd" d="M5.41634 0.833252C2.88503 0.833252 0.833008 2.88528 0.833008 5.41658V14.5833C0.833008 17.1146 2.88503 19.1666 5.41634 19.1666H14.583C17.1143 19.1666 19.1663 17.1146 19.1663 14.5833V5.41658C19.1663 2.88528 17.1143 0.833252 14.583 0.833252H5.41634ZM9.99967 6.66658C8.15872 6.66658 6.66634 8.15897 6.66634 9.99992C6.66634 11.8408 8.15872 13.3333 9.99967 13.3333C11.8406 13.3333 13.333 11.8408 13.333 9.99992C13.333 8.15897 11.8406 6.66658 9.99967 6.66658ZM4.99967 9.99992C4.99967 7.23849 7.23825 4.99992 9.99967 4.99992C12.7611 4.99992 14.9997 7.23849 14.9997 9.99992C14.9997 12.7613 12.7611 14.9999 9.99967 14.9999C7.23825 14.9999 4.99967 12.7613 4.99967 9.99992ZM14.9997 3.33325C14.0792 3.33325 13.333 4.07944 13.333 4.99992C13.333 5.92039 14.0792 6.66658 14.9997 6.66658C15.9202 6.66658 16.6663 5.92039 16.6663 4.99992C16.6663 4.07944 15.9202 3.33325 14.9997 3.33325Z" fill="currentColor"/>
</g>
<defs>
<clipPath id="clip0_156_1469">
<rect width="20" height="20" fill="white"/>
</clipPath>
</defs>
</svg>
