<svg width="20" height="20" viewBox="0 0 20 20" fill="none" xmlns="http://www.w3.org/2000/svg">
<path fill-rule="evenodd" clip-rule="evenodd" d="M1.02363 10.4865C1.06628 11.1427 1.13804 11.6617 1.3189 12.3312C1.36796 12.5127 1.52703 12.6346 1.71515 12.6346H4.23675C4.48152 12.6346 4.67027 12.4252 4.64499 12.1818C4.49613 10.7474 4.48015 9.25567 4.59874 7.80879C4.61843 7.56836 4.43093 7.36485 4.18968 7.36485H1.71519C1.5271 7.36485 1.368 7.48668 1.31894 7.66829C1.19691 8.12024 1.10882 8.58602 1.05984 9.06266C1.01578 9.49036 1.01085 9.76805 1.01316 10.1904L1.02363 10.4865ZM4.86859 5.71313C5.03449 4.78336 5.2571 3.89336 5.53148 3.06231C5.65413 2.69075 5.23066 2.3736 4.90863 2.59583C3.83441 3.337 2.92824 4.30575 2.26121 5.43184C2.09867 5.70622 2.29546 6.05149 2.61437 6.05149H4.46453C4.66519 6.05149 4.83335 5.91067 4.86859 5.71313ZM13.7678 5.56125C13.4636 4.02594 12.993 2.62696 12.3796 1.46938C12.3226 1.36184 12.2318 1.29133 12.1135 1.26266C10.7278 0.926958 9.27109 0.927231 7.88632 1.26266C7.768 1.29133 7.6773 1.3618 7.62027 1.46938C7.00683 2.627 6.53628 4.02594 6.23203 5.56125C6.18148 5.81633 6.3746 6.05149 6.63464 6.05149H13.3652C13.6253 6.05149 13.8184 5.81633 13.7678 5.56125ZM15.5353 6.05149H17.3855C17.7044 6.05149 17.9012 5.70625 17.7387 5.43188C17.0716 4.30559 16.1654 3.33657 15.0911 2.59555C14.7691 2.3734 14.3456 2.69055 14.4683 3.06208C14.7426 3.89321 14.9653 4.78329 15.1312 5.71317C15.1665 5.91067 15.3347 6.05149 15.5353 6.05149ZM15.7632 12.6346H18.2848C18.4728 12.6346 18.6319 12.5128 18.681 12.3312C18.803 11.8795 18.8911 11.4136 18.9401 10.9368C18.9878 10.4696 18.9867 10.2556 18.9867 9.7911C18.9867 9.60497 18.9566 9.22297 18.94 9.06266C18.891 8.58602 18.803 8.12024 18.6809 7.66829C18.6319 7.48668 18.4728 7.36485 18.2847 7.36485H15.8102C15.569 7.36485 15.3815 7.56836 15.4012 7.80879C15.5198 9.25571 15.5038 10.7474 15.3549 12.1818C15.3296 12.4253 15.5184 12.6346 15.7632 12.6346ZM15.0359 14.2759C14.8396 15.2323 14.5718 16.1893 14.231 17.0818C14.09 17.4509 14.5032 17.787 14.8359 17.5738C16.0223 16.8135 17.0188 15.782 17.7384 14.5676C17.901 14.2932 17.7043 13.9479 17.3853 13.9479H15.438C15.241 13.948 15.0755 14.083 15.0359 14.2759ZM5.76882 17.0816C5.42804 16.1891 5.16031 15.2324 4.96398 14.2759C4.92437 14.083 4.75886 13.948 4.56195 13.948H2.6146C2.29566 13.948 2.0989 14.2933 2.26148 14.5677C2.98105 15.782 3.97757 16.8132 5.16394 17.5736C5.4966 17.7868 5.9098 17.4507 5.76882 17.0816ZM13.2507 13.948H6.74925C6.48433 13.948 6.29007 14.1917 6.34913 14.4499C6.71831 16.0638 7.27413 17.5039 7.98195 18.6326C8.04425 18.732 8.13484 18.7943 8.24992 18.8172C9.40523 19.046 10.5937 19.0462 11.75 18.8172C11.865 18.7943 11.9556 18.732 12.0179 18.6326C12.7257 17.5039 13.2816 16.0641 13.6508 14.4499C13.7098 14.1917 13.5156 13.948 13.2507 13.948ZM5.83378 9.73653C5.83378 10.5977 5.88449 11.4473 5.97953 12.2712C6.00355 12.4793 6.17773 12.6346 6.38726 12.6346H13.6126C13.8222 12.6346 13.9964 12.4793 14.0204 12.2712C14.193 10.7752 14.2128 9.2459 14.0768 7.7384C14.0576 7.52618 13.8811 7.36489 13.668 7.36489H6.33191C6.11878 7.36489 5.9423 7.52618 5.92312 7.7384C5.86406 8.39286 5.83378 9.06118 5.83378 9.73653Z" fill="currentColor"/>
</svg>
