<?xml version="1.0" encoding="UTF-8"?>
<!DOCTYPE svg PUBLIC "-//W3C//DTD SVG 1.1//EN" "http://www.w3.org/Graphics/SVG/1.1/DTD/svg11.dtd">
<!-- Creator: CorelDRAW 2020 (64-Bit) -->
<svg xmlns="http://www.w3.org/2000/svg" xml:space="preserve" width="200px" height="200px" version="1.1" style="shape-rendering:geometricPrecision; text-rendering:geometricPrecision; image-rendering:optimizeQuality; fill-rule:evenodd; clip-rule:evenodd"
viewBox="0 0 29700 21000"
 xmlns:xlink="http://www.w3.org/1999/xlink"
 xmlns:xodm="http://www.corel.com/coreldraw/odm/2003">
 <defs>
  <style type="text/css">
   <![CDATA[
    .fil1 {fill:#67BD50}
    .fil0 {fill:#0098DA}
   ]]>
  </style>
 </defs>
 <g id="Layer_x0020_1">
  <metadata id="CorelCorpID_0Corel-Layer"/>
  <path class="fil0" d="M15793.35 11755.82l-57.7 -6.35 -858.01 0c-12.86,91.19 -85.34,80.57 -118.49,127.9 -48.39,69.06 -23.59,130.26 -97.19,156.47 26.91,-20.66 15.51,-92.72 24.78,-137.97 9.27,-45.18 47.56,-61.73 56.69,-80.81 9.13,-19.02 31.81,-2.15 60.1,-29.51 28.3,-27.33 -21.51,-56.71 -21.51,-56.71 0,0 17.84,-19.03 51.23,-62.77 33.39,-43.73 103.62,-88.62 162.77,-121.86 59.11,-33.2 279.36,-197.3 344.48,-217.11 65.09,-19.8 135.69,-66.35 150.92,-98.12 15.23,-31.75 95.6,-91.98 220.55,-157.09 124.97,-65.08 244.35,-221.95 244.35,-221.95 0,0 -1.71,-0.36 57.49,17 59.25,17.43 134.38,8.37 134.38,8.37 0,0 -44.27,71.15 -69.55,100.85 -25.24,29.69 -81.78,84.41 -149.18,157.78 -67.35,73.36 -154.8,142.65 -154.8,142.65 0,0 -3.36,-0.68 -25.77,-1.81 -22.46,-1.13 -68.51,27.81 -96.79,55.16 -28.25,27.35 -28.03,43.1 -22.18,82.65 5.85,39.52 28.82,63.47 24.25,111.37 -4.55,47.92 16.92,104.64 62.57,162.8 20.51,26.13 49.12,50.79 76.61,69.06zm-1196.39 -6.35l-286.37 0 -457.73 0 -1352.2 0c-125.59,0 -235.13,-24.03 -328.72,-72.01 -93.59,-48.05 -168.09,-112.69 -223.5,-193.94 -55.41,-81.24 -88.65,-176.66 -99.73,-286.24 -11.07,-109.59 4.32,-227.19 46.2,-352.78l299.19 -904.92c41.85,-125.61 104.66,-243.18 188.38,-352.77 83.71,-109.61 179.74,-205.6 288.13,-288.11 108.3,-82.48 225.3,-147.07 350.87,-193.93 125.57,-46.73 251.16,-70.18 376.73,-70.18l454.65 0 2129.65 0 89.16 0 55.01 0c-23.84,27.68 -38.65,66.91 -48.94,117.15 -18.17,88.73 37.48,148.96 37.48,148.96 0,0 0,0 -6.53,31.81 -6.51,31.8 -28.02,43.1 -57.18,40.61 -29.12,-2.47 -58.21,-13.68 -89.76,-4.44 -31.53,9.22 -41.18,-3.23 -91.38,-13.51 -50.22,-10.32 -83.68,-17.17 -118.56,-8.63 -34.91,8.52 -83.38,57.91 -83.38,57.91 0,0 -23.72,-11.87 -80.03,-9.46 -56.33,2.41 -103.21,1.53 -177.39,22.94 -71.38,20.65 -101.46,36.81 -157.84,67.34l-1400.31 0 -151.74 0c-64.03,0 -127.41,11.68 -190.25,35.06 -62.77,23.37 -121.25,56.03 -175.41,97.9 -54.21,41.83 -102.2,90.47 -144.05,145.88 -41.88,55.42 -72.65,113.9 -92.36,175.47l-299.19 904.92c-19.68,61.52 -27.08,120.06 -22.18,175.44 4.92,55.42 20.96,103.48 48.05,144.1 27.1,40.63 64.01,72.6 110.78,95.99 46.81,23.4 102.21,35.13 166.24,35.13l750.11 0 154.83 0c61.55,0 123.75,-11.73 186.55,-35.13 62.75,-23.39 121.29,-55.36 175.44,-95.99 54.17,-40.62 102.21,-88.68 144.04,-144.1 41.87,-55.38 73.86,-113.92 96.07,-175.44l147.77 -454.32 -904.7 0 -450.92 0 147.71 -450.6 303.21 0 961.86 0c28.32,-26.82 58.09,-51 94.59,-67.35 32.81,-81.45 124.74,-147.6 195.65,-234.92 -6.68,10.08 -12.97,20.04 -18.79,29.69 -39.54,65.13 -77.77,134.27 -107.35,159.58 -29.58,25.31 -35.18,67.6 -35.18,67.6 0,0 -12.06,7.95 -57.78,43.9 -45.77,35.99 -62.64,58.68 -85.25,92.43 -22.61,33.72 -55.66,75.77 -73.52,94.8 -17.83,19.02 -35.69,38.03 -33.38,52.45 2.23,14.38 33.49,-1.88 45.96,-11.53 12.41,-9.64 90.32,-49.48 118.88,-61.06 28.55,-11.6 81.9,-33.8 91.89,-23.01 10.03,10.76 -7.15,26.43 -17.67,60.89 -10.56,34.44 -0.22,43.56 11.44,54.67 11.69,11.14 16.56,-29.74 26.09,-59.18 9.52,-29.46 40.46,-52.75 40.46,-52.75 0,0 6.57,-40.53 41.57,-143.22l1.06 -2.99 652.1 0c17.76,-101.11 -14.85,-215.04 -21.58,-272.21 -138.79,32.99 -226.39,-37.78 -297.66,-16.59 -23.84,7.1 -75.94,71.08 -141.53,112.07 -51.65,32.27 -104.23,58.47 -141.87,82.79 31.64,-42.83 66.27,-69.26 87.38,-82.31 33.94,-20.96 163.56,-151.33 192.44,-164.58 28.9,-13.28 96.45,14.54 157.11,16.49 60.59,1.99 199.12,-27.19 199.12,-27.19 0,0 11.17,115.67 29.86,203.21 18.67,87.53 2.06,202.72 -22.2,295.41 -24.24,92.68 -68.51,172.55 -140.18,300.87 -71.65,128.33 7.41,270.08 7.41,270.08 0,0 -65.07,87.81 -133.37,140.08 -68.26,52.29 -172.19,278.6 -172.19,278.6 0,0 0,0 -54.79,37.61 -54.81,37.62 -127.93,53.99 -185.8,97.94 -57.82,43.94 -88.62,109.15 -88.62,109.15 0,0 -1.7,8.34 -55.59,58.36 -53.83,50.01 -171.63,156.66 -171.63,156.66 0,0 -16.4,-5.14 -57.87,-15.39 -41.5,-10.22 -71.34,-9.37 -99.05,40.76 -26.47,47.86 5.29,121.99 2.08,188.08z"/>
  <path class="fil1" d="M20109.45 9034.61c-76.37,269.34 -206.35,722.98 -266.53,904.97l-299.15 904.92c-159.93,480.08 -690.72,904.97 -1204.15,904.97l-582.07 0 -1227.84 0c-219.23,0 -425.6,-80.24 -552.23,-265.95l-1.77 -2.6c-18.44,19.47 -35.35,41.61 -49.56,70.25 -24.25,48.87 -5.95,152.55 -43.86,214.4 -0.8,-20.55 -16,-50.5 -16.88,-64.05 -1.22,-19.43 6.04,-139.99 9.55,-165.41 3.47,-25.47 12.19,-34.15 31.12,-66.9 18.93,-32.74 -8.48,-43.58 -8.48,-43.58 0,0 26.11,-67.89 82.25,-112.21 56.18,-44.3 114.66,-82.87 190.66,-130.08 75.93,-47.2 209.73,-138.38 304.46,-192.2 94.77,-53.84 106.02,-100.35 107.02,-164.64 0.93,-64.33 -61.76,-115.57 -114.85,-154.39 -53.13,-38.78 -123.21,-88.04 -183.67,-133.56 -60.37,-45.53 -142.35,-79.75 -142.35,-79.75 0,0 5.4,-9.33 57.85,-111.97 52.4,-102.59 156.41,-337.65 170.41,-388.83 13.99,-51.21 57.32,-143.46 57.32,-143.46 0,0 0,0 17.04,10.46 17.01,10.44 27.55,52.72 46.7,112.49 19.11,59.74 71.12,112.23 95.33,164.29 24.23,52.03 42.01,50.45 86.49,63.06 44.52,12.6 52.7,-18.84 72.26,-46.23 19.57,-27.35 7.19,-26.43 22.27,-91.33 15.03,-64.94 9.81,-90.44 -18.55,-190.44 -28.31,-99.96 -12.67,-150.83 -13.75,-205.1 -1.09,-54.3 44.31,-88.58 71.53,-102.2 27.21,-13.6 -15.75,-76.45 -24.29,-111.36 -8.52,-34.9 -28.21,-49.39 -47.05,-34.06 -18.86,15.3 -40.94,12.57 -52.76,36.27 -11.9,23.74 -36.67,34.31 -55.39,82.81 -18.63,48.54 -7.25,111.92 -1.72,153.14 5.49,41.23 -7.19,103.16 -7.19,103.16l-23.3 -30.93c0,0 -30.37,-98.66 -67.61,-155.15 -37.25,-56.45 -81.07,-72.43 -126.28,-81.67 -45.17,-9.29 -72.61,-20.12 -68.47,-40.2 4.14,-20.1 37.15,5.86 66.29,-0.37 29.2,-6.22 49.04,-85.88 50.75,-102.95 1.79,-17.06 0.27,-43.54 0.27,-43.54 0,0 22.46,-7.61 19.84,-20.36 -2.65,-12.75 -25.58,-45.36 -9.66,-71.75 15.82,-26.38 6.42,-51.62 -4.23,-98.53 -19.38,-85.25 -65.41,-125.63 -144.01,-133.31l3.65 -0.15 0.18 0 3.42 -0.1 0.36 -0.01 3.21 -0.05 0.53 0 3 -0.01 0.7 0 2.79 0.03 0.86 0.02 2.59 0.05 1.03 0.03 2.39 0.09 1.18 0.05 2.2 0.11 1.33 0.07 2.01 0.12 1.49 0.1 1.82 0.14 1.64 0.13 1.64 0.14 1.78 0.17 1.46 0.15 1.92 0.2 0.32 0.04 2.61 0.3 0.42 0.05 1.12 0.14 2.2 0.29 0.95 0.13 2.33 0.34 0.79 0.12 2.47 0.39 0.62 0.1 2.6 0.44 0.46 0.08 2.73 0.5 0.31 0.06 2.85 0.56 0.15 0.03 2.98 0.61 0.01 0.01 2.95 0.64 0.14 0.04 2.8 0.64 0.28 0.07 2.63 0.64 0.42 0.1 2.46 0.63 0.57 0.15 2.3 0.61 0.7 0.19 2.14 0.6 0.84 0.24 1.98 0.57 0.97 0.29 1.83 0.55 1.11 0.34 1.68 0.52 1.23 0.39 1.53 0.5 1.37 0.44 1.38 0.46 2.73 0.93 1.62 0.56 1.1 0.39 1.75 0.62 0.95 0.34 1.87 0.69 0.82 0.3 1.99 0.75 0.68 0.26 2.12 0.81 0.54 0.21 2.24 0.87 0.41 0.17 2.36 0.94 0.28 0.11 2.48 1.01 0.14 0.06 2.6 1.08 0.02 0.01 2.61 1.1 0.11 0.04 2.49 1.07 0.24 0.1 2.35 1.02 0.37 0.16 2.21 0.97 0.51 0.22 2.07 0.93 0.63 0.27 1.95 0.88 0.75 0.34 1.82 0.82 0.88 0.4 1.69 0.77 1.01 0.46 1.55 0.72 1.14 0.52 1.43 0.67 1.26 0.58 1.3 0.6 1.39 0.65 1.17 0.55 1.52 0.71 1.04 0.49 1.65 0.77 0.91 0.43 1.78 0.83 0.79 0.37 1.9 0.9 0.67 0.31 2.03 0.96 0.54 0.25 2.16 1.01 0.41 0.2 2.3 1.07 0.28 0.13 2.43 1.14 0.16 0.07 2.56 1.19 0.03 0.01 2.6 1.2 8.35 3.8 57.49 0 2.92 0 108.64 0 658.23 0 104 0 12.43 0 -358.69 1023.71 -28.47 86.27 -231.04 699.91c-78.82,239.01 39.81,450.66 302.92,450.66l625.76 0 279.2 0c261.91,0 515.36,-209.85 602.03,-450.66l617.78 -1809.89 852.89 0z"/>
  <path class="fil1" d="M12606.46 9034.61c-76.37,269.34 -206.35,722.98 -266.53,904.97l-299.15 904.92c-159.93,480.08 -690.72,904.97 -1204.15,904.97l-1809.91 0c-219.23,0 -425.6,-80.24 -552.23,-265.95l-1.77 -2.6c-129.45,-123.9 -3.66,-666.69 4.14,-672.85l515.16 -1777.26 -1.37 3.8 67.21 0 111.56 0 658.23 0 93.43 0 -605.77 1809.89c-78.82,239.01 50.38,450.66 313.49,450.66l904.96 0c261.91,0 515.36,-209.85 602.03,-450.66l617.78 -1809.89 852.89 0z"/>
  <g>
   <path class="fil1" d="M22348.82 10251.35l101.81 -307.93c19.68,-61.52 27.08,-120.06 22.18,-175.44 -4.92,-55.42 -20.96,-103.48 -48.05,-144.1 -27.1,-40.63 -64.01,-72.6 -110.78,-95.99 -46.81,-23.4 -102.21,-35.13 -166.24,-35.13l-750.11 0 -53.12 0c-61.55,0 -123.75,11.73 -186.55,35.13 -62.75,23.39 -121.29,55.36 -175.44,95.99 -54.17,40.62 -102.21,88.68 -144.04,144.1 -41.87,55.38 -73.86,113.92 -96.07,175.44l-147.77 454.32 802.99 0 901.52 0 49.67 -146.39 0 0zm-927.12 596.99l-24.07 0 -1046.41 0 -301.61 894.13c-0.91,2.72 -1.89,5.43 -2.82,8.14l-905.19 0 3.02 -8.14 926.52 -2710.32c450.86,0 879.26,6.3 1326.49,6.3l1352.2 0c125.59,0 235.13,24.03 328.72,72.01 93.59,48.05 168.09,112.69 223.5,193.94 55.41,81.24 88.65,176.66 99.73,286.24 11.07,109.59 -4.32,227.19 -46.2,352.78l-299.19 904.92 -625.22 0c225.9,303.12 459.91,623.4 674.72,896.65l-960.65 0 -723.54 -896.65z"/>
  </g>
  <polygon class="fil1" points="7445.65,10208.84 8292.02,9034.61 9169.42,9034.61 7970.07,10820.91 7664.3,11727.29 6615.46,11727.29 6921.23,10820.91 4773.11,7056 5650.51,7056 "/>
  <polygon class="fil0" points="7604.53,9710.67 7445.86,9989.75 6358.66,8074.75 6676.57,8074.75 7604.7,9710.35 "/>
 </g>
</svg>
