<svg width="24" height="24" viewBox="0 0 24 24" fill="none" xmlns="http://www.w3.org/2000/svg">
<path d="M12 12V17.4" stroke="currentColor" stroke-width="2" stroke-linecap="round"/>
<path d="M12.0004 17.3999C10.4941 17.3999 9.18313 18.3107 8.50628 19.6544C8.18301 20.2961 8.64689 20.9999 9.26329 20.9999H14.7375C15.3539 20.9999 15.8178 20.2961 15.4945 19.6544C14.8177 18.3107 13.5067 17.3999 12.0004 17.3999Z" stroke="currentColor" stroke-width="2" stroke-linecap="round"/>
<path d="M5.7 5.7002H4.78624C3.89837 5.7002 3.45443 5.7002 3.18015 6.03367C2.90587 6.36715 2.9863 6.74057 3.14717 7.48742C3.45444 8.91397 4.12093 10.1673 5.02401 11.1002" stroke="currentColor" stroke-width="2" stroke-linecap="round"/>
<path d="M18.3008 5.7002H19.2145C20.1024 5.7002 20.5463 5.7002 20.8206 6.03367C21.0949 6.36715 21.0145 6.74057 20.8536 7.48742C20.5463 8.91397 19.8798 10.1673 18.9768 11.1002" stroke="currentColor" stroke-width="2" stroke-linecap="round"/>
<path d="M11.9992 12C15.4786 12 18.2992 9.19479 18.2992 5.73439C18.2992 5.64365 18.2973 5.55336 18.2934 5.46356C18.255 4.56425 18.2358 4.1146 17.6263 3.5573C17.0168 3 16.3415 3 14.9909 3H9.00758C7.65696 3 6.98164 3 6.37216 3.5573C5.76268 4.1146 5.74345 4.56425 5.705 5.46356C5.70116 5.55336 5.69922 5.64365 5.69922 5.73439C5.69922 9.19479 8.51982 12 11.9992 12Z" stroke="currentColor" stroke-width="2" stroke-linecap="round"/>
</svg>
