<svg width="24" height="24" viewBox="0 0 24 24" fill="none" xmlns="http://www.w3.org/2000/svg">
<path d="M12 21C7.0294 21 3 16.9706 3 12C3 7.02944 7.02944 3 12 3C16.0299 3 19.4031 5.6486 20.55 9.3H17.0625" stroke="currentColor" stroke-width="2" stroke-linecap="round" stroke-linejoin="round"/>
<path d="M12 8.3999V11.9999L13.8 13.7999" stroke="currentColor" stroke-width="2" stroke-linecap="round" stroke-linejoin="round"/>
<path d="M20.9588 12.9C20.9855 12.6038 20.9992 12.3036 20.9992 12M14.6992 21C15.0067 20.8988 15.307 20.7808 15.5992 20.647M19.9108 16.5C20.0843 16.1656 20.2391 15.8189 20.3737 15.4616M17.5724 19.4063C17.8825 19.1497 18.176 18.8722 18.4511 18.5758" stroke="currentColor" stroke-width="2" stroke-linecap="round" stroke-linejoin="round"/>
</svg>
