<svg width="20" height="20" viewBox="0 0 20 20"  xmlns="http://www.w3.org/2000/svg">
<path d="M6.45817 2.08337C6.45817 1.7382 6.17835 1.45837 5.83317 1.45837C5.48799 1.45837 5.20817 1.7382 5.20817 2.08337V3.39942C4.00873 3.49547 3.22131 3.73119 2.64281 4.30968C2.06432 4.88818 1.8286 5.6756 1.73255 6.87504H18.2671C18.1711 5.6756 17.9354 4.88818 17.3569 4.30968C16.7784 3.73119 15.9909 3.49547 14.7915 3.39942V2.08337C14.7915 1.7382 14.5117 1.45837 14.1665 1.45837C13.8213 1.45837 13.5415 1.7382 13.5415 2.08337V3.34413C12.9871 3.33337 12.3657 3.33337 11.6665 3.33337H8.33317C7.63398 3.33337 7.01256 3.33337 6.45817 3.34413V2.08337Z"/>
<path fill-rule="evenodd" clip-rule="evenodd" d="M1.6665 10C1.6665 9.30084 1.6665 8.67943 1.67726 8.12504H18.3224C18.3332 8.67943 18.3332 9.30084 18.3332 10V11.6667C18.3332 14.8094 18.3332 16.3808 17.3569 17.3571C16.3805 18.3334 14.8092 18.3334 11.6665 18.3334H8.33317C5.19047 18.3334 3.61913 18.3334 2.64281 17.3571C1.6665 16.3808 1.6665 14.8094 1.6665 11.6667V10ZM14.1665 11.6667C14.6267 11.6667 14.9998 11.2936 14.9998 10.8334C14.9998 10.3731 14.6267 10 14.1665 10C13.7063 10 13.3332 10.3731 13.3332 10.8334C13.3332 11.2936 13.7063 11.6667 14.1665 11.6667ZM14.1665 15C14.6267 15 14.9998 14.6269 14.9998 14.1667C14.9998 13.7065 14.6267 13.3334 14.1665 13.3334C13.7063 13.3334 13.3332 13.7065 13.3332 14.1667C13.3332 14.6269 13.7063 15 14.1665 15ZM10.8332 10.8334C10.8332 11.2936 10.4601 11.6667 9.99984 11.6667C9.5396 11.6667 9.1665 11.2936 9.1665 10.8334C9.1665 10.3731 9.5396 10 9.99984 10C10.4601 10 10.8332 10.3731 10.8332 10.8334ZM10.8332 14.1667C10.8332 14.6269 10.4601 15 9.99984 15C9.5396 15 9.1665 14.6269 9.1665 14.1667C9.1665 13.7065 9.5396 13.3334 9.99984 13.3334C10.4601 13.3334 10.8332 13.7065 10.8332 14.1667ZM5.83317 11.6667C6.29341 11.6667 6.6665 11.2936 6.6665 10.8334C6.6665 10.3731 6.29341 10 5.83317 10C5.37293 10 4.99984 10.3731 4.99984 10.8334C4.99984 11.2936 5.37293 11.6667 5.83317 11.6667ZM5.83317 15C6.29341 15 6.6665 14.6269 6.6665 14.1667C6.6665 13.7065 6.29341 13.3334 5.83317 13.3334C5.37293 13.3334 4.99984 13.7065 4.99984 14.1667C4.99984 14.6269 5.37293 15 5.83317 15Z"/>
</svg>
