<svg width="16" height="16" viewBox="0 0 16 16" fill="none" xmlns="http://www.w3.org/2000/svg">
<path d="M13.1246 9.39539L13.2469 8.25895C13.3121 7.65259 13.3552 7.2522 13.3214 6.99993L13.3332 7C13.8855 7 14.3332 6.55229 14.3332 6C14.3332 5.44772 13.8855 5 13.3332 5C12.7809 5 12.3332 5.44772 12.3332 6C12.3332 6.24977 12.4247 6.47816 12.5761 6.65342C12.3588 6.78758 12.0746 7.07066 11.6468 7.49676L11.6468 7.49677C11.3173 7.82503 11.1525 7.98916 10.9687 8.01458C10.8669 8.02866 10.7631 8.01418 10.669 7.97277C10.4993 7.89803 10.3861 7.69512 10.1598 7.28931L8.9668 5.15027C8.82718 4.89992 8.71032 4.69038 8.60495 4.52177C9.03718 4.30125 9.33317 3.85186 9.33317 3.33333C9.33317 2.59695 8.73622 2 7.99984 2C7.26346 2 6.6665 2.59695 6.6665 3.33333C6.6665 3.85186 6.96249 4.30125 7.39472 4.52177C7.28935 4.69039 7.17251 4.89989 7.03287 5.15027L5.83988 7.28931C5.61354 7.69512 5.50038 7.89803 5.33064 7.97277C5.23659 8.01418 5.13282 8.02866 5.03097 8.01458C4.84715 7.98916 4.68238 7.82503 4.35283 7.49677C3.92508 7.07067 3.64088 6.78758 3.42352 6.65342C3.57493 6.47816 3.6665 6.24977 3.6665 6C3.6665 5.44772 3.21879 5 2.6665 5C2.11422 5 1.6665 5.44772 1.6665 6C1.6665 6.55229 2.11422 7 2.6665 7L2.67831 6.99993C2.64451 7.2522 2.68758 7.65259 2.7528 8.25895L2.87504 9.39539C2.94289 10.0262 2.99931 10.6264 3.06842 11.1667H12.9313C13.0004 10.6264 13.0568 10.0262 13.1246 9.39539Z" fill="#FFC93F"/>
<path d="M7.27454 14H8.72513C10.6157 14 11.5611 14 12.1918 13.4354C12.4671 13.189 12.6414 12.7448 12.7672 12.1667H3.23248C3.35827 12.7448 3.53259 13.189 3.80789 13.4354C4.43862 14 5.38393 14 7.27454 14Z" fill="#FFC93F"/>
</svg>
