<svg width="20" height="20" viewBox="0 0 20 20" xmlns="http://www.w3.org/2000/svg">
<path fill-rule="evenodd" clip-rule="evenodd" d="M10.4786 18.1822C10.1914 18.3836 9.80844 18.3833 9.52125 18.1819L9.51915 18.1805L9.5145 18.1772L9.49897 18.1661C9.4859 18.1568 9.46743 18.1435 9.44394 18.1264C9.39696 18.0922 9.32981 18.0426 9.24538 17.9784C9.07661 17.8502 8.8383 17.6635 8.55359 17.425C7.98539 16.949 7.22609 16.2615 6.46426 15.4156C4.9699 13.7563 3.3335 11.3421 3.3335 8.63632C3.3335 6.80108 4.02615 5.03304 5.27139 3.7231C6.518 2.41174 8.21804 1.66663 10.0002 1.66663C11.7823 1.66663 13.4823 2.41174 14.7289 3.7231C15.9742 5.03304 16.6668 6.80108 16.6668 8.63632C16.6668 11.3421 15.0304 13.7563 13.5361 15.4156C12.7742 16.2615 12.0149 16.949 11.4467 17.425C11.162 17.6635 10.9237 17.8502 10.7549 17.9784C10.6705 18.0426 10.6034 18.0922 10.5564 18.1264C10.5329 18.1435 10.5144 18.1568 10.5014 18.1661L10.4858 18.1772L10.4812 18.1805L10.4796 18.1815L10.4786 18.1822ZM7.50016 8.33329C7.50016 6.95258 8.61945 5.83329 10.0002 5.83329C11.3809 5.83329 12.5002 6.95258 12.5002 8.33329C12.5002 9.71401 11.3809 10.8333 10.0002 10.8333C8.61945 10.8333 7.50016 9.71401 7.50016 8.33329Z" fill="#FF3A3C"/>
</svg>
