<svg width="25" height="24" viewBox="0 0 25 24" fill="none" xmlns="http://www.w3.org/2000/svg">
<path d="M14.8825 12C14.8825 13.3807 13.7632 14.5 12.3825 14.5C11.0018 14.5 9.88253 13.3807 9.88253 12C9.88253 10.6193 11.0018 9.5 12.3825 9.5C13.7632 9.5 14.8825 10.6193 14.8825 12Z" stroke="currentColor" stroke-width="2"/>
<path d="M2.3335 12C2.3335 8.46252 2.3335 6.69377 3.3863 5.5129C3.55468 5.32403 3.74027 5.14935 3.94095 4.99087C5.19563 4 7.07492 4 10.8335 4H13.8335C17.5921 4 19.4714 4 20.726 4.99087C20.9267 5.14935 21.1123 5.32403 21.2807 5.5129C22.3335 6.69377 22.3335 8.46252 22.3335 12C22.3335 15.5375 22.3335 17.3062 21.2807 18.4871C21.1123 18.676 20.9267 18.8506 20.726 19.0091C19.4714 20 17.5921 20 13.8335 20H10.8335C7.07492 20 5.19563 20 3.94095 19.0091C3.74027 18.8506 3.55468 18.676 3.3863 18.4871C2.3335 17.3062 2.3335 15.5375 2.3335 12Z" stroke="currentColor" stroke-width="2" stroke-linecap="round" stroke-linejoin="round"/>
<path d="M18.8433 12H18.8343" stroke="currentColor" stroke-width="2" stroke-linecap="round" stroke-linejoin="round"/>
<path d="M5.8335 12H5.82451" stroke="currentColor" stroke-width="2" stroke-linecap="round" stroke-linejoin="round"/>
</svg>
