<svg width="20" height="20" viewBox="0 0 20 20"  xmlns="http://www.w3.org/2000/svg">
<path fill-rule="evenodd" clip-rule="evenodd" d="M12.4998 1.66663H14.1665C15.7379 1.66663 16.5235 1.66663 17.0117 2.15478C17.4998 2.64294 17.4998 3.42861 17.4998 4.99996V17.7083H18.3332C18.6784 17.7083 18.9582 17.9881 18.9582 18.3333C18.9582 18.6785 18.6784 18.9583 18.3332 18.9583H1.6665C1.32133 18.9583 1.0415 18.6785 1.0415 18.3333C1.0415 17.9881 1.32133 17.7083 1.6665 17.7083H2.49984V7.49996C2.49984 5.92861 2.49984 5.14294 2.98799 4.65478C3.47615 4.16663 4.26182 4.16663 5.83317 4.16663H9.1665C10.7379 4.16663 11.5235 4.16663 12.0117 4.65478C12.4998 5.14294 12.4998 5.92861 12.4998 7.49996V17.7083H13.7498V7.49996L13.7498 7.42539C13.7499 6.70402 13.75 6.04263 13.6777 5.50461C13.598 4.91215 13.4106 4.28594 12.8956 3.7709C12.3805 3.25586 11.7543 3.06845 11.1619 2.98879C10.6314 2.91748 9.98104 2.91655 9.27151 2.91662C9.34176 2.59391 9.45899 2.35045 9.65466 2.15478C10.1428 1.66663 10.9285 1.66663 12.4998 1.66663ZM4.37484 6.66663C4.37484 6.32145 4.65466 6.04163 4.99984 6.04163H9.99984C10.345 6.04163 10.6248 6.32145 10.6248 6.66663C10.6248 7.0118 10.345 7.29163 9.99984 7.29163H4.99984C4.65466 7.29163 4.37484 7.0118 4.37484 6.66663ZM4.37484 9.16663C4.37484 8.82145 4.65466 8.54163 4.99984 8.54163H9.99984C10.345 8.54163 10.6248 8.82145 10.6248 9.16663C10.6248 9.5118 10.345 9.79163 9.99984 9.79163H4.99984C4.65466 9.79163 4.37484 9.5118 4.37484 9.16663ZM4.37484 11.6666C4.37484 11.3214 4.65466 11.0416 4.99984 11.0416H9.99984C10.345 11.0416 10.6248 11.3214 10.6248 11.6666C10.6248 12.0118 10.345 12.2916 9.99984 12.2916H4.99984C4.65466 12.2916 4.37484 12.0118 4.37484 11.6666ZM7.49984 15.2083C7.84502 15.2083 8.12484 15.4881 8.12484 15.8333V17.7083H6.87484V15.8333C6.87484 15.4881 7.15466 15.2083 7.49984 15.2083Z"/>
</svg>
