<svg width="24" height="24" viewBox="0 0 24 24" fill="none" xmlns="http://www.w3.org/2000/svg">
    <circle cx="18.5" cy="4.5" r="2.5" stroke="currentColor" stroke-width="2" />
    <path
        d="M9 17L7.99923 18.2009C7.262 19.0856 6.89338 19.5279 6.38945 19.764C5.88552 20 5.30973 20 4.15813 20H3"
        stroke="currentColor" stroke-width="2" stroke-linecap="round" />
    <path
        d="M13.3998 22C13.3998 22.5523 13.8475 23 14.3998 23C14.9521 23 15.3998 22.5523 15.3998 22H13.3998ZM12.5644 16.2459L13.1682 15.4488L13.1682 15.4488L12.5644 16.2459ZM13.7488 17.2612L14.5317 16.6391L14.5317 16.6391L13.7488 17.2612ZM14.3057 18.3819L15.2744 18.1334L15.2744 18.1334L14.3057 18.3819ZM13.6722 11.7401C14.0808 11.3686 14.111 10.7361 13.7395 10.3274C13.3679 9.91879 12.7355 9.88868 12.3268 10.2602L13.6722 11.7401ZM10.8518 13.1646L11.7894 13.5123L11.7894 13.5123L10.8518 13.1646ZM10.9215 14.7202L10.0187 15.1503L10.0187 15.1503L10.9215 14.7202ZM13.3998 19.939V22H15.3998V19.939H13.3998ZM11.9605 17.0429C12.6346 17.5536 12.8272 17.7088 12.9658 17.8832L14.5317 16.6391C14.1992 16.2206 13.7593 15.8965 13.1682 15.4488L11.9605 17.0429ZM15.3998 19.939C15.3998 19.1975 15.4072 18.6511 15.2744 18.1334L13.3371 18.6303C13.3925 18.8461 13.3998 19.0934 13.3998 19.939H15.3998ZM12.9658 17.8832C13.1407 18.1034 13.2672 18.358 13.3371 18.6303L15.2744 18.1334C15.1346 17.5886 14.8816 17.0795 14.5317 16.6391L12.9658 17.8832ZM12.3268 10.2602C11.9152 10.6344 11.3798 11.0985 10.9691 11.4872C10.7575 11.6875 10.5503 11.8941 10.3788 12.0917C10.2275 12.2661 10.0233 12.5226 9.91424 12.8169L11.7894 13.5123C11.765 13.5781 11.7608 13.5507 11.8894 13.4024C11.9979 13.2774 12.1507 13.1226 12.344 12.9397C12.7431 12.562 13.1968 12.1723 13.6722 11.7401L12.3268 10.2602ZM13.1682 15.4488C12.6775 15.077 12.3567 14.833 12.128 14.6295C11.905 14.431 11.8459 14.3354 11.8243 14.2901L10.0187 15.1503C10.2066 15.5448 10.4911 15.85 10.7983 16.1234C11.0999 16.3918 11.4957 16.6908 11.9605 17.0429L13.1682 15.4488ZM9.91424 12.8169C9.63241 13.5768 9.67009 14.4185 10.0187 15.1503L11.8243 14.2901C11.7081 14.0462 11.6955 13.7656 11.7894 13.5123L9.91424 12.8169Z"
        fill="currentColor" />
    <path
        d="M5.43568 8.82067L4.94167 7.95122H4.94167L5.43568 8.82067ZM3.50599 8.76694C3.0258 9.03978 2.85771 9.65022 3.13054 10.1304C3.40338 10.6106 4.01382 10.7787 4.49401 10.5059L3.50599 8.76694ZM13.4066 7.35719L13.026 8.28191H13.026L13.4066 7.35719ZM10.4467 6.64289L10.3742 5.64553L10.4467 6.64289ZM21 13C21.5523 13 22 12.5523 22 12C22 11.4478 21.5523 11 21 11V13ZM15.7681 9.53622L14.8737 9.98343V9.98344L15.7681 9.53622ZM4.94167 7.95122L3.50599 8.76694L4.49401 10.5059L5.92969 9.69013L4.94167 7.95122ZM13.7873 6.43247C12.4465 5.88056 11.6589 5.55211 10.3742 5.64553L10.5193 7.64026C11.277 7.58516 11.6591 7.71926 13.026 8.28191L13.7873 6.43247ZM5.92969 9.69013C8.45228 8.25684 9.44611 7.7183 10.5193 7.64026L10.3742 5.64553C8.7452 5.76398 7.29905 6.6118 4.94167 7.95122L5.92969 9.69013ZM19.7546 13H21V11H19.7546V13ZM14.8737 9.98344C15.7981 11.8322 17.6876 13 19.7546 13V11C18.4452 11 17.2481 10.2602 16.6625 9.08901L14.8737 9.98344ZM16.6625 9.08901C16.0568 7.87763 15.0257 6.94226 13.7873 6.43247L13.026 8.28191C13.8319 8.61365 14.4907 9.2174 14.8737 9.98343L16.6625 9.08901Z"
        fill="currentColor" />
</svg>