<svg width="48" height="48" viewBox="0 0 48 48" fill="none" xmlns="http://www.w3.org/2000/svg">
<path d="M11.3438 9.23438H4.21875C3.44147 9.23438 2.8125 8.60541 2.8125 7.82812C2.8125 7.05084 3.44147 6.42188 4.21875 6.42188H11.3438C12.121 6.42188 12.75 7.05084 12.75 7.82812C12.75 8.60541 12.121 9.23438 11.3438 9.23438Z" fill="#D8DADF"/>
<path d="M11.3438 20.4844H4.21875C3.44147 20.4844 2.8125 19.8554 2.8125 19.0781C2.8125 18.3008 3.44147 17.6719 4.21875 17.6719H11.3438C12.121 17.6719 12.75 18.3008 12.75 19.0781C12.75 19.8554 12.121 20.4844 11.3438 20.4844Z" fill="#D8DADF"/>
<path d="M8.53125 14.8594H1.40625C0.628969 14.8594 0 14.2304 0 13.4531C0 12.6758 0.628969 12.0469 1.40625 12.0469H8.53125C9.30853 12.0469 9.9375 12.6758 9.9375 13.4531C9.9375 14.2304 9.30853 14.8594 8.53125 14.8594Z" fill="#D8DADF"/>
<path d="M26.2632 4.78489C25.1454 4.04192 23.6622 4.18892 22.7146 5.13646L14.9802 12.8708C13.8816 13.9695 13.8816 15.7492 14.9802 16.8479C16.0789 17.9466 17.8586 17.9466 18.9573 16.8479L25.0616 10.7436L29.4296 13.8902L35.4038 11.113L26.2632 4.78489Z" fill="#707587"/>
<path d="M20.6052 22.7146L2.32399 40.9958C1.22534 42.0945 1.22534 43.8743 2.32399 44.9729C3.42255 46.0715 5.2024 46.0716 6.30105 44.9729L22.5938 28.6802L20.6052 22.7146Z" fill="#707587"/>
<path d="M45.1875 19.0781H36.6563V13.4531C36.6563 12.3475 35.9875 11.3011 34.9185 10.8577C33.8423 10.4126 32.6309 10.6879 31.8544 11.4654L20.6052 22.7146C19.5066 23.8132 19.5066 25.593 20.6052 26.6917L27.0542 33.1406L19.199 40.9958C18.1003 42.0945 18.1003 43.8742 19.199 44.9729C20.2976 46.0715 22.0774 46.0716 23.1761 44.9729L33.0198 35.1292C34.1185 34.0305 34.1185 32.2507 33.0198 31.1521L26.5708 24.7031L31.0313 20.2427V21.8906C31.0313 23.4438 32.2906 24.7031 33.8438 24.7031H45.1875C46.7407 24.7031 48 23.4438 48 21.8906C48 20.3375 46.7407 19.0781 45.1875 19.0781Z" fill="#B6B9C3"/>
<path d="M40.875 10.6406C43.205 10.6406 45.0938 8.75183 45.0938 6.42188C45.0938 4.09192 43.205 2.20312 40.875 2.20312C38.545 2.20312 36.6562 4.09192 36.6562 6.42188C36.6562 8.75183 38.545 10.6406 40.875 10.6406Z" fill="#B6B9C3"/>
</svg>
