<?xml version="1.0" encoding="UTF-8"?>
<!DOCTYPE svg PUBLIC "-//W3C//DTD SVG 1.1//EN" "http://www.w3.org/Graphics/SVG/1.1/DTD/svg11.dtd">
<!-- Creator: CorelDRAW -->
<svg xmlns="http://www.w3.org/2000/svg" xml:space="preserve" width="887.071mm" height="681.588mm" version="1.1" style="shape-rendering:geometricPrecision; text-rendering:geometricPrecision; image-rendering:optimizeQuality; fill-rule:evenodd; clip-rule:evenodd"
viewBox="0 0 88703.42 68155.91"
 xmlns:xlink="http://www.w3.org/1999/xlink"
 xmlns:xodm="http://www.corel.com/coreldraw/odm/2003">
 <defs>
  <style type="text/css">
   <![CDATA[
    .fil1 {fill:#F58634}
    .fil2 {fill:#ffff}
    .fil0 {fill:#ffff;fill-rule:nonzero}
   ]]>
  </style>
 </defs>
 <g id="Layer_x0020_1">
  <metadata id="CorelCorpID_0Corel-Layer"/>
  <g id="_2060109392944">
   <path class="fil0" d="M4129.51 60151.22l2436.35 0 0 3793.36c0,556.19 16.65,957.86 48.02,1199.54 33.58,243.57 88,447.22 167.57,610.73 92.05,198.19 257.41,350.82 489.79,456.21 232.38,103.69 517.02,156.38 851.84,156.38 334.96,0 617.56,-52.7 849.94,-156.38 230.18,-105.4 395.59,-258.02 491.78,-456.21 79.62,-163.51 133.98,-367.16 167.43,-610.73 31.55,-241.68 48.16,-643.35 48.16,-1199.54l0 -532.53 0 -3260.83 2436.39 0 0 4122.28c0,856.16 -58.6,1486.78 -177.83,1894.04 -119.24,405.23 -318.17,752.35 -600.78,1041.44 -305.57,314.48 -726.22,552.45 -1262.14,710.67 -535.84,158.09 -1184.65,236.26 -1948.63,236.26 -770.34,0 -1419.32,-78.17 -1952.95,-236.26 -533.77,-158.22 -956.71,-396.19 -1266.34,-710.67 -278.42,-289.09 -477.36,-636.2 -598.75,-1041.44 -119.23,-407.26 -179.85,-1037.88 -179.85,-1894.04l0 -808.88 0 -3313.4zm16262.28 7797.51l-7937.23 0 4531.52 -6107.08 -3635.75 0 0 -1690.43 7556.27 0 -4521.13 6096.21 4006.31 0 0 1701.31zm6626.08 -2911.86l2434.19 0 -914.76 -2573.6c-27.06,-78.21 -66.85,-203.65 -115.05,-378.05 -50.19,-174.57 -112.98,-398.09 -190.57,-670.88 -52.21,190.88 -104.61,374.61 -156.99,549.01 -50.19,172.72 -102.45,339.99 -154.83,499.93l-901.98 2573.6zm-3430.73 2911.86l3099.95 -7797.51 3066.52 0 3101.94 7797.51 -2434.37 0 -454.18 -1396.01 -3476.73 0 -466.61 1396.01 -2436.52 0zm10319.81 0l0 -5954.45 -2009.39 0 0 -1843.06 6467.86 0 0 1843.06 -2009.53 0 0 5954.45 -2448.95 0zm5063.93 0l0 -7797.51 2448.95 0 0 3031.71 3265.31 0 0 -3031.71 2448.95 0 0 7797.51 -2448.95 0 0 -3173.46 -3265.31 0 0 3173.46 -2448.95 0zm9480.57 0l0 -7797.51 2448.95 0 0 5976.22 3039.15 0 0 1821.29 -5488.1 0zm6093.69 0l0 -7797.51 5500.88 0 0 1712.2 -3114.72 0 0 1352.34 2936.75 0 0 1668.48 -2936.75 0 0 1319.51 3114.72 0 0 1744.98 -5500.88 0zm7822.66 0l0 -5954.45 -2009.35 0 0 -1843.06 6467.86 0 0 1843.06 -2009.53 0 0 5954.45 -2448.99 0zm5126.75 -7797.51l2474.12 0 0 7797.51 -2474.12 0 0 -7797.51zm10359.57 305.49l0 2322.88c-334.79,-323.64 -669.78,-559.89 -1002.41,-710.67 -332.8,-150.95 -690.79,-227.27 -1069.6,-227.27 -703.35,0 -1272.59,209.07 -1708.14,625.19 -435.37,416.25 -653.12,959.66 -653.12,1630.41 0,625.32 221.94,1143.22 665.72,1553.93 443.79,412.68 1008.97,618 1695.54,618 378.8,0 736.8,-74.46 1069.6,-225.37 332.63,-148.93 667.62,-387.04 1002.41,-712.39l0 2322.88c-387.17,163.56 -774.39,287.11 -1157.37,368.88 -385.05,81.74 -772.4,121.83 -1165.82,121.83 -489.93,0 -941.95,-50.98 -1356.35,-150.73 -414.58,-101.83 -795.54,-256.35 -1142.96,-461.81 -669.78,-390.78 -1180.41,-881.54 -1532.16,-1474.04 -351.62,-594.44 -527.42,-1261.4 -527.42,-2003.01 0,-596.29 111,-1137.84 334.83,-1626.71 221.98,-488.99 558.79,-930.58 1006.77,-1328.67 424.97,-379.9 904.18,-663.44 1437.99,-852.41 533.77,-187.18 1126.17,-281.69 1779.31,-281.69 393.42,0 780.77,39.96 1165.82,121.73 382.98,81.92 770.2,205.33 1157.37,369.02zm1191.78 4972.8c364.34,358 721.99,625.18 1075.81,803.46 353.91,176.29 705.39,265.34 1057.13,265.34 326.59,0 596.43,-76.31 805.98,-229.12 211.23,-152.62 315.84,-345.22 315.84,-579.76 0,-258.03 -89.84,-458.11 -272.04,-598 -182.14,-139.9 -592.37,-285.39 -1232.93,-434.45 -879.03,-205.19 -1502.77,-474.24 -1867.16,-803.29 -364.03,-330.82 -546.06,-783.42 -546.06,-1357.8 0,-746.89 286.8,-1354.02 862.37,-1824.86 573.6,-470.66 1320.79,-705.07 2235.39,-705.07 496.05,0 964.99,58.16 1408.61,172.54 443.78,116.42 864.7,290.99 1262.32,525.39l-768.17 1526.74c-278.39,-205.5 -563.16,-359.84 -856.16,-465.37 -290.99,-103.55 -579.81,-156.24 -866.56,-156.24 -293.01,0 -531.6,61.73 -715.82,183.6 -184.18,121.69 -276.36,279.92 -276.36,470.8 0,194.48 79.58,350.69 240.75,468.99 161.22,116.24 473.01,228.94 933.58,334.34l110.82 27.19c998.57,234.58 1655.62,490.72 1969.6,772.54 213.75,190.74 374.74,421.58 485.74,688.77 110.86,269.04 165.4,565.31 165.4,892.38 0,827.08 -311.95,1492.37 -937.63,1993.97 -626.11,503.49 -1461.26,754.33 -2503.5,754.33 -625.98,0 -1195.17,-92.79 -1710.16,-276.18 -512.8,-185.63 -1006.77,-474.58 -1479.77,-868.93l1102.99 -1581.28zm-57487.71 -1319.51c0,-196.34 77.42,-359.85 232.25,-496.32 156.99,-134.47 347.56,-201.62 571.39,-201.62 228.15,0 420.75,67.15 573.56,201.62 152.8,136.46 230.35,299.98 230.35,496.32 0,190.69 -77.55,356.28 -232.38,492.56 -156.99,136.32 -345.36,205.37 -571.53,205.37 -219.82,0 -410.21,-69.05 -567.21,-205.37 -156.98,-136.28 -236.43,-301.87 -236.43,-492.56z"/>
   <path class="fil1" d="M38032.72 43036.09l0.13 0 0 -15.38 46268.19 0 4402.38 -4272.57 -50670.57 0 0 15.55 -0.13 0c-8142.6,0 -14743.48,-4064.6 -14743.48,-9078.33 0,-5013.87 6600.88,-9078.29 14743.48,-9078.29l0.13 0 9580.06 0 4402.39 -4272.57 -13982.45 0 -0.13 0c-11974.78,0 -21682,5977.45 -21682,13350.86 0,7373.32 9707.22,13350.73 21682,13350.73zm45473.58 755.92l-45473.45 0 0 15.38 -0.13 0c-12666.5,0 -22934.68,-6322.68 -22934.68,-14122.03 0,-7799.49 10268.18,-14122.16 22934.68,-14122.16l0.13 0 14777.18 0 4402.38 -4272.4 -19179.56 0 -0.13 0c-16498.55,0 -29873.38,8235.49 -29873.38,18394.56 0,10158.95 13374.83,18394.6 29873.38,18394.6l0.13 0 0 -15.55 41071.07 0 4402.38 -4272.4zm-5197.11 5043.88l-40276.34 0 0 15.37 -0.13 0c-17190.27,0 -31125.92,-8580.87 -31125.92,-19165.9 0,-10584.98 13935.65,-19165.86 31125.92,-19165.86l0.13 0 19974.16 0 4402.52 -4272.57 -24376.68 0 0 19.56c-21005.04,0 -38032.85,10484.92 -38032.85,23418.74 0,12933.82 17027.81,23418.86 38032.85,23418.86l0 4.19 35873.95 0 4402.39 -4272.39z"/>
   <path class="fil2" d="M56812.59 6774.08c-48.65,54.86 -397.3,311.96 -537.2,444.72l-1213.99 1246.28c-347.26,352.55 -711.29,1022.37 -1003.07,1458.05 -370.55,688.73 -1092.9,1760.97 -1780.23,2154.09 -132.44,75.52 -675.24,552.75 -1185.7,855.85 -440.83,150.9 -1022.36,514.82 -1315.63,733.05 -309.05,229.87 -483.57,527.25 -676.96,860.35 -176.11,433.83 -253.66,474.85 -361.21,951.77 -176.78,550.86 -438.06,908.51 -697.01,1371.73 -105.54,188.71 -298.13,448.46 -428.85,629.99 -218.24,302.79 -579.95,725.12 -826.47,1029.33l-875.77 980.19c-542,555.71 -469.43,640.88 -679.87,901.59 -78.04,163.51 -131.03,264.24 -194.31,456.04 -26.44,80.5 -54.86,154.52 -84.87,255.86 -125.3,425.42 -335.31,761.79 -509.22,1156 46.31,297.34 -982.71,1192.36 -1408.78,1278.5 -437.09,265.65 -1064.27,590.83 -1451.48,895.33 -727.46,572.19 -725.12,794.61 -1241.18,1446.5 -402.28,537.38 -686.26,1015.36 -1227.69,1421.83 -680.79,510.94 -1558.1,1914.57 -2127.47,2225.12 -724.51,395.27 -1633.98,-117.65 -1903.2,-91.08 -249.04,24.54 -730.59,11.63 -854,173.16 -378.48,495.21 -585.41,1217.86 -582.28,1877.86 1.54,302.62 2.34,606.99 1.41,909.61 -1.28,335.13 -134.78,760.72 -154.21,981.16 -46,519.01 -108.79,1893.42 -48.51,2321.96 339.19,1397.86 928.9,817.13 1314.27,-186.24 235.64,-613.65 866.56,-1505.73 1396.45,-1896.51 217.93,-160.86 383.95,-352.71 519.35,-578.4 39.79,-66.23 632.64,-661.1 854.44,-962.17l1053.43 -1141.99c259.4,-193.69 529.41,-481.11 769.9,-706.18 170.51,-169.41 580.56,-414.39 1002.89,-814.04l2231.94 -1780.27c572.06,-376.77 1984.19,-1404.38 2459.22,-1591.07 171,-67.33 297.99,-184.83 474.28,-247.45 240.27,-85.52 374.92,117.52 504.68,204.4 0,569.86 272.66,1582.52 492.13,2119.1 83.81,205.02 148.44,442.87 221.19,649.25 121.69,345.71 396.99,827.44 693.26,1048.01 234.72,174.7 230.36,234.23 637,233.62 912.43,-1.41 644.31,-202.38 644.31,-2006.58 0,-852.89 75.39,-1161.15 498.16,-1696.77 101.22,-128.08 283.98,-373.86 403.21,-467.4 748.91,-586.95 1980.62,-546.42 2884.67,-514.51 1701.88,59.97 3491.62,-173.78 5132,-163.69 1299.16,-62.35 1684.79,113.64 2561.96,-326.9 160.87,-80.68 404.27,-511.55 458.69,-749.66 245.11,-1071.46 -337.17,-1896.68 -777.34,-2772.58 -967.47,-1925.63 -2116.81,-2564.92 -3242.32,-4138.94 -507.37,-709.39 175.01,-974.29 805.32,-1262.45l1532.33 -928.29c231.59,-208.9 1352.65,-915.69 1711.41,-1164.86 1271.66,-883.83 1096.16,-898.9 1958.54,-76.5 1031.35,1206.54 1390.23,1453.07 2641.06,2242.53 302.17,190.56 614.78,499.3 909.96,716.88 507.19,373.86 552.58,312.44 1241.66,236.3 369.93,-40.76 592.23,-549.98 722.61,-832.86 319.93,-880.26 269.39,-900.92 476.92,-1799.69 45.21,-247.45 56.27,-515.44 84.69,-737.86l274.07 -2184.89c44.15,-238.28 114.25,-427.26 154.96,-682.99 52.39,-329.85 336.99,-2763.06 316.94,-2942.45 -79.27,-716.13 -427.14,-1116.38 -865.19,-1559.86 -932.3,-944.11 -724.64,-163.51 -1372.22,9.34 -141.43,-103.68 -180.78,-321.92 -234.54,-522.27 -67.63,-251.98 -219.64,-582.45 -358,-815.45 -277.15,-467.1 -1325.24,-970.9 -1791.11,-972.13 -722.97,-1.72 -1160.54,99.32 -1714.97,558.84 -547.16,453.56 -328,684.05 -589.11,1492.5 -93.9,290.68 -279.49,296.27 -650.09,296.27 -42.25,-87.99 -68.38,-175.49 -113.15,-265.16 -426.82,-854.62 -568.44,-1257.04 -1385.74,-1869.49 -412.37,-407.88 -811.4,-841.84 -1217.25,-1243.03 -768.48,-759.49 -1216.32,-1070.39 -2043.88,-2006.13 -148.57,-168.01 -518.39,-403.34 -707.54,-541.57 -694.37,-506.09 -2134.04,-318.79 -2974.66,-318.79 -490.58,0 -1034.17,-23.31 -1588.15,-37.93l-1387.28 0c-341.35,13.83 -672.73,41.68 -983.77,91.56l-733.84 98.88c-1056.39,45.82 -2830.57,-85.84 -3643.69,406.9 -420.43,254.77 -566.55,412.73 -840.12,825.24 -431.97,651.32 39.49,1556.91 379.28,1496.29 905.73,-211.09 962.62,-421.09 1680.43,-421.09 332.8,43.53 558.35,275.3 359.71,614.92 -84.6,144.56 -339.37,243.4 -341.83,670.57 -0.8,131.79 -153.42,328.88 -85.05,447.05 234.28,405.36 1072.07,-522.93 1269.34,-720.19 234.71,-235.02 452.16,-442.82 682.38,-680.18 325.66,-335.62 44.63,-1366.17 1647.2,-916.17 531.91,149.37 1819.57,100.91 2454.41,199.91 684.98,27.18 1331.63,68.38 1874.74,170.51 906.21,33.89 903.57,312.45 1013.77,424.8 475.51,484.06 472.56,911.19 844.97,1584.72 256.48,370.86 339.01,446.74 549.8,653.78 820.57,806.11 1279.73,1141.24 214.67,1826.57zm-7388.83 16389.89c764.91,168.31 2335.92,138.48 3131.5,-24.11 521.34,-106.5 3073.48,-336.06 3436.77,-671.8 -1413.1,-1040.08 -3182.49,-2428.29 -3918.67,-2462.48 -216.21,87.95 -1201.69,1232.14 -1394.73,1448.83 -227.09,254.64 -1249.45,1517.4 -1254.87,1709.56zm14454.04 -13038.29c37.01,705.69 620.64,886.78 739.26,1795.16 65.61,502.7 16.17,309.49 293.32,574.04 265.96,254.14 1244.31,967.59 1558.9,941.81 698.55,-57.54 1733.48,-1871.03 1231.09,-2984.3 -32.79,-115.8 -230.23,-722.17 -255.7,-849.02 -232.24,-1150.4 -576.68,-1999.26 -750.01,-2069.66 -269.97,-109.89 -363.86,1089.95 -812.77,1529.83 -169.9,166.5 -402.9,256.79 -671.37,351.3 -253.22,89.06 -766.76,347.87 -1025.89,486.84 -92.97,49.88 -217.18,165.23 -306.84,224.01z"/>
  </g>
 </g>
</svg>
