<svg width="100" height="52" viewBox="0 0 100 52" fill="none" xmlns="http://www.w3.org/2000/svg">
<path fill-rule="evenodd" clip-rule="evenodd" d="M25 26.5001C25 31.3108 17.3109 39 12.5001 39C7.6892 39 0 31.3108 0 26.5001C0 21.6894 7.6892 14 12.5001 14C17.3109 14 25 21.6894 25 26.5001ZM17.5 26.5001C17.5 28.4244 14.4242 31.5 12.5001 31.5C10.5756 31.5 7.5 28.4244 7.5 26.5001C7.5 24.5759 10.5758 21.5001 12.5001 21.5001C14.4242 21.5001 17.5 24.5759 17.5 26.5001Z" fill="#0065FF"/>
<path d="M38.6798 39C43.3665 39 46.3035 35.9832 47.1947 32.017H42.0462C41.4192 33.3729 40.4291 34.3899 38.6798 34.3899C36.5676 34.3899 35.0166 32.8306 35.0166 30.1525C35.0166 27.4747 36.5676 25.9151 38.6798 25.9151C40.4291 25.9151 41.4192 26.9321 42.0462 28.2882H47.1947C46.3035 24.322 43.3665 21.305 38.6798 21.305C33.6633 21.305 30 25.2374 30 30.1525C30 35.0679 33.6633 39 38.6798 39ZM48.9521 38.6272H53.9357V13.2034H48.9521V38.6272ZM59.3895 19.3728C61.1387 19.3728 62.5248 17.9491 62.5248 16.1863C62.5248 14.4237 61.1387 13 59.3895 13C57.7064 13 56.2871 14.4237 56.2871 16.1863C56.2871 17.9491 57.7064 19.3728 59.3895 19.3728ZM56.9143 38.6272H61.8979V21.678H56.9143V38.6272ZM72.5664 39C77.2526 39 80.1897 35.9832 81.0812 32.017H75.9327C75.3052 33.3729 74.3155 34.3899 72.5664 34.3899C70.4538 34.3899 68.903 32.8306 68.903 30.1525C68.903 27.4747 70.4538 25.9151 72.5664 25.9151C74.3155 25.9151 75.3052 26.9321 75.9327 28.2882H81.0812C80.1897 24.322 77.2526 21.305 72.5664 21.305C67.5499 21.305 63.8865 25.2374 63.8865 30.1525C63.8865 35.0679 67.5499 39 72.5664 39ZM93.9607 38.6272H100L92.4756 29.3391L98.548 21.678H92.6401L87.8219 27.7458V13.2034H82.8386V38.6272H87.8219V31.0678L93.9607 38.6272Z"
fill="#333333"/>
</svg>
